<?xml version="1.0" standalone="no"?>
<!DOCTYPE svg PUBLIC "-//W3C//DTD SVG 1.1//EN" "http://www.w3.org/Graphics/SVG/1.1/DTD/svg11.dtd" >
<svg>
<metadata>
Created by FontForge 20120731 at Mon Jul 11 15:38:45 2016
 By ,,,
Copyright (c) 2008-2010 by Jos Buivenga/exljbris. All rights reserved.
</metadata>
<defs>
<font id="Museo-100Italic" horiz-adv-x="600" >
  <font-face 
    font-family="Museo"
    font-weight="100"
    font-style="italic"
    font-stretch="normal"
    units-per-em="1000"
    panose-1="2 0 0 0 0 0 0 0 0 0"
    ascent="770"
    descent="-230"
    x-height="500"
    cap-height="700"
    bbox="-151 -212 1030 875"
    underline-thickness="50"
    underline-position="-50"
    slope="-11"
    unicode-range="U+0020-FB04"
  />
<missing-glyph horiz-adv-x="510" 
d="M505 0h-500v700h500v-700zM85 650l170 -255l170 255h-340zM455 605l-170 -255l170 -255v510zM55 605v-510l170 255zM255 305l-170 -255h340z" />
    <glyph glyph-name="f_f" unicode="ff" horiz-adv-x="560" 
d="M71 0h-42l90 462h-63l7 38h63l4 20q23 117 89 155q52 30 100 30l31 -2l-8 -38q-14 2 -25 2q-39 0 -78 -24q-49 -32 -67 -122l-4 -21h235l4 20q23 117 89 155q52 30 100 30l31 -2l-8 -38q-14 2 -25 2q-39 0 -78 -24q-49 -32 -67 -122l-4 -21h137l-7 -38h-137l-90 -462h-42
l90 462h-235z" />
    <glyph glyph-name="fi" unicode="fi" horiz-adv-x="501" 
d="M71 0h-42l90 462h-63l7 38h63l4 20q23 117 89 155q52 30 100 30l31 -2l-8 -38q-14 2 -25 2q-39 0 -78 -24q-49 -32 -67 -122l-4 -21h223q50 0 50 -39q0 -11 -4 -31l-70 -360q-3 -15 -3 -18q0 -14 19 -14h43l-7 -38h-49q-48 0 -48 41q0 15 3 29l69 355q3 15 3 23
q0 14 -18 14h-218zM473 627h-46l15 73h46z" />
    <glyph glyph-name="fl" unicode="fl" horiz-adv-x="497" 
d="M71 0h-42l90 462h-63l7 38h63l4 20q23 115 89 150q52 30 100 30h105q50 0 50 -39q0 -9 -4 -29l-109 -562q-3 -15 -3 -18q0 -14 19 -14h43l-7 -38h-49q-48 0 -48 41q0 11 3 25l108 559q3 15 3 23q0 14 -18 14h-95q-18 0 -36.5 -5t-41 -18.5t-40.5 -43.5t-27 -74l-4 -21
h137l-7 -38h-137z" />
    <glyph glyph-name="f_f_i" unicode="ffi" horiz-adv-x="777" 
d="M71 0h-42l90 462h-63l7 38h63l4 20q23 117 89 155q52 30 100 30l31 -2l-8 -38q-14 2 -25 2q-39 0 -78 -24q-49 -32 -67 -122l-4 -21h235l4 20q23 117 89 155q52 30 100 30l31 -2l-8 -38q-14 2 -25 2q-39 0 -78 -24q-49 -32 -67 -122l-4 -21h222q50 0 50 -39q0 -11 -4 -31
l-70 -360q-3 -15 -3 -18q0 -14 19 -14h43l-7 -38h-49q-48 0 -48 41q0 15 3 29l69 355q3 15 3 23q0 14 -18 14h-217l-90 -462h-42l90 462h-235zM749 627h-46l15 73h46z" />
    <glyph glyph-name="f_f_l" unicode="ffl" horiz-adv-x="774" 
d="M71 0h-42l90 462h-63l7 38h63l4 20q23 117 89 155q52 30 100 30l31 -2l-8 -38q-14 2 -25 2q-39 0 -78 -24q-49 -32 -67 -122l-4 -21h235l4 20q23 115 89 150q52 30 100 30h105q50 0 50 -39q0 -9 -4 -29l-109 -562q-3 -15 -3 -18q0 -14 19 -14h43l-7 -38h-49q-48 0 -48 41
q0 11 3 25l108 559q3 15 3 23q0 14 -18 14h-95q-18 0 -36.5 -5t-41 -18.5t-40.5 -43.5t-27 -74l-4 -21h137l-7 -38h-137l-90 -462h-42l90 462h-235z" />
    <glyph glyph-name="f_j" unicode="fj" horiz-adv-x="512" 
d="M71 0h-42l90 462h-63l7 38h63l4 20q23 117 89 155q52 30 100 30l31 -2l-8 -38q-14 2 -25 2q-39 0 -78 -24q-49 -32 -67 -122l-4 -21h247q50 0 50 -39q0 -10 -4 -30l-88 -452q-22 -117 -88 -155q-50 -29 -100 -29l-30 2l8 39q10 -2 21 -2q39 0 78 24q50 28 69 121l87 446
q3 15 3 23q0 14 -18 14h-242zM498 627h-46l14 73h46z" />
    <glyph glyph-name=".notdef" horiz-adv-x="510" 
d="M505 0h-500v700h500v-700zM85 650l170 -255l170 255h-340zM455 605l-170 -255l170 -255v510zM55 605v-510l170 255zM255 305l-170 -255h340z" />
    <glyph glyph-name=".null" horiz-adv-x="0" 
 />
    <glyph glyph-name="nonmarkingreturn" horiz-adv-x="333" 
 />
    <glyph glyph-name="space" unicode=" " horiz-adv-x="275" 
 />
    <glyph glyph-name="space" unicode="&#xa0;" horiz-adv-x="275" 
 />
    <glyph glyph-name="exclam" unicode="!" horiz-adv-x="227" 
d="M110 175h-43l103 525h43zM84 0h-57l12 59h57z" />
    <glyph glyph-name="quotedbl" unicode="&#x22;" horiz-adv-x="272" 
d="M259 558h-43l29 151h43zM155 558h-43l29 151h43z" />
    <glyph glyph-name="numbersign" unicode="#" horiz-adv-x="706" 
d="M140 0h-43l74 199h-152l15 40h152l82 221h-152l15 40h152l74 200h43l-74 -200h189l74 200h43l-74 -200h149l-15 -40h-149l-82 -221h149l-15 -40h-149l-74 -199h-43l74 199h-189zM311 460l-82 -221h189l82 221h-189z" />
    <glyph glyph-name="dollar" unicode="$" horiz-adv-x="500" 
d="M3 74l-6 9l31 31q9 -12 28 -30q63 -54 141 -54q80 0 135 46q56 47 56 119q0 88 -102 134q-3 1 -27 12t-30 14t-27 14t-28 17.5t-23 18.5t-22.5 22.5t-15 25t-11.5 31t-3 34.5q0 77 59 133q58 55 152 60l19 94h43l-19 -94q62 -5 104 -28q45 -24 45 -66q0 -5 -2 -21l-8 -40
h-43l6 29q3 13 3 21q0 29 -36.5 46.5t-90.5 17.5q-88 0 -138 -44q-49 -43 -49 -107q0 -76 102 -122q88 -40 118 -63q69 -53 69 -136q0 -87 -62 -147q-62 -59 -158 -63l-18 -92h-43l18 94q-100 9 -167 84z" />
    <glyph glyph-name="percent" unicode="%" horiz-adv-x="671" 
d="M213 451q-52 0 -83 31t-31 84q0 55 47 100q46 46 106 46q51 0 82 -31t31 -82q0 -58 -47 -103q-46 -45 -105 -45zM44 0h-56l662 700h57zM215 491q42 0 74 32q33 33 33 77q0 31 -20 51.5t-52 20.5q-42 0 -75 -33t-33 -76q0 -31 20 -51.5t53 -20.5zM325 103q0 55 47 100
q46 46 106 46q51 0 82 -31t31 -82q0 -58 -47 -103q-46 -45 -105 -45q-52 0 -83 31t-31 84zM368 100q0 -31 20 -51.5t53 -20.5q42 0 74 32q33 33 33 77q0 31 -20 51.5t-52 20.5q-42 0 -75 -33t-33 -76z" />
    <glyph glyph-name="ampersand" unicode="&#x26;" horiz-adv-x="612" 
d="M22 159q0 75 48 137q48 63 125 83v2q-3 1 -8 3.5t-18 12t-23 22t-18 36t-8 51.5q0 86 65 146q64 60 163 60q34 0 74 -8l11 -3l-20 -39q-33 9 -67 9q-74 0 -127 -46q-53 -47 -53 -120q0 -107 147 -107h163l20 102h43l-20 -102h97l-8 -40h-97l-22 -112q-51 -258 -265 -258
q-93 0 -147.5 46.5t-54.5 124.5zM67 166q0 -64 41.5 -100.5t115.5 -36.5q179 0 222 217l22 112h-161q-99 0 -170 -53q-70 -52 -70 -139z" />
    <glyph glyph-name="quotesingle" unicode="'" horiz-adv-x="168" 
d="M155 558h-43l29 151h43z" />
    <glyph glyph-name="parenleft" unicode="(" horiz-adv-x="246" 
d="M139 -95h-42q-46 123 -46 263q0 306 201 557h46q-206 -263 -206 -558q0 -135 47 -262z" />
    <glyph glyph-name="parenright" unicode=")" horiz-adv-x="248" 
d="M2 -95h-46q206 263 206 558q0 135 -47 262h42q46 -123 46 -263q0 -306 -201 -557z" />
    <glyph glyph-name="asterisk" unicode="*" horiz-adv-x="462" 
d="M262 477l-119 -133l-33 26l124 131v2l-144 46l21 41l144 -54l27 164h47l-37 -164l167 53l6 -42l-167 -49v-2l71 -128l-37 -25l-68 134h-2z" />
    <glyph glyph-name="plus" unicode="+" 
d="M263 0h-43l52 263h-237l7 40h237l52 263h43l-52 -263h236l-7 -40h-236z" />
    <glyph glyph-name="comma" unicode="," horiz-adv-x="221" 
d="M6 -94h-41l84 155h52z" />
    <glyph glyph-name="hyphen" unicode="-" horiz-adv-x="420" 
d="M341 263h-276l7 40h276z" />
    <glyph glyph-name="hyphen" unicode="&#xad;" horiz-adv-x="420" 
d="M341 263h-276l7 40h276z" />
    <glyph glyph-name="period" unicode="." horiz-adv-x="203" 
d="M74 0h-57l11 59h57z" />
    <glyph glyph-name="slash" unicode="/" horiz-adv-x="386" 
d="M24 -42h-47l405 782h47z" />
    <glyph glyph-name="zero" unicode="0" horiz-adv-x="597" 
d="M57 209q0 131 43 255q25 71 58 123q37 57 92.5 91t121.5 34q188 0 188 -223q0 -161 -68 -317q-34 -80 -99 -132q-64 -52 -148 -52q-188 0 -188 221zM101 207q0 -177 145 -177q56 0 104 31.5t79 82.5t50 113q36 113 36 233q0 180 -144 180q-67 0 -121.5 -44t-86.5 -118
q-62 -147 -62 -301z" />
    <glyph glyph-name="one" unicode="1" horiz-adv-x="400" 
d="M340 0h-356l7 40h159l111 570l8 35h-2q-10 -13 -46 -43l-99 -83l-24 29l181 152h43l-129 -660h155z" />
    <glyph glyph-name="two" unicode="2" horiz-adv-x="545" 
d="M387 0h-345q-27 0 -37 11.5t-10 38.5q0 56 35.5 104t88 80t114.5 67t114.5 66t88 77.5t35.5 100.5q0 58 -36 91.5t-101 33.5q-57 0 -103 -26q-45 -26 -52 -63l-6 -30h-43l8 41q12 62 72 90q60 30 129 30q83 0 130.5 -45.5t47.5 -119.5q0 -53 -26.5 -98t-68.5 -78
t-93 -62.5t-101.5 -56.5t-92.5 -54t-68.5 -62t-26.5 -74q0 -13 4 -17.5t15 -4.5h330q22 0 26 22l10 49h42l-10 -53q-10 -58 -70 -58z" />
    <glyph glyph-name="three" unicode="3" horiz-adv-x="533" 
d="M3 75l-8 10l34 29q9 -12 28 -30q66 -55 141 -55q85 0 152 59q67 60 67 144q0 66 -44 101.5t-116 35.5l-50 -3l-8 32l252 242l26 20v2q-26 -2 -30 -2h-245q-22 0 -26 -22l-10 -49h-42l10 53q10 58 70 58h345l-6 -30l-275 -262q30 1 61 -7t62 -25.5t51 -53.5t20 -85
q0 -103 -78 -176q-77 -73 -185 -73q-69 0 -121 29t-75 58z" />
    <glyph glyph-name="four" unicode="4" horiz-adv-x="559" 
d="M358 200h-359l6 30l451 470h43l-90 -460h113l-8 -40h-113l-39 -200h-43zM71 242v-2h295l69 353l10 39h-2q-18 -22 -28 -32z" />
    <glyph glyph-name="five" unicode="5" horiz-adv-x="526" 
d="M10 70l-7 9l32 27q0 -3 15.5 -20t54.5 -37t86 -20q91 0 161 64q71 65 71 154q0 69 -45 110.5t-118 41.5q-34 0 -70 -10t-56 -22l-18 -11l-31 11l86 275q10 32 25 45t45 13h218q30 0 40.5 -13.5t4.5 -44.5l-10 -53h-42l10 49q4 22 -18 22h-205q-19 0 -26 -22l-57 -185
l-15 -43h2q48 30 123 30q90 0 146 -54q56 -53 56 -138q0 -106 -84 -183q-85 -77 -195 -77q-69 0 -116 27.5t-63 54.5z" />
    <glyph glyph-name="six" unicode="6" horiz-adv-x="558" 
d="M47 236q0 112 60 236q33 67 75 118q46 56 109.5 89t133.5 33q68 0 112 -21l14 -7l-26 -37q-41 24 -100 24q-119 0 -206 -104q-78 -95 -111 -219h2q37 44 92.5 70t113.5 26q85 0 136 -48.5t51 -129.5q3 -104 -71.5 -191.5t-183.5 -86.5q-95 0 -148 67.5t-53 180.5zM92 221
q0 -75 41 -134q42 -58 114 -58q88 0 150 68q61 68 61 169q0 64 -38.5 100.5t-105.5 36.5q-46 0 -96 -22q-51 -23 -88 -66q-38 -44 -38 -94z" />
    <glyph glyph-name="seven" unicode="7" horiz-adv-x="490" 
d="M92 0h-51l435 632l23 28v2q-20 -2 -33 -2h-308q-23 0 -27 -22l-9 -49h-42l10 53q10 58 70 58h401l-6 -30z" />
    <glyph glyph-name="eight" unicode="8" horiz-adv-x="567" 
d="M29 168q0 77 54 139q21 25 48 48q32 27 64 44q-70 48 -70 119q0 76 65 135q67 59 169 59q89 0 137 -39.5t48 -109.5q0 -80 -64 -156q-49 -56 -71 -72q82 -52 82 -127q0 -94 -78 -157t-181 -63q-86 0 -145 47q-58 46 -58 133zM370 356q26 18 70 67q58 65 58 140
q0 49 -38 78.5t-101 29.5q-81 0 -135 -45q-53 -45 -53 -107q0 -50 45 -82q40 -26 44 -28l56 -28q15 -7 34 -15.5t20 -9.5zM75 168q0 -64 45 -102q46 -37 112 -37q82 0 147 50q66 51 66 128q0 50 -49 84q-27 19 -47 28q-33 17 -59 29q-27 12 -56 28q-42 -23 -89 -64
q-70 -60 -70 -144z" />
    <glyph glyph-name="nine" unicode="9" horiz-adv-x="558" 
d="M44 9l-14 7l23 37q41 -24 100 -24q119 0 205 104q79 94 112 219h-2q-37 -44 -92.5 -70t-114.5 -26q-85 0 -135.5 47.5t-50.5 130.5q-3 104 71.5 191.5t183.5 86.5q95 0 148 -67.5t53 -180.5q0 -114 -61 -237q-31 -63 -75 -118t-108 -88t-134 -33q-69 0 -109 21zM261 297
q46 0 96 22q52 23 90 65q39 44 39 95q0 74 -41 133t-112 59q-89 0 -151 -69q-62 -70 -62 -168q0 -63 38 -100t103 -37z" />
    <glyph glyph-name="colon" unicode=":" horiz-adv-x="200" 
d="M157 441h-57l11 59h57zM71 0h-57l11 59h57z" />
    <glyph glyph-name="semicolon" unicode=";" horiz-adv-x="261" 
d="M200 441h-57l11 59h57zM35 -94h-41l75 155h52z" />
    <glyph glyph-name="less" unicode="&#x3c;" 
d="M494 68l-439 197v36l439 197v-48l-377 -166v-2l377 -166v-48z" />
    <glyph glyph-name="equal" unicode="=" 
d="M524 343h-456v40h456v-40zM524 183h-456v40h456v-40z" />
    <glyph glyph-name="greater" unicode="&#x3e;" 
d="M541 265l-439 -197v48l377 166v2l-377 166v48l439 -197v-36z" />
    <glyph glyph-name="question" unicode="?" horiz-adv-x="444" 
d="M178 175h-43l9 44q18 86 101 153q2 2 19.5 15.5t21 16.5t19 16t20 18t16.5 17t16 19.5t11.5 20t10.5 22.5t5.5 22.5t2.5 25.5q0 46 -33 75.5t-89 29.5q-68 0 -119 -32l-17 -10l-17 37l22 13q14 8 54 21q39 13 79 13q77 0 121.5 -39.5t44.5 -105.5q0 -91 -79 -159
q-11 -9 -39 -31t-43 -35.5t-35.5 -34.5t-32.5 -43t-17 -45zM153 0h-59l13 61h59z" />
    <glyph glyph-name="at" unicode="@" horiz-adv-x="741" 
d="M33 178q0 112 60 212q62 101 161 159q101 59 212 59q93 0 142 -40.5t49 -108.5q0 -18 -3 -33l-66 -339h70l-8 -40h-257q-75 0 -121 46t-46 116q0 90 71 159q72 69 168 69h146q2 18 2 25q0 47 -39 76.5t-113 29.5q-152 0 -267.5 -117.5t-115.5 -272.5q0 -115 69 -187
q71 -72 183 -72l-8 -41q-125 0 -207 85q-82 83 -82 215zM271 212q0 -55 35 -90t92 -35h145l60 310h-143q-72 0 -131 -57q-58 -55 -58 -128z" />
    <glyph glyph-name="A" unicode="A" horiz-adv-x="643" 
d="M-14 0h-27l8 40h17q23 0 36 22l363 638h47l116 -641q2 -12 7.5 -15.5t17.5 -3.5h18l-8 -40h-27q-27 0 -36.5 10.5t-16.5 47.5l-33 184h-297l-105 -184q-20 -37 -35 -47.5t-45 -10.5zM354 566l-161 -284h268l-52 284l-10 84h-2q-19 -41 -43 -84z" />
    <glyph glyph-name="B" unicode="B" horiz-adv-x="593" 
d="M59 39q0 10 5 35l114 586h-65l8 40h290q70 0 111 -38.5t41 -104.5q0 -61 -35 -112t-92 -75v-2q41 -16 65.5 -53t24.5 -91q0 -77 -46 -135q-45 -59 -111 -78q-36 -11 -80 -11h-181q-49 0 -49 39zM221 660l-53 -272h191q65 0 111 48q48 50 48 117q0 51 -29.5 79t-82.5 28
h-185zM104 54q0 -14 18 -14h171q40 0 61 7q57 17 92 65.5t35 110.5q0 61 -35.5 93t-98.5 32h-187l-52 -270q-4 -16 -4 -24z" />
    <glyph glyph-name="C" unicode="C" horiz-adv-x="698" 
d="M48 287q0 105 53 203q55 99 149 160q97 62 209 62q87 0 162 -35q74 -35 74 -96q0 -16 -4 -32l-6 -31h-43l8 41q6 28 -12.5 50.5t-51 35t-65.5 19t-61 6.5q-146 0 -257 -114q-110 -115 -110 -268q0 -114 66 -186t184 -72q152 0 251 91l24 -33q-45 -45 -124 -73
q-76 -27 -155 -27q-135 0 -213 86t-78 213z" />
    <glyph glyph-name="D" unicode="D" horiz-adv-x="719" 
d="M59 39q0 10 5 35l114 586h-65l8 40h275q139 0 216.5 -72.5t77.5 -204.5q0 -108 -50 -205q-50 -96 -147 -157t-224 -61h-161q-49 0 -49 39zM104 54q0 -14 18 -14h143q115 0 204 56q87 56 131.5 140.5t44.5 184.5q0 117 -67.5 178t-191.5 61h-165l-113 -582q-4 -16 -4 -24z
" />
    <glyph glyph-name="E" unicode="E" horiz-adv-x="557" 
d="M59 39q0 10 5 35l114 586h-65l8 40h391q47 0 47 -37q0 -12 -6 -42l-6 -32h-42l6 31q4 20 4 25q0 15 -19 15h-275l-56 -287h279l-8 -40h-279l-49 -255q-4 -16 -4 -24q0 -14 18 -14h284q23 0 27 22l9 49h42l-10 -54q-6 -32 -21.5 -44.5t-45.5 -12.5h-299q-49 0 -49 39z" />
    <glyph glyph-name="F" unicode="F" horiz-adv-x="498" 
d="M92 0h-43l129 660h-65l8 40h361q47 0 47 -37q0 -12 -6 -42l-6 -32h-42l6 31q4 20 4 25q0 15 -19 15h-245l-57 -292h268l-8 -40h-268z" />
    <glyph glyph-name="G" unicode="G" horiz-adv-x="719" 
d="M47 282q0 112 58 212q59 100 156 159q98 59 208 59q75 0 131.5 -25t82.5 -51l9 -8l-27 -34q-13 13 -32 26q-65 50 -165 50q-150 0 -263 -117q-113 -116 -113 -270q0 -113 65 -184q66 -69 175 -69q88 0 161 41q66 37 93 64l13 12l16 82q4 20 4 25q0 15 -19 15h-43l8 40h51
q47 0 47 -37q0 -12 -6 -42l-45 -230h-43l12 61l7 30h-2q-37 -40 -106 -72q-66 -31 -150 -31q-130 0 -206 81q-77 83 -77 213z" />
    <glyph glyph-name="H" unicode="H" horiz-adv-x="743" 
d="M92 0h-43l120 617q1 5 1.5 9.5t1.5 7.5t1.5 5.5t0.5 4.5v1q0 15 -19 15h-42l8 40h51q47 0 47 -37q0 -12 -6 -42l-49 -250h444l54 277q11 52 66 52h53l-8 -40h-45q-21 0 -25 -22l-124 -638h-43l64 331h-444z" />
    <glyph glyph-name="I" unicode="I" horiz-adv-x="276" 
d="M165 0h-170l8 40h63l121 620h-64l8 40h171l-8 -40h-64l-121 -620h64z" />
    <glyph glyph-name="J" unicode="J" horiz-adv-x="481" 
d="M-2 133q0 16 6 58l3 22h43l-4 -22q-5 -32 -5 -48q0 -56 32 -84.5t85 -28.5q64 0 112 40.5t63 120.5l84 431q4 17 4 24q0 14 -19 14h-174l8 40h183q47 0 47 -37q0 -11 -6 -41l-85 -436q-19 -102 -82 -151q-62 -47 -135 -47q-71 0 -115.5 38t-44.5 107z" />
    <glyph glyph-name="K" unicode="K" horiz-adv-x="570" 
d="M92 0h-43l120 617q1 5 1.5 9.5t1.5 7.5t1.5 5.5t0.5 4.5v1q0 15 -19 15h-42l8 40h51q47 0 47 -37q0 -12 -6 -42l-45 -233h99q39 0 62 26l238 286h55l-249 -296q-18 -22 -33 -31l-5 -3v-2q12 -8 19 -35l83 -268q7 -25 38 -25h32l-8 -40h-38q-49 0 -66 54l-82 267
q-7 27 -60 27h-93z" />
    <glyph glyph-name="L" unicode="L" horiz-adv-x="516" 
d="M59 39q0 10 5 35l105 543q1 5 1.5 9.5t1.5 7.5t1.5 5.5t0.5 4.5v1q0 15 -19 15h-42l8 40h51q47 0 47 -37q0 -12 -6 -42l-105 -543q-4 -16 -4 -24q0 -14 18 -14h268q23 0 27 22l9 49h42l-10 -54q-6 -32 -21.5 -44.5t-45.5 -12.5h-283q-49 0 -49 39z" />
    <glyph glyph-name="M" unicode="M" horiz-adv-x="839" 
d="M16 0h-50l8 40h39q21 0 27 22l175 638h40l118 -440l19 -79h2q17 29 49 79l290 440h44l-71 -622l-2 -24q0 -14 17 -14h40l-8 -40h-42q-28 0 -40 10.5t-12 34.5q0 5 2 21l53 468l15 93h-2q-31 -59 -54 -93l-265 -399h-44l-110 399l-18 95h-2q-15 -67 -22 -95l-131 -479
q-9 -30 -23.5 -42.5t-41.5 -12.5z" />
    <glyph glyph-name="N" unicode="N" horiz-adv-x="747" 
d="M35 0h-52l8 40h42q23 0 27 22l124 638h38l291 -549l42 -87h2q7 57 13 87l96 497q10 52 66 52h53l-8 -40h-45q-21 0 -25 -22l-124 -638h-39l-291 549l-40 86h-2q-10 -67 -14 -86l-96 -494q-12 -55 -66 -55z" />
    <glyph glyph-name="O" unicode="O" horiz-adv-x="794" 
d="M47 288q0 113 61 210q61 98 160 156q98 58 207 58q130 0 211 -82q82 -82 82 -210q0 -114 -62 -215t-160 -159t-206 -58q-130 0 -212 84q-81 84 -81 216zM92 288q0 -113 70 -186q70 -72 183 -72q94 0 180 52q86 51 143 143q55 91 55 194q0 109 -71 180t-182 71
q-95 0 -182 -51q-86 -50 -142 -140q-54 -89 -54 -191z" />
    <glyph glyph-name="P" unicode="P" horiz-adv-x="572" 
d="M92 0h-43l129 660h-65l8 40h278q85 0 135 -45t50 -125q0 -73 -40.5 -132t-103.5 -86q-51 -22 -107 -22h-184zM221 660l-64 -330h175q87 0 146 55q61 55 61 143q0 65 -37 98.5t-106 33.5h-175z" />
    <glyph glyph-name="Q" unicode="Q" horiz-adv-x="794" 
d="M47 288q0 113 61 210q62 99 159 156q97 58 203 58q133 0 215 -82q83 -83 83 -210q0 -88 -39 -171t-107 -147l69 -91l-30 -26l-70 92q-115 -89 -246 -89q-133 0 -215 84q-83 85 -83 216zM92 288q0 -113 70 -186q70 -72 183 -72q118 0 222 80l-70 92l30 26l70 -93
q59 57 92.5 131t33.5 153q0 109 -71 180t-182 71q-95 0 -182 -51q-86 -50 -142 -140q-54 -89 -54 -191z" />
    <glyph glyph-name="R" unicode="R" horiz-adv-x="588" 
d="M92 0h-43l129 660h-65l8 40h285q76 0 120 -42t44 -117q0 -85 -54 -148q-52 -61 -131 -75v-2q9 -9 13 -24l70 -229q6 -23 34 -23h28l-8 -40h-29q-31 0 -45 11t-23 42l-64 211q-9 29 -21 37.5t-43 8.5h-144zM221 660l-60 -310h180q76 0 130 54q54 56 54 135q0 59 -32 90
t-92 31h-180z" />
    <glyph glyph-name="S" unicode="S" horiz-adv-x="507" 
d="M7 73l-7 10l31 31q9 -12 28 -30q63 -54 141 -54q80 0 135 46q56 47 56 119q0 85 -103 134q-2 1 -27 12.5t-29.5 14t-26.5 14t-28.5 17.5t-23 18.5t-22 22.5t-14.5 25t-12 31t-3 34q0 82 66 138q68 56 168 56q66 0 117 -25q52 -24 52 -70q0 -5 -2 -21l-8 -40h-43l6 29
q3 13 3 21q0 29 -36.5 46.5t-90.5 17.5q-88 0 -138 -44q-49 -43 -49 -107q0 -76 102 -122q43 -19 66 -30.5t56.5 -36t49 -57t15.5 -75.5q0 -91 -66 -151q-67 -59 -169 -59q-120 1 -194 85z" />
    <glyph glyph-name="T" unicode="T" horiz-adv-x="605" 
d="M266 0h-43l129 660h-202q-23 0 -27 -22l-9 -49h-42l12 63q5 27 18 37.5t41 10.5h469q47 0 47 -37q0 -12 -6 -42l-6 -32h-42l6 31q4 20 4 25q0 15 -19 15h-201z" />
    <glyph glyph-name="U" unicode="U" horiz-adv-x="704" 
d="M82 180q0 27 6 57l74 380q1 8 2.5 15t1.5 10l1 4q0 14 -19 14h-42l8 40h51q47 0 47 -37q0 -12 -6 -42l-75 -384q-5 -25 -5 -50q0 -74 45 -115.5t126 -41.5q97 0 165 57t87 154l79 407q10 52 66 52h53l-8 -40h-45q-21 0 -25 -22l-79 -407q-21 -111 -100 -177
q-80 -66 -193 -66q-99 0 -157 51.5t-58 140.5z" />
    <glyph glyph-name="V" unicode="V" horiz-adv-x="634" 
d="M275 0h-47l-115 638q-4 22 -26 22h-13l8 40h22q24 0 35 -12.5t17 -45.5l91 -508l10 -84h2q19 40 44 84l288 508q20 36 36 47t46 11h22l-8 -40h-11q-25 0 -38 -22z" />
    <glyph glyph-name="W" unicode="W" horiz-adv-x="917" 
d="M217 0h-53l-44 635q-1 25 -25 25h-17l8 40h17q31 0 44.5 -12.5t15.5 -45.5l33 -512l2 -75h2l35 75l277 566h51l39 -566l2 -75h2q22 55 32 75l232 512q25 58 76 58h29l-8 -40h-16q-26 0 -36 -22l-292 -638h-53l-38 528l-3 111h-2q-38 -86 -50 -110z" />
    <glyph glyph-name="X" unicode="X" horiz-adv-x="563" 
d="M20 0h-52l300 373l-111 260q-12 27 -42 27h-24l8 40h24q33 0 47.5 -11t29.5 -47l69 -162l31 -76h2l59 76l130 162q29 37 48 47q22 11 56 11h25l-8 -40h-15q-38 0 -59 -27l-218 -267l161 -366h-47l-115 262l-30 71h-2l-56 -71z" />
    <glyph glyph-name="Y" unicode="Y" horiz-adv-x="585" 
d="M252 0h-43l60 304l-134 329q-11 27 -34 27h-23l8 40h19q30 0 44 -12t29 -46l89 -218l28 -79h2q30 46 58 79l173 218q29 36 47 47q19 11 52 11h21l-8 -40h-18q-28 0 -49 -27l-261 -329z" />
    <glyph glyph-name="Z" unicode="Z" horiz-adv-x="594" 
d="M439 0h-459l7 34l506 562l64 64v2q-22 -2 -51 -2h-322q-23 0 -27 -22l-9 -49h-43l10 53q10 58 70 58h436l-7 -34l-507 -562l-64 -64v-2q22 2 51 2h346q23 0 27 22l9 49h43l-10 -53q-10 -58 -70 -58z" />
    <glyph glyph-name="bracketleft" unicode="[" horiz-adv-x="242" 
d="M29 -37l137 704q10 58 69 58h50l-8 -40h-43q-22 0 -26 -22l-135 -696q-4 -22 18 -22h43l-8 -40h-50q-31 0 -42 13.5t-5 44.5z" />
    <glyph glyph-name="backslash" unicode="\" horiz-adv-x="383" 
d="M272 -42h-42l-100 782h42z" />
    <glyph glyph-name="bracketright" unicode="]" horiz-adv-x="242" 
d="M-29 -95l8 40h42q22 0 26 22l135 696q4 22 -18 22h-43l8 40h50q31 0 42 -13.5t5 -44.5l-137 -704q-10 -58 -69 -58h-49z" />
    <glyph glyph-name="asciicircum" unicode="^" 
d="M65 252h-46l197 448h32l197 -448h-46l-167 388z" />
    <glyph glyph-name="underscore" unicode="_" horiz-adv-x="513" 
d="M-57 -40l7 40h496l-7 -40h-496z" />
    <glyph glyph-name="grave" unicode="`" horiz-adv-x="343" 
d="M224 750h-42l-58 111h54z" />
    <glyph glyph-name="a" unicode="a" horiz-adv-x="504" 
d="M1 118q0 54 31.5 93.5t85.5 58.5q101 35 224 35h38l3 16q6 31 6 54q0 98 -114 98q-41 0 -83 -11q-40 -10 -45 -38l-6 -34h-42l9 46q4 26 37 45q53 31 135 31q74 0 112.5 -36.5t38.5 -98.5q0 -28 -7 -63l-46 -238q0 -2 -2 -12t-2 -11q0 -15 18 -15h43l-7 -38h-45
q-53 0 -53 40q0 29 13 68h-2q1 0 -6.5 -12.5t-24 -30t-38.5 -35t-56 -30t-70 -12.5q-64 0 -104.5 33.5t-40.5 96.5zM46 123q0 -45 28.5 -70.5t76.5 -25.5q81 0 141 69q61 69 75 143l5 27h-31q-295 0 -295 -143z" />
    <glyph glyph-name="b" unicode="b" horiz-adv-x="559" 
d="M62 0h-42l121 625q3 13 3 23q0 14 -18 14h-43l8 38h47q51 0 51 -39q0 -9 -4 -29l-36 -187l-14 -46h2q28 51 80.5 82t112.5 31q87 0 134.5 -52t47.5 -145q0 -140 -82 -234q-82 -93 -189 -93q-61 0 -104 30t-58 83h-2q0 -21 -5 -49zM103 184q0 -70 35.5 -112.5t101.5 -42.5
q87 0 157 79q71 80 71 205q0 74 -37 116t-101 42q-99 1 -164.5 -90t-62.5 -197z" />
    <glyph glyph-name="c" unicode="c" horiz-adv-x="518" 
d="M29 202q0 132 91 220q91 90 206 90q38 0 75 -9q42 -10 70 -35.5t22 -58.5l-7 -39h-42l5 29q4 35 -38 54t-89 18q-95 0 -172 -77t-77 -189q0 -82 45 -129t126 -47q51 0 93 16q44 17 62 33l18 16l16 -38q-10 -10 -31 -24q-72 -44 -160 -44q-98 0 -155.5 57t-57.5 157z" />
    <glyph glyph-name="d" unicode="d" horiz-adv-x="570" 
d="M29 185q0 141 81 234q82 93 191 93q60 0 103 -30t58 -83h2q2 31 5 46l35 180q3 13 3 23q0 14 -18 14h-43l8 38h47q51 0 51 -39q0 -9 -4 -29l-109 -557q-3 -12 -3 -22q0 -15 17 -15h43l-7 -38h-45q-52 0 -52 39q0 28 13 61h-2q-28 -48 -80 -80t-110 -32q-87 0 -135.5 52
t-48.5 145zM73 187q0 -74 37 -116t102 -42q68 0 120 45q52 43 79 107.5t27 134.5t-35.5 112.5t-101.5 42.5q-88 0 -158 -79t-70 -205z" />
    <glyph glyph-name="e" unicode="e" horiz-adv-x="531" 
d="M28 197q0 125 84 219q86 96 210 96q83 0 127 -47.5t44 -129.5q0 -27 -10 -67l-3 -11h-401q-6 -25 -6 -55q0 -77 47 -125t129 -48q39 0 81 14.5t66 32.5l20 16l16 -38q-7 -6 -26 -18q-18 -12 -65 -30q-48 -18 -94 -18q-96 0 -158 56q-61 57 -61 153zM89 296h355q4 17 4 42
q0 65 -35 100t-94 35q-74 0 -137.5 -47.5t-92.5 -129.5z" />
    <glyph glyph-name="f" unicode="f" horiz-adv-x="283" 
d="M71 0h-42l90 462h-63l7 38h63l4 20q23 117 89 155q52 30 100 30l31 -2l-8 -38q-14 2 -25 2q-39 0 -78 -24q-49 -32 -67 -122l-4 -21h137l-7 -38h-137z" />
    <glyph glyph-name="g" unicode="g" horiz-adv-x="561" 
d="M-2 -171l23 36q58 -34 131 -34q92 0 152 49t77 151q7 41 15 64l3 7h-2q-65 -102 -178 -102q-87 0 -138 53t-51 143q0 72 29 144q29 71 91 121q62 51 142 51q64 0 108.5 -24t56.5 -74h2q-2 9 1 25q6 33 22 47t48 14h49l-7 -39h-43q-23 0 -27 -22l-85 -441
q-13 -70 -56 -119q-75 -89 -206 -89q-85 0 -157 39zM74 197q0 -73 39 -114.5t107 -41.5q53 0 95 28t67.5 72.5t38.5 95t13 100.5q0 134 -140 134q-100 0 -160 -84t-60 -190z" />
    <glyph glyph-name="h" unicode="h" horiz-adv-x="579" 
d="M62 0h-42l121 624q4 16 4 24q0 14 -19 14h-43l8 38h47q51 0 51 -39q0 -9 -4 -29l-42 -215l-10 -42h2q27 49 87 92q62 45 142 45q141 0 141 -132q0 -27 -7 -63l-48 -247q-3 -15 -3 -18q0 -14 19 -14h43l-7 -38h-49q-49 0 -49 41q0 11 3 25l46 237q8 40 8 69q0 99 -100 99
q-89 0 -163 -71q-72 -71 -89 -158z" />
    <glyph glyph-name="i" unicode="i" horiz-adv-x="221" 
d="M42 41q0 15 3 29l69 355q3 15 3 23q0 14 -18 14h-43l8 38h47q50 0 50 -39q0 -11 -4 -31l-70 -360q-3 -15 -3 -18q0 -14 19 -14h43l-7 -38h-49q-48 0 -48 41zM193 627h-46l15 73h46z" />
    <glyph glyph-name="j" unicode="j" horiz-adv-x="206" 
d="M192 627h-46l14 73h46zM25 -21l87 446q3 15 3 23q0 14 -18 14h-43l8 38h47q50 0 50 -39q0 -10 -4 -30l-88 -452q-22 -117 -88 -155q-50 -29 -100 -29l-30 2l8 39q10 -2 21 -2q39 0 78 24q50 28 69 121z" />
    <glyph glyph-name="k" unicode="k" horiz-adv-x="468" 
d="M62 0h-42l121 625q3 13 3 23q0 14 -18 14h-43l8 38h47q51 0 51 -39q0 -9 -4 -29l-64 -330h57q36 0 62 26l176 172h59l-188 -181q-27 -24 -40 -32l-4 -2l-1 -2q12 -6 23 -35l69 -187q5 -14 14 -18.5t30 -4.5h24l-8 -38h-26q-37 0 -50 10q-12 10 -26 43l-70 189
q-9 23 -52 23h-56z" />
    <glyph glyph-name="l" unicode="l" horiz-adv-x="224" 
d="M43 41q0 11 3 25l108 559q3 15 3 23q0 14 -18 14h-43l8 38h47q50 0 50 -39q0 -9 -4 -29l-109 -562q-3 -15 -3 -18q0 -14 19 -14h43l-7 -38h-49q-48 0 -48 41z" />
    <glyph glyph-name="m" unicode="m" horiz-adv-x="921" 
d="M72 0h-42l82 422q3 14 3 24q0 16 -19 16h-41l7 38h47q50 0 50 -40q0 -25 -16 -85h2q26 49 84 92q59 45 135 45q133 0 131 -137h2q26 49 84 92q59 45 135 45q131 0 131 -132q0 -27 -7 -63l-48 -247q-3 -15 -3 -18q0 -14 19 -14h43l-7 -38h-49q-49 0 -49 41q0 11 3 25
l46 237q8 40 8 69q0 99 -90 99q-83 0 -153 -72t-87 -156l-47 -243h-42l59 303q8 40 8 69q0 99 -90 99q-85 0 -156 -71q-70 -71 -86 -158z" />
    <glyph glyph-name="n" unicode="n" horiz-adv-x="589" 
d="M72 0h-42l82 422q3 14 3 24q0 16 -19 16h-41l7 38h47q50 0 50 -40q0 -25 -16 -85h2q29 50 88 93q61 44 141 44q141 0 141 -132q0 -27 -7 -63l-48 -247q-3 -15 -3 -18q0 -14 19 -14h43l-7 -38h-49q-49 0 -49 41q0 11 3 25l46 237q8 40 8 69q0 99 -100 99q-89 0 -163 -71
q-72 -71 -89 -158z" />
    <glyph glyph-name="o" unicode="o" horiz-adv-x="601" 
d="M28 205q0 126 94 216q94 91 217 91q96 0 156 -60t60 -154q0 -127 -95 -219q-94 -91 -216 -91q-96 0 -156 61t-60 156zM72 206q0 -79 49 -128t128 -49q101 0 181 79q81 80 81 189q0 75 -50 125q-49 49 -127 49q-103 0 -182 -79q-80 -78 -80 -186z" />
    <glyph glyph-name="p" unicode="p" horiz-adv-x="572" 
d="M33 -200h-42l122 624q3 15 3 22q0 16 -18 16h-43l7 38h50q49 0 49 -37q0 -19 -14 -63h2q66 112 195 112q86 0 133 -53t47 -150q0 -136 -82 -228q-82 -93 -190 -93q-59 0 -102.5 30t-58.5 83h-2q-1 -14 -7 -49zM115 191q0 -73 35 -117.5t99 -44.5q89 0 159 78
q72 79 72 198q0 80 -36 123t-102 43q-98 0 -163 -89q-64 -88 -64 -191z" />
    <glyph glyph-name="q" unicode="q" horiz-adv-x="567" 
d="M28 184q0 142 82 234q82 94 191 94q60 0 101.5 -28t56.5 -79h2q0 1 2.5 15.5t2.5 16.5q7 27 8 28q18 37 61 35h50l-7 -38h-43q-22 0 -26 -22l-125 -640h-42l49 252l15 49h-2q-68 -113 -193 -113q-86 0 -134.5 52.5t-48.5 143.5zM72 187q0 -73 37 -115.5t102 -42.5
q67 0 120 45q52 44 79.5 108.5t27.5 133.5q0 70 -35.5 112.5t-101.5 42.5q-88 0 -158 -79q-71 -80 -71 -205z" />
    <glyph glyph-name="r" unicode="r" horiz-adv-x="327" 
d="M72 0h-42l85 440q4 22 -18 22h-43l8 38h49q27 0 38 -9.5t11 -30.5q0 -8 -8 -45q-7 -34 -14 -52h2q31 63 79.5 102t106.5 39q14 0 30 -3l-9 -42q-3 0 -7 0.5t-6.5 1t-5 0.5h-3.5q-58 0 -105 -46q-82 -78 -111 -224z" />
    <glyph glyph-name="s" unicode="s" horiz-adv-x="430" 
d="M-2 62l-5 9l29 31q0 -1 5 -8t17 -18t28.5 -21t43.5 -18t57 -8q60 0 99.5 28.5t39.5 73.5q0 27 -17 47q-10 13 -23.5 23t-23.5 14.5t-42 17.5q-57 23 -91 49q-45 33 -45 90q0 63 50 101q50 39 125 39q57 0 106 -25q50 -24 41 -69l-6 -29h-42l4 24q4 25 -24 41.5t-79 16.5
q-60 0 -95.5 -25.5t-35.5 -68.5q0 -27 17 -50q17 -20 35 -30.5t59 -27.5q56 -23 89 -47q42 -30 42 -88q0 -62 -49 -104t-134 -42q-67 0 -111.5 24.5t-63.5 49.5z" />
    <glyph glyph-name="t" unicode="t" horiz-adv-x="288" 
d="M63 126q0 25 6 55l55 281h-66l7 38h66l27 139h42l-27 -139h131l-7 -38h-131l-54 -278q-6 -30 -6 -53q0 -64 36 -83q27 -13 60 -13l23 2l-8 -39q-14 -2 -25 -2q-20 0 -39.5 5.5t-41 18t-35 40t-13.5 66.5z" />
    <glyph glyph-name="u" unicode="u" horiz-adv-x="591" 
d="M63 120q0 27 7 63l48 247q3 15 3 18q0 14 -19 14h-43l7 38h49q49 0 49 -41q0 -11 -3 -25l-46 -237q-8 -40 -8 -69q0 -99 100 -99q88 0 159 71q72 72 88 158l47 242h42l-82 -422q-3 -14 -3 -24q0 -16 19 -16h41l-7 -38h-47q-50 0 -50 40q0 25 16 85h-2q-27 -47 -86 -93
q-59 -44 -138 -44q-141 0 -141 132z" />
    <glyph glyph-name="v" unicode="v" horiz-adv-x="500" 
d="M208 0h-40l-86 433q-6 29 -29 29h-13l7 38h17q26 0 38.5 -12.5t19.5 -45.5l66 -334l7 -54h2q13 32 27 54l196 334q22 38 36 48t52 10h15l-7 -38h-13q-25 0 -38 -24z" />
    <glyph glyph-name="w" unicode="w" horiz-adv-x="837" 
d="M200 0h-45l-69 438q-4 24 -28 24h-18l7 38h27q45 0 54 -58l51 -334l6 -54h2q13 30 27 54l213 390h47l61 -390l7 -54h2q5 11 28 54l181 334q19 37 35 48q16 10 53 10h19l-7 -38h-13q-30 0 -43 -24l-239 -438h-45l-64 388l-6 54h-2l-28 -54z" />
    <glyph glyph-name="x" unicode="x" horiz-adv-x="473" 
d="M23 0h-52l234 268l-89 173q-10 21 -46 21h-14l7 38h26q28 0 41.5 -11t31.5 -47l61 -121l12 -29h2q2 4 22 29l104 121q36 39 50 48q16 10 54 10h22l-7 -38h-14q-36 0 -54 -21l-159 -181l132 -260h-47l-102 204l-13 29h-2q-20 -25 -23 -29z" />
    <glyph glyph-name="y" unicode="y" horiz-adv-x="520" 
d="M6 -210q-24 0 -47.5 10.5t-34.5 23.5l-9 12l23 32l2 -2q36 -36 69 -36q59 0 114 90l53 85l-96 433q-4 24 -33 24h-8l8 38h25q23 0 32 -11.5t18 -46.5l76 -341l8 -47h2q10 21 26 47l207 341q21 35 40 47q17 11 54 11h9l-8 -38h-8q-28 0 -43 -24l-338 -555
q-57 -93 -141 -93z" />
    <glyph glyph-name="z" unicode="z" horiz-adv-x="500" 
d="M347 0h-361l6 34l375 380l49 47v2q-26 -2 -52 -2h-223q-23 0 -27 -22l-8 -43h-41l9 46q10 58 69 58h338l-7 -34l-375 -380l-50 -47v-2q26 2 53 2h247q23 0 27 22l8 43h41l-9 -46q-10 -58 -69 -58z" />
    <glyph glyph-name="braceleft" unicode="{" horiz-adv-x="279" 
d="M65 28q0 25 7 60l18 94q3 18 3 32q0 31 -15.5 54.5t-33.5 27.5l-16 5l8 40q11 0 32 11q60 30 76 108l16 81q18 94 65 141q19 17 43 28q36 14 72 14l-7 -39q-30 0 -64 -20q-48 -27 -66 -123l-18 -93q-8 -38 -28 -67.5t-36 -40.5t-31 -17l-9 -2v-2q6 -3 15.5 -9.5t25.5 -32
t16 -57.5q0 -13 -3 -28l-21 -106q-6 -30 -6 -52q0 -91 81 -91l-8 -39q-2 -1 -9 -1q-28 0 -62 20q-45 25 -45 104z" />
    <glyph glyph-name="bar" unicode="|" horiz-adv-x="284" 
d="M166 -155h-43v940h43v-940z" />
    <glyph glyph-name="braceright" unicode="}" horiz-adv-x="279" 
d="M-55 -96l7 40q30 0 64 20q48 26 66 123l20 105q11 58 40 88.5t56 39.5l8 2v2l-16 9q-12 9 -26 34.5t-14 52.5q0 13 3 28l18 94q6 30 6 52q0 91 -81 91l8 39q15 1 31.5 -2.5t37 -14t34 -38t13.5 -68.5q0 -24 -7 -60l-16 -82q-3 -18 -3 -32q0 -39 19.5 -60.5t38.5 -24.5
l7 -2l-8 -40q-11 0 -32 -11q-60 -30 -76 -108l-18 -93q-19 -95 -66 -141q-52 -50 -114 -43z" />
    <glyph glyph-name="asciitilde" unicode="~" horiz-adv-x="562" 
d="M100 213h-40q0 72 30.5 108t84.5 36q31 0 55.5 -11.5t40 -27.5t30 -32t35 -27.5t45.5 -11.5q31 0 49 21q26 30 26 85h40q0 -72 -30.5 -108t-84.5 -36q-31 0 -55.5 11.5t-40 27.5t-30 32t-35 27.5t-45.5 11.5q-31 0 -49 -21q-26 -30 -26 -85z" />
    <glyph glyph-name="exclamdown" unicode="&#xa1;" horiz-adv-x="211" 
d="M160 441h-57l12 59h57zM29 -200h-43l103 525h43z" />
    <glyph glyph-name="cent" unicode="&#xa2;" horiz-adv-x="530" 
d="M238 -13h-43l16 85q-78 9 -120.5 62.5t-42.5 143.5q0 78 30 155q31 78 94 134q64 56 148 61l16 84h43l-17 -85q113 -14 154 -127l3 -13l-40 -16q-2 15 -16 40q-37 76 -127 76q-110 0 -176 -91q-66 -90 -66 -218q0 -77 38 -121t112 -44q61 0 107.5 34t70.5 70l7 12l39 -16
q-13 -23 -35 -48q-16 -19 -43 -42q-62 -48 -136 -52z" />
    <glyph glyph-name="sterling" unicode="&#xa3;" horiz-adv-x="564" 
d="M409 0h-418l8 40h64l57 293h-46l8 40h45l33 167q13 72 76 122q64 50 146 50q39 0 76 -12.5t54 -26.5l15 -13l-33 -30l-13 11q-12 9 -41 19t-58 10q-72 0 -121 -40q-49 -41 -59 -99l-31 -158h198l-8 -40h-198l-57 -293h305q22 0 26 22l10 49h42l-10 -53q-10 -58 -70 -58z
" />
    <glyph glyph-name="yen" unicode="&#xa5;" horiz-adv-x="633" 
d="M277 0h-43l44 222h-163l7 40h164l8 42l-20 48h-139l8 40h115l-98 241q-10 27 -34 27h-23l8 40h19q30 0 44 -12t29 -46l89 -218l28 -79h2q30 46 58 79l173 218q29 36 47 47q19 11 52 11h21l-8 -40h-18q-28 0 -49 -27l-192 -241h108l-8 -40h-131l-38 -48l-9 -42h160l-7 -40
h-161z" />
    <glyph glyph-name="section" unicode="&#xa7;" horiz-adv-x="380" 
d="M136 62h-42l26 473q4 75 54 126q49 51 128 51q25 0 48.5 -8t34.5 -18l10 -8l-30 -30q-25 23 -64 23q-57 0 -95.5 -38t-41.5 -96zM9 -36l-10 8l30 30q25 -23 64 -23q57 0 95.5 38t41.5 96l28 475h42l-26 -473q-4 -75 -54 -126t-128 -51q-25 0 -48.5 8t-34.5 18z" />
    <glyph glyph-name="dieresis" unicode="&#xa8;" horiz-adv-x="486" 
d="M345 788h-46l15 73h46zM208 788h-46l15 73h46z" />
    <glyph glyph-name="copyright" unicode="&#xa9;" horiz-adv-x="812" 
d="M62 350q0 152 103 256q103 106 249 106q149 0 252 -106q104 -106 104 -256q0 -151 -104 -257q-104 -105 -252 -105q-146 0 -250 105q-102 105 -102 257zM107 350q0 -137 88 -228q89 -92 219 -92q132 0 221 92q90 92 90 228t-90 227q-89 93 -221 93q-130 0 -219 -93
q-88 -91 -88 -227zM426 560q53 0 95.5 -26.5t60.5 -52.5l7 -9l-33 -29q-3 5 -16 20q-11 15 -44 33q-33 21 -69 21q-81 0 -126 -50q-45 -49 -45 -117t45 -118q45 -49 126 -49q34 0 66.5 17t48.5 38l14 19l33 -29q-5 -7 -28 -31q-61 -57 -135 -57q-101 0 -158 62t-57 147
t57 148t158 63z" />
    <glyph glyph-name="ordfeminine" unicode="&#xaa;" horiz-adv-x="436" 
d="M198 382q-42 0 -67 21t-25 61q0 42 26 66.5t69 39.5q24 8 52 11q49 5 72 5h13q3 18 3 31q0 30 -16 43t-52 13q-60 0 -64 -22l-5 -27h-39l7 37q4 22 35 35.5t76 13.5q52 0 75 -21t23 -62q0 -23 -4 -40l-30 -154q-2 -8 6 -8h31l-8 -37h-39q-38 0 -26 54h-2q-1 -2 -4 -6.5
t-13 -14.5t-21.5 -18t-31 -14.5t-41.5 -6.5zM206 419q46 0 79.5 37t45.5 93h-13q-169 0 -169 -79q0 -24 15 -37.5t42 -13.5zM358 263h-294l7 37h294z" />
    <glyph glyph-name="guillemotleft" unicode="&#xab;" horiz-adv-x="453" 
d="M353 77h-48l-128 208l204 203h57l-211 -208zM198 77h-48l-128 208l192 203h57l-199 -208z" />
    <glyph glyph-name="logicalnot" unicode="&#xac;" horiz-adv-x="655" 
d="M515 343h-414v40h456v-219h-42v179z" />
    <glyph glyph-name="registered" unicode="&#xae;" horiz-adv-x="812" 
d="M62 350q0 152 103 256q103 106 249 106q149 0 252 -106q104 -106 104 -256q0 -151 -104 -257q-104 -105 -252 -105q-146 0 -250 105q-102 105 -102 257zM107 350q0 -137 88 -228q89 -92 219 -92q132 0 221 92q90 92 90 228t-90 227q-89 93 -221 93q-130 0 -219 -93
q-88 -91 -88 -227zM342 150h-44v400h133q51 0 83.5 -32t32.5 -84q0 -41 -21.5 -70t-55.5 -37v-2q2 -2 13 -22l79 -153h-49l-85 167h-86v-167zM342 510v-155h84q35 0 55.5 21t20.5 58q0 36 -20.5 56t-55.5 20h-84z" />
    <glyph glyph-name="overscore" unicode="&#xaf;" horiz-adv-x="459" 
d="M351 786h-239l7 40h239z" />
    <glyph glyph-name="overscore" unicode="&#x2c9;" horiz-adv-x="459" 
d="M351 786h-239l7 40h239z" />
    <glyph glyph-name="degree" unicode="&#xb0;" horiz-adv-x="352" 
d="M210 449q-51 0 -82.5 31.5t-31.5 80.5q0 58 47 103q46 46 106 46q50 0 81.5 -32t31.5 -80q0 -58 -48 -104q-46 -45 -104 -45zM212 489q42 0 74 32q33 33 33 77q0 31 -20 51.5t-52 20.5q-42 0 -75 -33t-33 -76q0 -31 20 -51.5t53 -20.5z" />
    <glyph glyph-name="plusminus" unicode="&#xb1;" 
d="M276 263h-237v40h237v263h43v-263h236v-40h-236v-263h-43v263zM59 -153v40h476v-40h-476z" />
    <glyph glyph-name="twosuperior" unicode="&#xb2;" horiz-adv-x="401" 
d="M299 264h-209q-20 0 -27.5 7t-7.5 26q0 43 28.5 78.5t73.5 58.5q7 4 35 18t38.5 19.5t33.5 19t33 23.5t23.5 24t18.5 29t5 32q0 33 -20 51.5t-56 18.5q-32 0 -58 -13.5t-29 -31.5l-5 -27h-39l6 33q6 33 41.5 55.5t85.5 22.5q53 0 84 -28t31 -78q0 -86 -103 -142
q-13 -7 -49 -25t-53 -28.5t-40.5 -27t-33.5 -33.5t-10 -36q0 -8 7 -8h197q8 0 9 7l7 36h39l-7 -39q-8 -42 -49 -42z" />
    <glyph glyph-name="threesuperior" unicode="&#xb3;" horiz-adv-x="380" 
d="M187 256q-77 0 -135 58l-5 7l30 24q2 -2 5 -5.5t13.5 -13t22.5 -16.5t31 -12.5t39 -5.5q44 0 81 35q37 34 37 84q0 35 -26.5 56.5t-64.5 21.5h-32l-7 24l139 133l24 19v2q-11 -3 -27 -3h-126q-10 0 -13 -11l-6 -32h-39l7 32q5 27 17 37t39 10h208l-5 -26l-157 -151
q39 -3 73 -30q35 -26 35 -82q0 -61 -48 -108q-47 -47 -110 -47z" />
    <glyph glyph-name="acute" unicode="&#xb4;" horiz-adv-x="357" 
d="M145 750h-46l88 111h58z" />
    <glyph glyph-name="mu" unicode="&#xb5;" horiz-adv-x="620" 
d="M46 -200h-42l125 640q4 22 -18 22h-43l7 38h49q49 0 49 -41q0 -11 -3 -25l-46 -237q-8 -40 -8 -69q0 -99 100 -99q88 0 159 71q72 72 88 158l47 242h42l-82 -422q-3 -14 -3 -24q0 -16 19 -16h41l-7 -38h-47q-50 0 -50 40q0 25 16 85h-2q-27 -47 -86 -93q-59 -44 -138 -44
q-92 0 -124 56h-2q-5 -64 -8 -77z" />
    <glyph glyph-name="mu" unicode="&#x3bc;" horiz-adv-x="620" 
d="M46 -200h-42l125 640q4 22 -18 22h-43l7 38h49q49 0 49 -41q0 -11 -3 -25l-46 -237q-8 -40 -8 -69q0 -99 100 -99q88 0 159 71q72 72 88 158l47 242h42l-82 -422q-3 -14 -3 -24q0 -16 19 -16h41l-7 -38h-47q-50 0 -50 40q0 25 16 85h-2q-27 -47 -86 -93q-59 -44 -138 -44
q-92 0 -124 56h-2q-5 -64 -8 -77z" />
    <glyph glyph-name="paragraph" unicode="&#xb6;" horiz-adv-x="533" 
d="M272 -50h-42l56 291q-98 0 -156 67t-39 163t102 162q82 67 181 67h210l-7 -40h-167zM376 -50h-42l125 647h42z" />
    <glyph glyph-name="middot" unicode="&#xb7;" horiz-adv-x="200" 
d="M120 257h-57l11 59h57z" />
    <glyph glyph-name="middot" unicode="&#x2219;" horiz-adv-x="200" 
d="M120 257h-57l11 59h57z" />
    <glyph glyph-name="cedilla" unicode="&#xb8;" horiz-adv-x="410" 
d="M144 -92l-12 -1l45 111l31 -5l-1 -8l-25 -65q25 -4 41 -20t16 -39q0 -40 -30.5 -62.5t-73.5 -22.5l-46 4l7 38q18 -5 40 -5q62 0 62 44q0 31 -54 31z" />
    <glyph glyph-name="onesuperior" unicode="&#xb9;" horiz-adv-x="339" 
d="M281 264h-229l8 38h95l59 307l8 35h-2q-9 -13 -18 -19l-60 -50l-22 27l116 98h36l-77 -398h94z" />
    <glyph glyph-name="ordmasculine" unicode="&#xba;" horiz-adv-x="460" 
d="M247 383q-61 0 -98.5 37.5t-37.5 97.5q0 78 59 135q58 58 135 58q61 0 99 -38t38 -97q0 -79 -60 -136q-58 -57 -135 -57zM251 420q59 0 105 45q47 47 47 110q0 44 -28.5 71.5t-73.5 27.5q-59 0 -105 -45t-46 -108q0 -45 28 -73t73 -28zM370 263h-294l7 37h294z" />
    <glyph glyph-name="guillemotright" unicode="&#xbb;" horiz-adv-x="458" 
d="M226 77h-53l203 205l-124 206h53l124 -206zM66 77h-53l203 205l-124 206h53l124 -206z" />
    <glyph glyph-name="onequarter" unicode="&#xbc;" horiz-adv-x="812" 
d="M216 0h-47l443 700h46zM274 264h-229l8 38h95l59 307l8 35h-2q-9 -13 -18 -19l-60 -50l-22 27l116 98h36l-77 -398h94zM634 121h-218l5 28l278 287h35l-54 -277h68l-7 -38h-68l-24 -121h-39zM477 159v-1q10 1 22 1h142l33 168l9 41h-2l-22 -26l-164 -168z" />
    <glyph glyph-name="onehalf" unicode="&#xbd;" horiz-adv-x="799" 
d="M201 0h-47l443 700h46zM270 264h-229l8 38h95l59 307l8 35h-2q-9 -13 -18 -19l-60 -50l-22 27l116 98h36l-77 -398h94zM417 33q0 43 28.5 78.5t73.5 58.5q7 4 35 18t38.5 19.5t33.5 19t33 23.5t23.5 24t18.5 29t5 32q0 33 -20 51.5t-56 18.5q-32 0 -58 -13.5t-29 -31.5
l-5 -27h-39l6 33q6 33 41.5 55.5t85.5 22.5q53 0 84 -28t31 -78q0 -86 -103 -142q-13 -7 -49 -25t-53 -28.5t-40.5 -27t-33.5 -33.5t-10 -36q0 -8 7 -8h197q8 0 9 7l7 36h39l-7 -39q-8 -42 -49 -42h-209q-20 0 -27.5 7t-7.5 26z" />
    <glyph glyph-name="threequarters" unicode="&#xbe;" horiz-adv-x="817" 
d="M221 0h-47l443 700h46zM186 256q-47 0 -82.5 19.5t-51.5 38.5l-6 7l30 24q2 -2 5 -5.5t13.5 -13t22.5 -16.5t31 -12.5t39 -5.5q44 0 81 35q37 34 37 84q0 35 -26.5 56.5t-64.5 21.5h-32l-7 24l139 133l24 19v2q-10 -3 -27 -3h-126q-10 0 -13 -11l-6 -32h-39l7 32
q5 27 17 37t39 10h208l-5 -26l-157 -151q39 -3 73 -30q35 -26 35 -82q0 -61 -48 -108q-47 -47 -110 -47zM639 121h-218l5 28l278 287h35l-54 -277h68l-7 -38h-68l-24 -121h-39zM482 159v-1q10 1 22 1h142l33 168l9 41h-2l-22 -26l-164 -168z" />
    <glyph glyph-name="questiondown" unicode="&#xbf;" horiz-adv-x="465" 
d="M274 325h43l-9 -44q-18 -86 -101 -153q-2 -2 -19.5 -15.5t-21 -16.5t-19 -16t-20 -18t-16.5 -17t-16 -19.5t-11.5 -20t-10.5 -22.5t-5.5 -22.5t-2.5 -25.5q0 -46 33 -75.5t89 -29.5q68 0 119 32l17 10l17 -37l-22 -13q-12 -7 -55 -21q-39 -13 -78 -13q-77 0 -121.5 39.5
t-44.5 105.5q0 92 78 158q7 6 48.5 39.5t56.5 47.5t36 44t27 59zM299 500h59l-13 -61h-59z" />
    <glyph glyph-name="Agrave" unicode="&#xc0;" horiz-adv-x="643" 
d="M-14 0h-27l8 40h17q23 0 36 22l363 638h47l116 -641q2 -12 7.5 -15.5t17.5 -3.5h18l-8 -40h-27q-27 0 -36.5 10.5t-16.5 47.5l-33 184h-297l-105 -184q-20 -37 -35 -47.5t-45 -10.5zM354 566l-161 -284h268l-52 284l-10 84h-2q-19 -41 -43 -84zM439 750h-42l-58 111h54z
" />
    <glyph glyph-name="Aacute" unicode="&#xc1;" horiz-adv-x="643" 
d="M-14 0h-27l8 40h17q23 0 36 22l363 638h47l116 -641q2 -12 7.5 -15.5t17.5 -3.5h18l-8 -40h-27q-27 0 -36.5 10.5t-16.5 47.5l-33 184h-297l-105 -184q-20 -37 -35 -47.5t-45 -10.5zM354 566l-161 -284h268l-52 284l-10 84h-2q-19 -41 -43 -84zM441 750h-46l88 111h58z
" />
    <glyph glyph-name="Acircumflex" unicode="&#xc2;" horiz-adv-x="643" 
d="M-14 0h-27l8 40h17q23 0 36 22l363 638h47l116 -641q2 -12 7.5 -15.5t17.5 -3.5h18l-8 -40h-27q-27 0 -36.5 10.5t-16.5 47.5l-33 184h-297l-105 -184q-20 -37 -35 -47.5t-45 -10.5zM354 566l-161 -284h268l-52 284l-10 84h-2q-19 -41 -43 -84zM361 750h-51l101 111h52
l59 -111h-47l-41 80h-2z" />
    <glyph glyph-name="Atilde" unicode="&#xc3;" horiz-adv-x="643" 
d="M-14 0h-27l8 40h17q23 0 36 22l363 638h47l116 -641q2 -12 7.5 -15.5t17.5 -3.5h18l-8 -40h-27q-27 0 -36.5 10.5t-16.5 47.5l-33 184h-297l-105 -184q-20 -37 -35 -47.5t-45 -10.5zM354 566l-161 -284h268l-52 284l-10 84h-2q-19 -41 -43 -84zM311 753h-40
q19 108 101 108q21 1 38.5 -10.5t27.5 -26.5t23 -26.5t26 -10.5q39 0 54 71h40q-19 -108 -100 -108q-24 0 -41.5 11.5t-25.5 25.5t-21 25.5t-28 11.5q-39 0 -54 -71z" />
    <glyph glyph-name="Adieresis" unicode="&#xc4;" horiz-adv-x="643" 
d="M-14 0h-27l8 40h17q23 0 36 22l363 638h47l116 -641q2 -12 7.5 -15.5t17.5 -3.5h18l-8 -40h-27q-27 0 -36.5 10.5t-16.5 47.5l-33 184h-297l-105 -184q-20 -37 -35 -47.5t-45 -10.5zM354 566l-161 -284h268l-52 284l-10 84h-2q-19 -41 -43 -84zM517 788h-46l15 73h46z
M380 788h-46l15 73h46z" />
    <glyph glyph-name="Aring" unicode="&#xc5;" horiz-adv-x="643" 
d="M-14 0h-27l8 40h17q23 0 36 22l363 638h47l116 -641q2 -12 7.5 -15.5t17.5 -3.5h18l-8 -40h-27q-27 0 -36.5 10.5t-16.5 47.5l-33 184h-297l-105 -184q-20 -37 -35 -47.5t-45 -10.5zM354 566l-161 -284h268l-52 284l-10 84h-2q-19 -41 -43 -84zM420 739q-27 0 -44.5 16.5
t-17.5 42.5q0 30 24.5 53.5t54.5 23.5q28 0 45.5 -16.5t17.5 -42.5q0 -31 -24 -54t-56 -23zM421 773q19 0 30.5 12t11.5 31q0 26 -28 26q-16 0 -28 -12.5t-12 -30.5q0 -26 26 -26z" />
    <glyph glyph-name="AE" unicode="&#xc6;" horiz-adv-x="796" 
d="M-36 0h-17l8 40h11q15 0 22 4t15 18l363 638h385q47 0 47 -37q0 -12 -6 -42l-6 -32h-42l6 31q4 20 4 25q0 15 -19 15h-265l-56 -287h269l-8 -40h-269l-49 -255q-4 -16 -4 -24q0 -14 18 -14h274q23 0 27 22l9 49h42l-10 -54q-6 -32 -21.5 -44.5t-45.5 -12.5h-289
q-49 0 -49 39q0 10 5 35l50 259h-158l-156 -275q-23 -38 -36 -48t-49 -10zM391 660l-163 -287h143l56 287h-36z" />
    <glyph glyph-name="Ccedilla" unicode="&#xc7;" horiz-adv-x="699" 
d="M274 -92l-12 -1l34 84q-115 13 -182 97q-65 83 -65 199q0 105 53 203q55 99 149 160q97 62 209 62q87 0 162 -35q74 -35 74 -96q0 -16 -4 -32l-6 -31h-43l8 41q6 28 -12.5 50.5t-51 35t-65.5 19t-61 6.5q-146 0 -257 -114q-110 -115 -110 -268q0 -114 66 -186t184 -72
q152 0 251 91l24 -33q-45 -45 -124 -73q-77 -27 -155 -27q-2 0 -5 0.5t-5 0.5l-18 -49q25 -4 41 -20t16 -39q0 -40 -30.5 -62.5t-73.5 -22.5l-46 4l7 38q18 -5 40 -5q62 0 62 44q0 31 -54 31z" />
    <glyph glyph-name="Egrave" unicode="&#xc8;" horiz-adv-x="558" 
d="M60 39q0 10 5 35l114 586h-65l8 40h391q47 0 47 -37q0 -12 -6 -42l-6 -32h-42l6 31q4 20 4 25q0 15 -19 15h-275l-56 -287h279l-8 -40h-279l-49 -255q-4 -16 -4 -24q0 -14 18 -14h284q23 0 27 22l9 49h42l-10 -54q-6 -32 -21.5 -44.5t-45.5 -12.5h-299q-49 0 -49 39z
M400 750h-42l-58 111h54z" />
    <glyph glyph-name="Eacute" unicode="&#xc9;" horiz-adv-x="558" 
d="M60 39q0 10 5 35l114 586h-65l8 40h391q47 0 47 -37q0 -12 -6 -42l-6 -32h-42l6 31q4 20 4 25q0 15 -19 15h-275l-56 -287h279l-8 -40h-279l-49 -255q-4 -16 -4 -24q0 -14 18 -14h284q23 0 27 22l9 49h42l-10 -54q-6 -32 -21.5 -44.5t-45.5 -12.5h-299q-49 0 -49 39z
M402 750h-46l88 111h58z" />
    <glyph glyph-name="Ecircumflex" unicode="&#xca;" horiz-adv-x="558" 
d="M60 39q0 10 5 35l114 586h-65l8 40h391q47 0 47 -37q0 -12 -6 -42l-6 -32h-42l6 31q4 20 4 25q0 15 -19 15h-275l-56 -287h279l-8 -40h-279l-49 -255q-4 -16 -4 -24q0 -14 18 -14h284q23 0 27 22l9 49h42l-10 -54q-6 -32 -21.5 -44.5t-45.5 -12.5h-299q-49 0 -49 39z
M322 750h-51l101 111h52l59 -111h-47l-41 80h-2z" />
    <glyph glyph-name="Edieresis" unicode="&#xcb;" horiz-adv-x="558" 
d="M60 39q0 10 5 35l114 586h-65l8 40h391q47 0 47 -37q0 -12 -6 -42l-6 -32h-42l6 31q4 20 4 25q0 15 -19 15h-275l-56 -287h279l-8 -40h-279l-49 -255q-4 -16 -4 -24q0 -14 18 -14h284q23 0 27 22l9 49h42l-10 -54q-6 -32 -21.5 -44.5t-45.5 -12.5h-299q-49 0 -49 39z
M478 788h-46l15 73h46zM341 788h-46l15 73h46z" />
    <glyph glyph-name="Igrave" unicode="&#xcc;" horiz-adv-x="276" 
d="M165 0h-170l8 40h63l121 620h-64l8 40h171l-8 -40h-64l-121 -620h64zM246 750h-42l-58 111h54z" />
    <glyph glyph-name="Iacute" unicode="&#xcd;" horiz-adv-x="276" 
d="M165 0h-170l8 40h63l121 620h-64l8 40h171l-8 -40h-64l-121 -620h64zM248 750h-46l88 111h58z" />
    <glyph glyph-name="Icircumflex" unicode="&#xce;" horiz-adv-x="276" 
d="M168 750h-51l101 111h52l59 -111h-47l-41 80h-2zM165 0h-170l8 40h63l121 620h-64l8 40h171l-8 -40h-64l-121 -620h64z" />
    <glyph glyph-name="Idieresis" unicode="&#xcf;" horiz-adv-x="276" 
d="M165 0h-170l8 40h63l121 620h-64l8 40h171l-8 -40h-64l-121 -620h64zM324 788h-46l15 73h46zM187 788h-46l15 73h46z" />
    <glyph glyph-name="Eth" unicode="&#xd0;" horiz-adv-x="720" 
d="M60 39q0 10 5 35l50 259h-50l8 40h50l56 287h-65l8 40h275q139 0 216.5 -72.5t77.5 -204.5q0 -108 -50 -205q-50 -96 -147 -157t-224 -61h-161q-49 0 -49 39zM105 54q0 -14 18 -14h143q115 0 204 56q87 56 131.5 140.5t44.5 184.5q0 117 -67.5 178t-191.5 61h-165
l-56 -287h183l-8 -40h-183l-49 -255q-4 -16 -4 -24z" />
    <glyph glyph-name="Ntilde" unicode="&#xd1;" horiz-adv-x="747" 
d="M35 0h-52l8 40h42q23 0 27 22l124 638h38l291 -549l42 -87h2q7 57 13 87l96 497q10 52 66 52h53l-8 -40h-45q-21 0 -25 -22l-124 -638h-39l-291 549l-40 86h-2q-10 -67 -14 -86l-96 -494q-12 -55 -66 -55zM368 753h-40q19 108 101 108q21 1 38.5 -10.5t27.5 -26.5
t23 -26.5t26 -10.5q39 0 54 71h40q-19 -108 -100 -108q-24 0 -41.5 11.5t-25.5 25.5t-21 25.5t-28 11.5q-39 0 -54 -71z" />
    <glyph glyph-name="Ograve" unicode="&#xd2;" horiz-adv-x="794" 
d="M47 288q0 113 61 210q61 98 160 156q98 58 207 58q130 0 211 -82q82 -82 82 -210q0 -114 -62 -215t-160 -159t-206 -58q-130 0 -212 84q-81 84 -81 216zM92 288q0 -113 70 -186q70 -72 183 -72q94 0 180 52q86 51 143 143q55 91 55 194q0 109 -71 180t-182 71
q-95 0 -182 -51q-86 -50 -142 -140q-54 -89 -54 -191zM505 750h-42l-58 111h54z" />
    <glyph glyph-name="Oacute" unicode="&#xd3;" horiz-adv-x="794" 
d="M47 288q0 113 61 210q61 98 160 156q98 58 207 58q130 0 211 -82q82 -82 82 -210q0 -114 -62 -215t-160 -159t-206 -58q-130 0 -212 84q-81 84 -81 216zM92 288q0 -113 70 -186q70 -72 183 -72q94 0 180 52q86 51 143 143q55 91 55 194q0 109 -71 180t-182 71
q-95 0 -182 -51q-86 -50 -142 -140q-54 -89 -54 -191zM507 750h-46l88 111h58z" />
    <glyph glyph-name="Ocircumflex" unicode="&#xd4;" horiz-adv-x="794" 
d="M47 288q0 113 61 210q61 98 160 156q98 58 207 58q130 0 211 -82q82 -82 82 -210q0 -114 -62 -215t-160 -159t-206 -58q-130 0 -212 84q-81 84 -81 216zM92 288q0 -113 70 -186q70 -72 183 -72q94 0 180 52q86 51 143 143q55 91 55 194q0 109 -71 180t-182 71
q-95 0 -182 -51q-86 -50 -142 -140q-54 -89 -54 -191zM427 750h-51l101 111h52l59 -111h-47l-41 80h-2z" />
    <glyph glyph-name="Otilde" unicode="&#xd5;" horiz-adv-x="794" 
d="M47 288q0 113 61 210q61 98 160 156q98 58 207 58q130 0 211 -82q82 -82 82 -210q0 -114 -62 -215t-160 -159t-206 -58q-130 0 -212 84q-81 84 -81 216zM92 288q0 -113 70 -186q70 -72 183 -72q94 0 180 52q86 51 143 143q55 91 55 194q0 109 -71 180t-182 71
q-95 0 -182 -51q-86 -50 -142 -140q-54 -89 -54 -191zM377 753h-40q19 108 101 108q21 1 38.5 -10.5t27.5 -26.5t23 -26.5t26 -10.5q39 0 54 71h40q-19 -108 -100 -108q-24 0 -41.5 11.5t-25.5 25.5t-21 25.5t-28 11.5q-39 0 -54 -71z" />
    <glyph glyph-name="Odieresis" unicode="&#xd6;" horiz-adv-x="794" 
d="M47 288q0 113 61 210q61 98 160 156q98 58 207 58q130 0 211 -82q82 -82 82 -210q0 -114 -62 -215t-160 -159t-206 -58q-130 0 -212 84q-81 84 -81 216zM92 288q0 -113 70 -186q70 -72 183 -72q94 0 180 52q86 51 143 143q55 91 55 194q0 109 -71 180t-182 71
q-95 0 -182 -51q-86 -50 -142 -140q-54 -89 -54 -191zM583 788h-46l15 73h46zM446 788h-46l15 73h46z" />
    <glyph glyph-name="multiply" unicode="&#xd7;" horiz-adv-x="677" 
d="M117 0l-28 28l224 255l-224 255l28 28l223 -253l223 253l28 -28l-225 -255l225 -255l-28 -28l-223 253z" />
    <glyph glyph-name="Oslash" unicode="&#xd8;" horiz-adv-x="794" 
d="M94 -26l-31 27l65 71q-81 82 -81 216q0 113 61 210q61 98 160 156q98 58 207 58q105 0 182 -57l63 69l30 -28l-62 -68q80 -80 80 -208q0 -114 -62 -215t-160 -159t-206 -58q-105 0 -181 57zM159 106l468 515q-65 49 -157 49q-95 0 -182 -51q-86 -50 -142 -140
q-54 -89 -54 -191q0 -111 67 -182zM657 594l-468 -515q65 -49 156 -49q94 0 180 52q86 51 143 143q55 91 55 194q0 106 -66 175z" />
    <glyph glyph-name="Ugrave" unicode="&#xd9;" horiz-adv-x="704" 
d="M82 180q0 27 6 57l74 380q1 8 2.5 15t1.5 10l1 4q0 14 -19 14h-42l8 40h51q47 0 47 -37q0 -12 -6 -42l-75 -384q-5 -25 -5 -50q0 -74 45 -115.5t126 -41.5q97 0 165 57t87 154l79 407q10 52 66 52h53l-8 -40h-45q-21 0 -25 -22l-79 -407q-21 -111 -100 -177
q-80 -66 -193 -66q-99 0 -157 51.5t-58 140.5zM462 750h-42l-58 111h54z" />
    <glyph glyph-name="Uacute" unicode="&#xda;" horiz-adv-x="704" 
d="M82 180q0 27 6 57l74 380q1 8 2.5 15t1.5 10l1 4q0 14 -19 14h-42l8 40h51q47 0 47 -37q0 -12 -6 -42l-75 -384q-5 -25 -5 -50q0 -74 45 -115.5t126 -41.5q97 0 165 57t87 154l79 407q10 52 66 52h53l-8 -40h-45q-21 0 -25 -22l-79 -407q-21 -111 -100 -177
q-80 -66 -193 -66q-99 0 -157 51.5t-58 140.5zM464 750h-46l88 111h58z" />
    <glyph glyph-name="Ucircumflex" unicode="&#xdb;" horiz-adv-x="704" 
d="M82 180q0 27 6 57l74 380q1 8 2.5 15t1.5 10l1 4q0 14 -19 14h-42l8 40h51q47 0 47 -37q0 -12 -6 -42l-75 -384q-5 -25 -5 -50q0 -74 45 -115.5t126 -41.5q97 0 165 57t87 154l79 407q10 52 66 52h53l-8 -40h-45q-21 0 -25 -22l-79 -407q-21 -111 -100 -177
q-80 -66 -193 -66q-99 0 -157 51.5t-58 140.5zM384 750h-51l101 111h52l59 -111h-47l-41 80h-2z" />
    <glyph glyph-name="Udieresis" unicode="&#xdc;" horiz-adv-x="704" 
d="M82 180q0 27 6 57l74 380q1 8 2.5 15t1.5 10l1 4q0 14 -19 14h-42l8 40h51q47 0 47 -37q0 -12 -6 -42l-75 -384q-5 -25 -5 -50q0 -74 45 -115.5t126 -41.5q97 0 165 57t87 154l79 407q10 52 66 52h53l-8 -40h-45q-21 0 -25 -22l-79 -407q-21 -111 -100 -177
q-80 -66 -193 -66q-99 0 -157 51.5t-58 140.5zM540 788h-46l15 73h46zM403 788h-46l15 73h46z" />
    <glyph glyph-name="Yacute" unicode="&#xdd;" horiz-adv-x="585" 
d="M252 0h-43l60 304l-134 329q-11 27 -34 27h-23l8 40h19q30 0 44 -12t29 -46l89 -218l28 -79h2q30 46 58 79l173 218q29 36 47 47q19 11 52 11h21l-8 -40h-18q-28 0 -49 -27l-261 -329zM401 750h-46l88 111h58z" />
    <glyph glyph-name="Thorn" unicode="&#xde;" horiz-adv-x="570" 
d="M92 0h-43l124 638q4 22 -17 22h-43l8 40h50q48 0 48 -38q0 -2 -2 -20l-14 -72h172q84 0 133.5 -44.5t49.5 -119.5q0 -109 -76 -178q-76 -68 -178 -68h-180zM195 530l-64 -330h175q85 0 146 56q61 55 61 149q0 60 -38 92.5t-105 32.5h-175z" />
    <glyph glyph-name="germandbls" unicode="&#xdf;" horiz-adv-x="552" 
d="M16 0h-52l8 38h42q22 0 26 21l93 480q17 79 78 126q62 47 134 47q68 0 107.5 -34.5t39.5 -87.5q0 -38 -24 -73.5t-58 -58.5q-82 -54 -82 -98q0 -35 83 -92q35 -22 59.5 -56t24.5 -70q0 -62 -52 -105q-53 -44 -120 -44q-89 0 -141 26l-17 9l9 44q59 -38 148 -38
q48 0 88 28t40 80q0 30 -26 59t-58 49t-58 49t-26 60t24 62t58 54q83 55 83 113q0 36 -27 59.5t-75 23.5q-59 0 -108 -39q-49 -37 -63 -103l-92 -472q-6 -30 -21 -43.5t-45 -13.5z" />
    <glyph glyph-name="agrave" unicode="&#xe0;" horiz-adv-x="504" 
d="M1 118q0 54 31.5 93.5t85.5 58.5q101 35 224 35h38l3 16q6 31 6 54q0 98 -114 98q-41 0 -83 -11q-40 -10 -45 -38l-6 -34h-42l9 46q4 26 37 45q53 31 135 31q74 0 112.5 -36.5t38.5 -98.5q0 -28 -7 -63l-46 -238q0 -2 -2 -12t-2 -11q0 -15 18 -15h43l-7 -38h-45
q-53 0 -53 40q0 29 13 68h-2q1 0 -6.5 -12.5t-24 -30t-38.5 -35t-56 -30t-70 -12.5q-64 0 -104.5 33.5t-40.5 96.5zM46 123q0 -45 28.5 -70.5t76.5 -25.5q81 0 141 69q61 69 75 143l5 27h-31q-295 0 -295 -143zM325 589h-42l-58 111h54z" />
    <glyph glyph-name="aacute" unicode="&#xe1;" horiz-adv-x="504" 
d="M1 118q0 54 31.5 93.5t85.5 58.5q101 35 224 35h38l3 16q6 31 6 54q0 98 -114 98q-41 0 -83 -11q-40 -10 -45 -38l-6 -34h-42l9 46q4 26 37 45q53 31 135 31q74 0 112.5 -36.5t38.5 -98.5q0 -28 -7 -63l-46 -238q0 -2 -2 -12t-2 -11q0 -15 18 -15h43l-7 -38h-45
q-53 0 -53 40q0 29 13 68h-2q1 0 -6.5 -12.5t-24 -30t-38.5 -35t-56 -30t-70 -12.5q-64 0 -104.5 33.5t-40.5 96.5zM46 123q0 -45 28.5 -70.5t76.5 -25.5q81 0 141 69q61 69 75 143l5 27h-31q-295 0 -295 -143zM327 589h-46l88 111h58z" />
    <glyph glyph-name="acircumflex" unicode="&#xe2;" horiz-adv-x="504" 
d="M1 118q0 54 31.5 93.5t85.5 58.5q101 35 224 35h38l3 16q6 31 6 54q0 98 -114 98q-41 0 -83 -11q-40 -10 -45 -38l-6 -34h-42l9 46q4 26 37 45q53 31 135 31q74 0 112.5 -36.5t38.5 -98.5q0 -28 -7 -63l-46 -238q0 -2 -2 -12t-2 -11q0 -15 18 -15h43l-7 -38h-45
q-53 0 -53 40q0 29 13 68h-2q1 0 -6.5 -12.5t-24 -30t-38.5 -35t-56 -30t-70 -12.5q-64 0 -104.5 33.5t-40.5 96.5zM46 123q0 -45 28.5 -70.5t76.5 -25.5q81 0 141 69q61 69 75 143l5 27h-31q-295 0 -295 -143zM247 589h-51l101 111h52l59 -111h-47l-41 80h-2z" />
    <glyph glyph-name="atilde" unicode="&#xe3;" horiz-adv-x="504" 
d="M1 118q0 54 31.5 93.5t85.5 58.5q101 35 224 35h38l3 16q6 31 6 54q0 98 -114 98q-41 0 -83 -11q-40 -10 -45 -38l-6 -34h-42l9 46q4 26 37 45q53 31 135 31q74 0 112.5 -36.5t38.5 -98.5q0 -28 -7 -63l-46 -238q0 -2 -2 -12t-2 -11q0 -15 18 -15h43l-7 -38h-45
q-53 0 -53 40q0 29 13 68h-2q1 0 -6.5 -12.5t-24 -30t-38.5 -35t-56 -30t-70 -12.5q-64 0 -104.5 33.5t-40.5 96.5zM46 123q0 -45 28.5 -70.5t76.5 -25.5q81 0 141 69q61 69 75 143l5 27h-31q-295 0 -295 -143zM197 592h-40q19 108 101 108q21 1 38.5 -10.5t27.5 -26.5
t23 -26.5t26 -10.5q39 0 54 71h40q-19 -108 -100 -108q-24 0 -41.5 11.5t-25.5 25.5t-21 25.5t-28 11.5q-39 0 -54 -71z" />
    <glyph glyph-name="adieresis" unicode="&#xe4;" horiz-adv-x="504" 
d="M1 118q0 54 31.5 93.5t85.5 58.5q101 35 224 35h38l3 16q6 31 6 54q0 98 -114 98q-41 0 -83 -11q-40 -10 -45 -38l-6 -34h-42l9 46q4 26 37 45q53 31 135 31q74 0 112.5 -36.5t38.5 -98.5q0 -28 -7 -63l-46 -238q0 -2 -2 -12t-2 -11q0 -15 18 -15h43l-7 -38h-45
q-53 0 -53 40q0 29 13 68h-2q1 0 -6.5 -12.5t-24 -30t-38.5 -35t-56 -30t-70 -12.5q-64 0 -104.5 33.5t-40.5 96.5zM46 123q0 -45 28.5 -70.5t76.5 -25.5q81 0 141 69q61 69 75 143l5 27h-31q-295 0 -295 -143zM403 627h-46l15 73h46zM266 627h-46l15 73h46z" />
    <glyph glyph-name="aring" unicode="&#xe5;" horiz-adv-x="504" 
d="M1 118q0 54 31.5 93.5t85.5 58.5q101 35 224 35h38l3 16q6 31 6 54q0 98 -114 98q-41 0 -83 -11q-40 -10 -45 -38l-6 -34h-42l9 46q4 26 37 45q53 31 135 31q74 0 112.5 -36.5t38.5 -98.5q0 -28 -7 -63l-46 -238q0 -2 -2 -12t-2 -11q0 -15 18 -15h43l-7 -38h-45
q-53 0 -53 40q0 29 13 68h-2q1 0 -6.5 -12.5t-24 -30t-38.5 -35t-56 -30t-70 -12.5q-64 0 -104.5 33.5t-40.5 96.5zM46 123q0 -45 28.5 -70.5t76.5 -25.5q81 0 141 69q61 69 75 143l5 27h-31q-295 0 -295 -143zM306 578q-27 0 -44.5 16.5t-17.5 42.5q0 30 24.5 53.5
t54.5 23.5q28 0 45.5 -16.5t17.5 -42.5q0 -31 -24 -54t-56 -23zM307 612q19 0 30.5 12t11.5 31q0 26 -28 26q-16 0 -28 -12.5t-12 -30.5q0 -26 26 -26z" />
    <glyph glyph-name="ae" unicode="&#xe6;" horiz-adv-x="856" 
d="M2 113q0 187 313 187h64q9 50 9 70q0 103 -112 103q-41 0 -83 -11q-40 -10 -45 -38l-6 -34h-42l9 46q4 26 37 45q53 31 135 31q70 0 107 -29t40 -79h2q80 108 213 108q85 0 130 -47.5t45 -130.5q0 -28 -9 -62l-3 -11h-393q-6 -25 -6 -56q0 -83 43 -129.5t123 -46.5
q43 0 85 15q45 18 62 32l21 16l16 -38q-11 -9 -25 -18q-17 -11 -64 -30q-48 -18 -93 -18q-81 0 -135.5 40t-68.5 109h-2q-15 -36 -62 -84q-28 -28 -70 -46.5t-88 -18.5q-65 0 -106 33.5t-41 91.5zM425 300h345q3 22 3 40q0 65 -35.5 99t-94.5 34q-73 0 -131 -45t-87 -128z
M47 116q0 -40 28.5 -64.5t80.5 -24.5q75 0 134 65t77 147l5 22h-69q-256 0 -256 -145z" />
    <glyph glyph-name="ccedilla" unicode="&#xe7;" horiz-adv-x="519" 
d="M179 -92l-12 -1l34 84q-81 11 -126 66.5t-45 144.5q0 132 91 220q91 90 206 90q37 0 75 -9q42 -10 70 -35.5t22 -58.5l-7 -39h-42l5 29q4 35 -38 54t-89 18q-95 0 -172 -77t-77 -189q0 -82 45 -129t126 -47q51 0 93 16q44 17 62 33l18 16l16 -38q-10 -10 -31 -24
q-72 -44 -160 -44h-8l-18 -48q25 -4 41 -20t16 -39q0 -40 -30.5 -62.5t-73.5 -22.5l-46 4l7 38q18 -5 40 -5q62 0 62 44q0 31 -54 31z" />
    <glyph glyph-name="egrave" unicode="&#xe8;" horiz-adv-x="531" 
d="M28 197q0 125 84 219q86 96 210 96q83 0 127 -47.5t44 -129.5q0 -27 -10 -67l-3 -11h-401q-6 -25 -6 -55q0 -77 47 -125t129 -48q39 0 81 14.5t66 32.5l20 16l16 -38q-7 -6 -26 -18q-18 -12 -65 -30q-48 -18 -94 -18q-96 0 -158 56q-61 57 -61 153zM89 296h355q4 17 4 42
q0 65 -35 100t-94 35q-74 0 -137.5 -47.5t-92.5 -129.5zM360 589h-42l-58 111h54z" />
    <glyph glyph-name="eacute" unicode="&#xe9;" horiz-adv-x="531" 
d="M28 197q0 125 84 219q86 96 210 96q83 0 127 -47.5t44 -129.5q0 -27 -10 -67l-3 -11h-401q-6 -25 -6 -55q0 -77 47 -125t129 -48q39 0 81 14.5t66 32.5l20 16l16 -38q-7 -6 -26 -18q-18 -12 -65 -30q-48 -18 -94 -18q-96 0 -158 56q-61 57 -61 153zM89 296h355q4 17 4 42
q0 65 -35 100t-94 35q-74 0 -137.5 -47.5t-92.5 -129.5zM362 589h-46l88 111h58z" />
    <glyph glyph-name="ecircumflex" unicode="&#xea;" horiz-adv-x="531" 
d="M28 197q0 125 84 219q86 96 210 96q83 0 127 -47.5t44 -129.5q0 -27 -10 -67l-3 -11h-401q-6 -25 -6 -55q0 -77 47 -125t129 -48q39 0 81 14.5t66 32.5l20 16l16 -38q-7 -6 -26 -18q-18 -12 -65 -30q-48 -18 -94 -18q-96 0 -158 56q-61 57 -61 153zM89 296h355q4 17 4 42
q0 65 -35 100t-94 35q-74 0 -137.5 -47.5t-92.5 -129.5zM282 589h-51l101 111h52l59 -111h-47l-41 80h-2z" />
    <glyph glyph-name="edieresis" unicode="&#xeb;" horiz-adv-x="531" 
d="M28 197q0 125 84 219q86 96 210 96q83 0 127 -47.5t44 -129.5q0 -27 -10 -67l-3 -11h-401q-6 -25 -6 -55q0 -77 47 -125t129 -48q39 0 81 14.5t66 32.5l20 16l16 -38q-7 -6 -26 -18q-18 -12 -65 -30q-48 -18 -94 -18q-96 0 -158 56q-61 57 -61 153zM89 296h355q4 17 4 42
q0 65 -35 100t-94 35q-74 0 -137.5 -47.5t-92.5 -129.5zM438 627h-46l15 73h46zM301 627h-46l15 73h46z" />
    <glyph glyph-name="igrave" unicode="&#xec;" horiz-adv-x="221" 
d="M42 41q0 15 3 29l69 355q3 15 3 23q0 14 -18 14h-43l8 38h47q50 0 50 -39q0 -11 -4 -31l-70 -360q-3 -15 -3 -18q0 -14 19 -14h43l-7 -38h-49q-48 0 -48 41zM179 589h-42l-58 111h54z" />
    <glyph glyph-name="iacute" unicode="&#xed;" horiz-adv-x="221" 
d="M42 41q0 15 3 29l69 355q3 15 3 23q0 14 -18 14h-43l8 38h47q50 0 50 -39q0 -11 -4 -31l-70 -360q-3 -15 -3 -18q0 -14 19 -14h43l-7 -38h-49q-48 0 -48 41zM181 589h-46l88 111h58z" />
    <glyph glyph-name="icircumflex" unicode="&#xee;" horiz-adv-x="221" 
d="M42 41q0 15 3 29l69 355q3 15 3 23q0 14 -18 14h-43l8 38h47q50 0 50 -39q0 -11 -4 -31l-70 -360q-3 -15 -3 -18q0 -14 19 -14h43l-7 -38h-49q-48 0 -48 41zM101 589h-51l101 111h52l59 -111h-47l-41 80h-2z" />
    <glyph glyph-name="idieresis" unicode="&#xef;" horiz-adv-x="221" 
d="M42 41q0 15 3 29l69 355q3 15 3 23q0 14 -18 14h-43l8 38h47q50 0 50 -39q0 -11 -4 -31l-70 -360q-3 -15 -3 -18q0 -14 19 -14h43l-7 -38h-49q-48 0 -48 41zM257 627h-46l15 73h46zM120 627h-46l15 73h46z" />
    <glyph glyph-name="eth" unicode="&#xf0;" horiz-adv-x="559" 
d="M26 183q0 109 78 197t206 88q60 0 98.5 -20t54.5 -42l5 -7h2q-16 117 -102 186l-187 -80l-10 37l161 69q-60 35 -143 59l18 35q101 -28 169 -75l139 59l11 -37l-116 -49q106 -94 106 -249q0 -118 -69 -235q-35 -59 -95 -95t-133 -36q-93 0 -143 56t-50 139zM70 185
q0 -69 40 -113t109 -44q103 0 173 88q71 89 71 181q0 60 -41.5 95.5t-112.5 35.5q-97 0 -168 -72q-71 -73 -71 -171z" />
    <glyph glyph-name="ntilde" unicode="&#xf1;" horiz-adv-x="589" 
d="M72 0h-42l82 422q3 14 3 24q0 16 -19 16h-41l7 38h47q50 0 50 -40q0 -25 -16 -85h2q29 50 88 93q61 44 141 44q141 0 141 -132q0 -27 -7 -63l-48 -247q-3 -15 -3 -18q0 -14 19 -14h43l-7 -38h-49q-49 0 -49 41q0 11 3 25l46 237q8 40 8 69q0 99 -100 99q-89 0 -163 -71
q-72 -71 -89 -158zM260 592h-40q19 108 101 108q21 1 38.5 -10.5t27.5 -26.5t23 -26.5t26 -10.5q39 0 54 71h40q-19 -108 -100 -108q-24 0 -41.5 11.5t-25.5 25.5t-21 25.5t-28 11.5q-39 0 -54 -71z" />
    <glyph glyph-name="ograve" unicode="&#xf2;" horiz-adv-x="601" 
d="M28 205q0 126 94 216q94 91 217 91q96 0 156 -60t60 -154q0 -127 -95 -219q-94 -91 -216 -91q-96 0 -156 61t-60 156zM72 206q0 -79 49 -128t128 -49q101 0 181 79q81 80 81 189q0 75 -50 125q-49 49 -127 49q-103 0 -182 -79q-80 -78 -80 -186zM382 589h-42l-58 111h54z
" />
    <glyph glyph-name="oacute" unicode="&#xf3;" horiz-adv-x="601" 
d="M28 205q0 126 94 216q94 91 217 91q96 0 156 -60t60 -154q0 -127 -95 -219q-94 -91 -216 -91q-96 0 -156 61t-60 156zM72 206q0 -79 49 -128t128 -49q101 0 181 79q81 80 81 189q0 75 -50 125q-49 49 -127 49q-103 0 -182 -79q-80 -78 -80 -186zM384 589h-46l88 111h58z
" />
    <glyph glyph-name="ocircumflex" unicode="&#xf4;" horiz-adv-x="601" 
d="M304 589h-51l101 111h52l59 -111h-47l-41 80h-2zM28 205q0 126 94 216q94 91 217 91q96 0 156 -60t60 -154q0 -127 -95 -219q-94 -91 -216 -91q-96 0 -156 61t-60 156zM72 206q0 -79 49 -128t128 -49q101 0 181 79q81 80 81 189q0 75 -50 125q-49 49 -127 49
q-103 0 -182 -79q-80 -78 -80 -186z" />
    <glyph glyph-name="otilde" unicode="&#xf5;" horiz-adv-x="601" 
d="M28 205q0 126 94 216q94 91 217 91q96 0 156 -60t60 -154q0 -127 -95 -219q-94 -91 -216 -91q-96 0 -156 61t-60 156zM72 206q0 -79 49 -128t128 -49q101 0 181 79q81 80 81 189q0 75 -50 125q-49 49 -127 49q-103 0 -182 -79q-80 -78 -80 -186zM254 592h-40
q19 108 101 108q21 1 38.5 -10.5t27.5 -26.5t23 -26.5t26 -10.5q39 0 54 71h40q-19 -108 -100 -108q-24 0 -41.5 11.5t-25.5 25.5t-21 25.5t-28 11.5q-39 0 -54 -71z" />
    <glyph glyph-name="odieresis" unicode="&#xf6;" horiz-adv-x="601" 
d="M28 205q0 126 94 216q94 91 217 91q96 0 156 -60t60 -154q0 -127 -95 -219q-94 -91 -216 -91q-96 0 -156 61t-60 156zM72 206q0 -79 49 -128t128 -49q101 0 181 79q81 80 81 189q0 75 -50 125q-49 49 -127 49q-103 0 -182 -79q-80 -78 -80 -186zM460 627h-46l15 73h46z
M323 627h-46l15 73h46z" />
    <glyph glyph-name="divide" unicode="&#xf7;" 
d="M324 431h-57v59h57v-59zM534 263h-476v40h476v-40zM324 76h-57v59h57v-59z" />
    <glyph glyph-name="oslash" unicode="&#xf8;" horiz-adv-x="601" 
d="M68 -28l-27 26l48 52q-61 62 -61 155q0 125 93 216q94 91 213 91q79 0 139 -42l50 55l27 -26l-51 -56q56 -64 56 -145q0 -127 -94 -218q-95 -92 -212 -92q-77 0 -132 37zM118 82l325 356q-48 33 -109 33q-103 0 -182 -79q-80 -78 -80 -186q0 -74 46 -124zM469 411
l-323 -354q46 -28 103 -28q101 0 181 79q81 80 81 189q0 65 -42 114z" />
    <glyph glyph-name="ugrave" unicode="&#xf9;" horiz-adv-x="592" 
d="M63 120q0 27 7 63l48 247q3 15 3 18q0 14 -19 14h-43l7 38h49q49 0 49 -41q0 -11 -3 -25l-46 -237q-8 -40 -8 -69q0 -99 100 -99q88 0 159 71q72 72 88 158l47 242h42l-82 -422q-3 -14 -3 -24q0 -16 19 -16h41l-7 -38h-47q-50 0 -50 40q0 25 16 85h-2q-27 -47 -86 -93
q-59 -44 -138 -44q-141 0 -141 132zM368 589h-42l-58 111h54z" />
    <glyph glyph-name="uacute" unicode="&#xfa;" horiz-adv-x="592" 
d="M63 120q0 27 7 63l48 247q3 15 3 18q0 14 -19 14h-43l7 38h49q49 0 49 -41q0 -11 -3 -25l-46 -237q-8 -40 -8 -69q0 -99 100 -99q88 0 159 71q72 72 88 158l47 242h42l-82 -422q-3 -14 -3 -24q0 -16 19 -16h41l-7 -38h-47q-50 0 -50 40q0 25 16 85h-2q-27 -47 -86 -93
q-59 -44 -138 -44q-141 0 -141 132zM370 589h-46l88 111h58z" />
    <glyph glyph-name="ucircumflex" unicode="&#xfb;" horiz-adv-x="592" 
d="M63 120q0 27 7 63l48 247q3 15 3 18q0 14 -19 14h-43l7 38h49q49 0 49 -41q0 -11 -3 -25l-46 -237q-8 -40 -8 -69q0 -99 100 -99q88 0 159 71q72 72 88 158l47 242h42l-82 -422q-3 -14 -3 -24q0 -16 19 -16h41l-7 -38h-47q-50 0 -50 40q0 25 16 85h-2q-27 -47 -86 -93
q-59 -44 -138 -44q-141 0 -141 132zM290 589h-51l101 111h52l59 -111h-47l-41 80h-2z" />
    <glyph glyph-name="udieresis" unicode="&#xfc;" horiz-adv-x="592" 
d="M63 120q0 27 7 63l48 247q3 15 3 18q0 14 -19 14h-43l7 38h49q49 0 49 -41q0 -11 -3 -25l-46 -237q-8 -40 -8 -69q0 -99 100 -99q88 0 159 71q72 72 88 158l47 242h42l-82 -422q-3 -14 -3 -24q0 -16 19 -16h41l-7 -38h-47q-50 0 -50 40q0 25 16 85h-2q-27 -47 -86 -93
q-59 -44 -138 -44q-141 0 -141 132zM446 627h-46l15 73h46zM309 627h-46l15 73h46z" />
    <glyph glyph-name="yacute" unicode="&#xfd;" horiz-adv-x="520" 
d="M6 -210q-24 0 -47.5 10.5t-34.5 23.5l-9 12l23 32l2 -2q36 -36 69 -36q59 0 114 90l53 85l-96 433q-4 24 -33 24h-8l8 38h25q23 0 32 -11.5t18 -46.5l76 -341l8 -47h2q10 21 26 47l207 341q21 35 40 47q17 11 54 11h9l-8 -38h-8q-28 0 -43 -24l-338 -555
q-57 -93 -141 -93zM330 589h-46l88 111h58z" />
    <glyph glyph-name="thorn" unicode="&#xfe;" horiz-adv-x="562" 
d="M23 -200h-42l161 825q3 15 3 23q0 14 -18 14h-43l8 38h47q50 0 50 -39q0 -9 -4 -29l-33 -169q-9 -45 -15 -63h2q66 112 195 112q86 0 133 -53t47 -150q0 -136 -82 -228q-82 -93 -190 -93q-59 0 -102.5 30t-58.5 83h-2q-1 -14 -7 -49zM105 191q0 -73 35 -117.5t99 -44.5
q89 0 159 78q72 79 72 198q0 80 -36 123t-102 43q-98 0 -163 -89q-64 -88 -64 -191z" />
    <glyph glyph-name="ydieresis" unicode="&#xff;" horiz-adv-x="520" 
d="M6 -210q-24 0 -47.5 10.5t-34.5 23.5l-9 12l23 32l2 -2q36 -36 69 -36q59 0 114 90l53 85l-96 433q-4 24 -33 24h-8l8 38h25q23 0 32 -11.5t18 -46.5l76 -341l8 -47h2q10 21 26 47l207 341q21 35 40 47q17 11 54 11h9l-8 -38h-8q-28 0 -43 -24l-338 -555
q-57 -93 -141 -93zM406 627h-46l15 73h46zM269 627h-46l15 73h46z" />
    <glyph glyph-name="Amacron" unicode="&#x100;" horiz-adv-x="643" 
d="M-14 0h-27l8 40h17q23 0 36 22l363 638h47l116 -641q2 -12 7.5 -15.5t17.5 -3.5h18l-8 -40h-27q-27 0 -36.5 10.5t-16.5 47.5l-33 184h-297l-105 -184q-20 -37 -35 -47.5t-45 -10.5zM354 566l-161 -284h268l-52 284l-10 84h-2q-19 -41 -43 -84zM547 786h-239l7 40h239z
" />
    <glyph glyph-name="amacron" unicode="&#x101;" horiz-adv-x="504" 
d="M1 118q0 54 31.5 93.5t85.5 58.5q101 35 224 35h38l3 16q6 31 6 54q0 98 -114 98q-41 0 -83 -11q-40 -10 -45 -38l-6 -34h-42l9 46q4 26 37 45q53 31 135 31q74 0 112.5 -36.5t38.5 -98.5q0 -28 -7 -63l-46 -238q0 -2 -2 -12t-2 -11q0 -15 18 -15h43l-7 -38h-45
q-53 0 -53 40q0 29 13 68h-2q1 0 -6.5 -12.5t-24 -30t-38.5 -35t-56 -30t-70 -12.5q-64 0 -104.5 33.5t-40.5 96.5zM46 123q0 -45 28.5 -70.5t76.5 -25.5q81 0 141 69q61 69 75 143l5 27h-31q-295 0 -295 -143zM433 625h-239l7 40h239z" />
    <glyph glyph-name="Abreve" unicode="&#x102;" horiz-adv-x="643" 
d="M-14 0h-27l8 40h17q23 0 36 22l363 638h47l116 -641q2 -12 7.5 -15.5t17.5 -3.5h18l-8 -40h-27q-27 0 -36.5 10.5t-16.5 47.5l-33 184h-297l-105 -184q-20 -37 -35 -47.5t-45 -10.5zM354 566l-161 -284h268l-52 284l-10 84h-2q-19 -41 -43 -84zM422 747q-46 0 -71.5 29
t-15.5 72l3 13h40l-3 -14q-6 -30 7.5 -46t41.5 -16q59 0 73 63l3 13h40l-4 -21q-9 -42 -40.5 -67.5t-73.5 -25.5z" />
    <glyph glyph-name="abreve" unicode="&#x103;" horiz-adv-x="504" 
d="M1 118q0 54 31.5 93.5t85.5 58.5q101 35 224 35h38l3 16q6 31 6 54q0 98 -114 98q-41 0 -83 -11q-40 -10 -45 -38l-6 -34h-42l9 46q4 26 37 45q53 31 135 31q74 0 112.5 -36.5t38.5 -98.5q0 -28 -7 -63l-46 -238q0 -2 -2 -12t-2 -11q0 -15 18 -15h43l-7 -38h-45
q-53 0 -53 40q0 29 13 68h-2q1 0 -6.5 -12.5t-24 -30t-38.5 -35t-56 -30t-70 -12.5q-64 0 -104.5 33.5t-40.5 96.5zM46 123q0 -45 28.5 -70.5t76.5 -25.5q81 0 141 69q61 69 75 143l5 27h-31q-295 0 -295 -143zM308 586q-46 0 -71.5 29t-15.5 72l3 13h40l-3 -14
q-6 -30 7.5 -46t41.5 -16q60 0 73 63l3 13h40l-4 -21q-9 -42 -40.5 -67.5t-73.5 -25.5z" />
    <glyph glyph-name="Aogonek" unicode="&#x104;" horiz-adv-x="643" 
d="M431 -125q0 68 94 129q-15 8 -24 54l-33 184h-297l-105 -184q-20 -37 -35 -47.5t-45 -10.5h-27l8 40h17q23 0 36 22l363 638h47l116 -641q2 -12 7.5 -15.5t17.5 -3.5h18l-8 -40q-12 0 -59 -42q-46 -42 -46 -76q0 -19 13.5 -31t30.5 -15l14 -2l-18 -38q-3 0 -9 1.5
t-20.5 7t-26 13.5t-20.5 23t-9 34zM354 566l-161 -284h268l-52 284l-10 84h-2q-19 -41 -43 -84z" />
    <glyph glyph-name="aogonek" unicode="&#x105;" horiz-adv-x="504" 
d="M278 -125q0 67 89 126q-37 4 -37 39q0 29 13 68h-2q1 0 -6.5 -12.5t-24 -30t-38.5 -35t-56 -30t-70 -12.5q-64 0 -104.5 33.5t-40.5 96.5q0 54 31.5 93.5t85.5 58.5q101 35 224 35h38l3 16q6 31 6 54q0 98 -114 98q-41 0 -83 -11q-40 -10 -45 -38l-6 -34h-42l9 46
q4 26 37 45q53 31 135 31q74 0 112.5 -36.5t38.5 -98.5q0 -28 -7 -63l-46 -238q0 -2 -2 -12t-2 -11q0 -15 18 -15h43l-7 -38q-12 0 -59 -42q-46 -42 -46 -76q0 -19 13.5 -31t29.5 -15l15 -2l-18 -38q-3 0 -9 1.5t-20.5 7t-26 13.5t-20.5 23t-9 34zM46 123q0 -45 28.5 -70.5
t76.5 -25.5q81 0 141 69q61 69 75 143l5 27h-31q-295 0 -295 -143z" />
    <glyph glyph-name="Cacute" unicode="&#x106;" horiz-adv-x="698" 
d="M48 287q0 105 53 203q55 99 149 160q97 62 209 62q87 0 162 -35q74 -35 74 -96q0 -16 -4 -32l-6 -31h-43l8 41q6 28 -12.5 50.5t-51 35t-65.5 19t-61 6.5q-146 0 -257 -114q-110 -115 -110 -268q0 -114 66 -186t184 -72q152 0 251 91l24 -33q-45 -45 -124 -73
q-76 -27 -155 -27q-135 0 -213 86t-78 213zM492 750h-46l88 111h58z" />
    <glyph glyph-name="cacute" unicode="&#x107;" horiz-adv-x="518" 
d="M29 202q0 132 91 220q91 90 206 90q38 0 75 -9q42 -10 70 -35.5t22 -58.5l-7 -39h-42l5 29q4 35 -38 54t-89 18q-95 0 -172 -77t-77 -189q0 -82 45 -129t126 -47q51 0 93 16q44 17 62 33l18 16l16 -38q-10 -10 -31 -24q-72 -44 -160 -44q-98 0 -155.5 57t-57.5 157z
M363 589h-46l88 111h58z" />
    <glyph glyph-name="Ccircumflex" unicode="&#x108;" horiz-adv-x="698" 
d="M48 287q0 105 53 203q55 99 149 160q97 62 209 62q87 0 162 -35q74 -35 74 -96q0 -16 -4 -32l-6 -31h-43l8 41q6 28 -12.5 50.5t-51 35t-65.5 19t-61 6.5q-146 0 -257 -114q-110 -115 -110 -268q0 -114 66 -186t184 -72q152 0 251 91l24 -33q-45 -45 -124 -73
q-76 -27 -155 -27q-135 0 -213 86t-78 213zM412 750h-51l101 111h52l59 -111h-47l-41 80h-2z" />
    <glyph glyph-name="ccircumflex" unicode="&#x109;" horiz-adv-x="518" 
d="M29 202q0 132 91 220q91 90 206 90q38 0 75 -9q42 -10 70 -35.5t22 -58.5l-7 -39h-42l5 29q4 35 -38 54t-89 18q-95 0 -172 -77t-77 -189q0 -82 45 -129t126 -47q51 0 93 16q44 17 62 33l18 16l16 -38q-10 -10 -31 -24q-72 -44 -160 -44q-98 0 -155.5 57t-57.5 157z
M283 589h-51l101 111h52l59 -111h-47l-41 80h-2z" />
    <glyph glyph-name="Cdotaccent" unicode="&#x10a;" horiz-adv-x="698" 
d="M48 287q0 105 53 203q55 99 149 160q97 62 209 62q87 0 162 -35q74 -35 74 -96q0 -16 -4 -32l-6 -31h-43l8 41q6 28 -12.5 50.5t-51 35t-65.5 19t-61 6.5q-146 0 -257 -114q-110 -115 -110 -268q0 -114 66 -186t184 -72q152 0 251 91l24 -33q-45 -45 -124 -73
q-76 -27 -155 -27q-135 0 -213 86t-78 213zM498 788h-46l15 73h46z" />
    <glyph glyph-name="cdotaccent" unicode="&#x10b;" horiz-adv-x="518" 
d="M29 202q0 132 91 220q91 90 206 90q38 0 75 -9q42 -10 70 -35.5t22 -58.5l-7 -39h-42l5 29q4 35 -38 54t-89 18q-95 0 -172 -77t-77 -189q0 -82 45 -129t126 -47q51 0 93 16q44 17 62 33l18 16l16 -38q-10 -10 -31 -24q-72 -44 -160 -44q-98 0 -155.5 57t-57.5 157z
M369 627h-46l15 73h46z" />
    <glyph glyph-name="Ccaron" unicode="&#x10c;" horiz-adv-x="698" 
d="M48 287q0 105 53 203q55 99 149 160q97 62 209 62q87 0 162 -35q74 -35 74 -96q0 -16 -4 -32l-6 -31h-43l8 41q6 28 -12.5 50.5t-51 35t-65.5 19t-61 6.5q-146 0 -257 -114q-110 -115 -110 -268q0 -114 66 -186t184 -72q152 0 251 91l24 -33q-45 -45 -124 -73
q-76 -27 -155 -27q-135 0 -213 86t-78 213zM497 750h-52l-59 111h47l41 -80h2l71 80h51z" />
    <glyph glyph-name="ccaron" unicode="&#x10d;" horiz-adv-x="518" 
d="M29 202q0 132 91 220q91 90 206 90q38 0 75 -9q42 -10 70 -35.5t22 -58.5l-7 -39h-42l5 29q4 35 -38 54t-89 18q-95 0 -172 -77t-77 -189q0 -82 45 -129t126 -47q51 0 93 16q44 17 62 33l18 16l16 -38q-10 -10 -31 -24q-72 -44 -160 -44q-98 0 -155.5 57t-57.5 157z
M368 589h-52l-59 111h47l41 -80h2l71 80h51z" />
    <glyph glyph-name="Dcaron" unicode="&#x10e;" horiz-adv-x="720" 
d="M60 39q0 10 5 35l114 586h-65l8 40h275q139 0 216.5 -72.5t77.5 -204.5q0 -108 -50 -205q-50 -96 -147 -157t-224 -61h-161q-49 0 -49 39zM105 54q0 -14 18 -14h143q115 0 204 56q87 56 131.5 140.5t44.5 184.5q0 117 -67.5 178t-191.5 61h-165l-113 -582q-4 -16 -4 -24z
M450 750h-52l-59 111h47l41 -80h2l71 80h51z" />
    <glyph glyph-name="dcaron" unicode="&#x10f;" horiz-adv-x="570" 
d="M29 185q0 141 81 234q82 93 191 93q60 0 103 -30t58 -83h2q2 31 5 46l35 180q3 13 3 23q0 14 -18 14h-43l8 38h47q51 0 51 -39q0 -9 -4 -29l-109 -557q-3 -12 -3 -22q0 -15 17 -15h43l-7 -38h-45q-52 0 -52 39q0 28 13 61h-2q-28 -48 -80 -80t-110 -32q-87 0 -135.5 52
t-48.5 145zM73 187q0 -74 37 -116t102 -42q68 0 120 45q52 43 79 107.5t27 134.5t-35.5 112.5t-101.5 42.5q-88 0 -158 -79t-70 -205zM628 700h48q0 -70 -43 -134h-39q36 62 36 104z" />
    <glyph glyph-name="Dcroat" unicode="&#x110;" horiz-adv-x="720" 
d="M60 39q0 10 5 35l50 259h-50l8 40h50l56 287h-65l8 40h275q139 0 216.5 -72.5t77.5 -204.5q0 -108 -50 -205q-50 -96 -147 -157t-224 -61h-161q-49 0 -49 39zM105 54q0 -14 18 -14h143q115 0 204 56q87 56 131.5 140.5t44.5 184.5q0 117 -67.5 178t-191.5 61h-165
l-56 -287h183l-8 -40h-183l-49 -255q-4 -16 -4 -24z" />
    <glyph glyph-name="dslash" unicode="&#x111;" horiz-adv-x="570" 
d="M29 185q0 141 81 234q82 93 191 93q60 0 103 -30t58 -83h2q2 31 5 46l24 124h-133l8 40h133l18 91h42l-18 -91h83l-8 -40h-83l-96 -494q-3 -12 -3 -22q0 -15 17 -15h43l-7 -38h-45q-52 0 -52 39q0 28 13 61h-2q-28 -48 -80 -80t-110 -32q-87 0 -135.5 52t-48.5 145z
M73 187q0 -74 37 -116t102 -42q68 0 120 45q52 43 79 107.5t27 134.5t-35.5 112.5t-101.5 42.5q-88 0 -158 -79t-70 -205z" />
    <glyph glyph-name="Emacron" unicode="&#x112;" horiz-adv-x="558" 
d="M60 39q0 10 5 35l114 586h-65l8 40h391q47 0 47 -37q0 -12 -6 -42l-6 -32h-42l6 31q4 20 4 25q0 15 -19 15h-275l-56 -287h279l-8 -40h-279l-49 -255q-4 -16 -4 -24q0 -14 18 -14h284q23 0 27 22l9 49h42l-10 -54q-6 -32 -21.5 -44.5t-45.5 -12.5h-299q-49 0 -49 39z
M508 786h-239l7 40h239z" />
    <glyph glyph-name="emacron" unicode="&#x113;" horiz-adv-x="531" 
d="M28 197q0 125 84 219q86 96 210 96q83 0 127 -47.5t44 -129.5q0 -27 -10 -67l-3 -11h-401q-6 -25 -6 -55q0 -77 47 -125t129 -48q39 0 81 14.5t66 32.5l20 16l16 -38q-7 -6 -26 -18q-18 -12 -65 -30q-48 -18 -94 -18q-96 0 -158 56q-61 57 -61 153zM89 296h355q4 17 4 42
q0 65 -35 100t-94 35q-74 0 -137.5 -47.5t-92.5 -129.5zM468 625h-239l7 40h239z" />
    <glyph glyph-name="Ebreve" unicode="&#x114;" horiz-adv-x="558" 
d="M60 39q0 10 5 35l114 586h-65l8 40h391q47 0 47 -37q0 -12 -6 -42l-6 -32h-42l6 31q4 20 4 25q0 15 -19 15h-275l-56 -287h279l-8 -40h-279l-49 -255q-4 -16 -4 -24q0 -14 18 -14h284q23 0 27 22l9 49h42l-10 -54q-6 -32 -21.5 -44.5t-45.5 -12.5h-299q-49 0 -49 39z
M383 747q-46 0 -71.5 29t-15.5 72l3 13h40l-3 -14q-6 -30 7.5 -46t41.5 -16q59 0 73 63l3 13h40l-4 -21q-9 -42 -40.5 -67.5t-73.5 -25.5z" />
    <glyph glyph-name="ebreve" unicode="&#x115;" horiz-adv-x="531" 
d="M28 197q0 125 84 219q86 96 210 96q83 0 127 -47.5t44 -129.5q0 -27 -10 -67l-3 -11h-401q-6 -25 -6 -55q0 -77 47 -125t129 -48q39 0 81 14.5t66 32.5l20 16l16 -38q-7 -6 -26 -18q-18 -12 -65 -30q-48 -18 -94 -18q-96 0 -158 56q-61 57 -61 153zM89 296h355q4 17 4 42
q0 65 -35 100t-94 35q-74 0 -137.5 -47.5t-92.5 -129.5zM343 586q-46 0 -71.5 29t-15.5 72l3 13h40l-3 -14q-6 -30 7.5 -46t41.5 -16q59 0 73 63l3 13h40l-4 -21q-9 -42 -40.5 -67.5t-73.5 -25.5z" />
    <glyph glyph-name="Edotaccent" unicode="&#x116;" horiz-adv-x="558" 
d="M60 39q0 10 5 35l114 586h-65l8 40h391q47 0 47 -37q0 -12 -6 -42l-6 -32h-42l6 31q4 20 4 25q0 15 -19 15h-275l-56 -287h279l-8 -40h-279l-49 -255q-4 -16 -4 -24q0 -14 18 -14h284q23 0 27 22l9 49h42l-10 -54q-6 -32 -21.5 -44.5t-45.5 -12.5h-299q-49 0 -49 39z
M408 788h-46l15 73h46z" />
    <glyph glyph-name="edotaccent" unicode="&#x117;" horiz-adv-x="531" 
d="M28 197q0 125 84 219q86 96 210 96q83 0 127 -47.5t44 -129.5q0 -27 -10 -67l-3 -11h-401q-6 -25 -6 -55q0 -77 47 -125t129 -48q39 0 81 14.5t66 32.5l20 16l16 -38q-7 -6 -26 -18q-18 -12 -65 -30q-48 -18 -94 -18q-96 0 -158 56q-61 57 -61 153zM89 296h355q4 17 4 42
q0 65 -35 100t-94 35q-74 0 -137.5 -47.5t-92.5 -129.5zM368 627h-46l15 73h46z" />
    <glyph glyph-name="Eogonek" unicode="&#x118;" horiz-adv-x="557" 
d="M59 39q0 10 5 35l114 586h-65l8 40h391q47 0 47 -37q0 -12 -6 -42l-6 -32h-42l6 31q4 20 4 25q0 15 -19 15h-275l-56 -287h279l-8 -40h-279l-49 -255q-4 -16 -4 -24q0 -14 18 -14h284q23 0 27 22l9 49h42l-10 -54q-8 -43 -36 -53q-7 -4 -40 -25q-17 -12 -45 -43
q-24 -28 -24 -54q0 -19 13.5 -31t29.5 -15l15 -2l-18 -38q-3 0 -9 1.5t-20.5 7t-26 13.5t-20.5 23t-9 34q0 65 92 125h-268q-49 0 -49 39z" />
    <glyph glyph-name="eogonek" unicode="&#x119;" horiz-adv-x="532" 
d="M28 197q0 125 84 219q86 96 210 96q83 0 127 -47.5t44 -129.5q0 -27 -10 -67l-3 -11h-401q-6 -25 -6 -55q0 -77 47 -125t129 -48q39 0 81 14.5t66 32.5l20 16l16 -38q-28 -22 -67 -40q-125 -74 -125 -132q0 -19 13.5 -31t30.5 -15l14 -2l-18 -38q-3 0 -9 1.5t-20.5 7
t-26 13.5t-20.5 23t-9 34q0 61 77 115q-24 -2 -25 -2q-96 0 -158 56q-61 57 -61 153zM89 296h355q4 17 4 42q0 65 -35 100t-94 35q-74 0 -137.5 -47.5t-92.5 -129.5z" />
    <glyph glyph-name="Ecaron" unicode="&#x11a;" horiz-adv-x="558" 
d="M60 39q0 10 5 35l114 586h-65l8 40h391q47 0 47 -37q0 -12 -6 -42l-6 -32h-42l6 31q4 20 4 25q0 15 -19 15h-275l-56 -287h279l-8 -40h-279l-49 -255q-4 -16 -4 -24q0 -14 18 -14h284q23 0 27 22l9 49h42l-10 -54q-6 -32 -21.5 -44.5t-45.5 -12.5h-299q-49 0 -49 39z
M407 750h-52l-59 111h47l41 -80h2l71 80h51z" />
    <glyph glyph-name="ecaron" unicode="&#x11b;" horiz-adv-x="531" 
d="M28 197q0 125 84 219q86 96 210 96q83 0 127 -47.5t44 -129.5q0 -27 -10 -67l-3 -11h-401q-6 -25 -6 -55q0 -77 47 -125t129 -48q39 0 81 14.5t66 32.5l20 16l16 -38q-7 -6 -26 -18q-18 -12 -65 -30q-48 -18 -94 -18q-96 0 -158 56q-61 57 -61 153zM89 296h355q4 17 4 42
q0 65 -35 100t-94 35q-74 0 -137.5 -47.5t-92.5 -129.5zM367 589h-52l-59 111h47l41 -80h2l71 80h51z" />
    <glyph glyph-name="Gcircumflex" unicode="&#x11c;" horiz-adv-x="719" 
d="M47 282q0 112 58 212q59 100 156 159q98 59 208 59q75 0 131.5 -25t82.5 -51l9 -8l-27 -34q-13 13 -32 26q-65 50 -165 50q-150 0 -263 -117q-113 -116 -113 -270q0 -113 65 -184q66 -69 175 -69q88 0 161 41q66 37 93 64l13 12l16 82q4 20 4 25q0 15 -19 15h-43l8 40h51
q47 0 47 -37q0 -12 -6 -42l-45 -230h-43l12 61l7 30h-2q-37 -40 -106 -72q-66 -31 -150 -31q-130 0 -206 81q-77 83 -77 213zM419 750h-51l101 111h52l59 -111h-47l-41 80h-2z" />
    <glyph glyph-name="gcircumflex" unicode="&#x11d;" horiz-adv-x="561" 
d="M-2 -171l23 36q58 -34 131 -34q92 0 152 49t77 151q7 41 15 64l3 7h-2q-65 -102 -178 -102q-87 0 -138 53t-51 143q0 72 29 144q29 71 91 121q62 51 142 51q64 0 108.5 -24t56.5 -74h2q-2 9 1 25q6 33 22 47t48 14h49l-7 -39h-43q-23 0 -27 -22l-85 -441
q-13 -70 -56 -119q-75 -89 -206 -89q-85 0 -157 39zM74 197q0 -73 39 -114.5t107 -41.5q53 0 95 28t67.5 72.5t38.5 95t13 100.5q0 134 -140 134q-100 0 -160 -84t-60 -190zM277 589h-51l101 111h52l59 -111h-47l-41 80h-2z" />
    <glyph glyph-name="Gbreve" unicode="&#x11e;" horiz-adv-x="719" 
d="M47 282q0 112 58 212q59 100 156 159q98 59 208 59q75 0 131.5 -25t82.5 -51l9 -8l-27 -34q-13 13 -32 26q-65 50 -165 50q-150 0 -263 -117q-113 -116 -113 -270q0 -113 65 -184q66 -69 175 -69q88 0 161 41q66 37 93 64l13 12l16 82q4 20 4 25q0 15 -19 15h-43l8 40h51
q47 0 47 -37q0 -12 -6 -42l-45 -230h-43l12 61l7 30h-2q-37 -40 -106 -72q-66 -31 -150 -31q-130 0 -206 81q-77 83 -77 213zM480 747q-46 0 -71.5 29t-15.5 72l3 13h40l-3 -14q-6 -30 7.5 -46t41.5 -16q59 0 73 63l3 13h40l-4 -21q-9 -42 -40.5 -67.5t-73.5 -25.5z" />
    <glyph glyph-name="gbreve" unicode="&#x11f;" horiz-adv-x="561" 
d="M-2 -171l23 36q58 -34 131 -34q92 0 152 49t77 151q7 41 15 64l3 7h-2q-65 -102 -178 -102q-87 0 -138 53t-51 143q0 72 29 144q29 71 91 121q62 51 142 51q64 0 108.5 -24t56.5 -74h2q-2 9 1 25q6 33 22 47t48 14h49l-7 -39h-43q-23 0 -27 -22l-85 -441
q-13 -70 -56 -119q-75 -89 -206 -89q-85 0 -157 39zM74 197q0 -73 39 -114.5t107 -41.5q53 0 95 28t67.5 72.5t38.5 95t13 100.5q0 134 -140 134q-100 0 -160 -84t-60 -190zM338 586q-46 0 -71.5 29t-15.5 72l3 13h40l-3 -14q-6 -30 7.5 -46t41.5 -16q60 0 73 63l3 13h40
l-4 -21q-9 -42 -40.5 -67.5t-73.5 -25.5z" />
    <glyph glyph-name="Gdotaccent" unicode="&#x120;" horiz-adv-x="719" 
d="M47 282q0 112 58 212q59 100 156 159q98 59 208 59q75 0 131.5 -25t82.5 -51l9 -8l-27 -34q-13 13 -32 26q-65 50 -165 50q-150 0 -263 -117q-113 -116 -113 -270q0 -113 65 -184q66 -69 175 -69q88 0 161 41q66 37 93 64l13 12l16 82q4 20 4 25q0 15 -19 15h-43l8 40h51
q47 0 47 -37q0 -12 -6 -42l-45 -230h-43l12 61l7 30h-2q-37 -40 -106 -72q-66 -31 -150 -31q-130 0 -206 81q-77 83 -77 213zM505 788h-46l15 73h46z" />
    <glyph glyph-name="gdotaccent" unicode="&#x121;" horiz-adv-x="561" 
d="M-2 -171l23 36q58 -34 131 -34q92 0 152 49t77 151q7 41 15 64l3 7h-2q-65 -102 -178 -102q-87 0 -138 53t-51 143q0 72 29 144q29 71 91 121q62 51 142 51q64 0 108.5 -24t56.5 -74h2q-2 9 1 25q6 33 22 47t48 14h49l-7 -39h-43q-23 0 -27 -22l-85 -441
q-13 -70 -56 -119q-75 -89 -206 -89q-85 0 -157 39zM74 197q0 -73 39 -114.5t107 -41.5q53 0 95 28t67.5 72.5t38.5 95t13 100.5q0 134 -140 134q-100 0 -160 -84t-60 -190zM363 627h-46l15 73h46z" />
    <glyph glyph-name="Gcommaaccent" unicode="&#x122;" horiz-adv-x="719" 
d="M47 282q0 112 58 212q59 100 156 159q98 59 208 59q75 0 131.5 -25t82.5 -51l9 -8l-27 -34q-13 13 -32 26q-65 50 -165 50q-150 0 -263 -117q-113 -116 -113 -270q0 -113 65 -184q66 -69 175 -69q88 0 161 41q66 37 93 64l13 12l16 82q4 20 4 25q0 15 -19 15h-43l8 40h51
q47 0 47 -37q0 -12 -6 -42l-45 -230h-43l12 61l7 30h-2q-37 -40 -106 -72q-66 -31 -150 -31q-130 0 -206 81q-77 83 -77 213zM313 -66h48q0 -70 -43 -134h-39q36 61 36 104z" />
    <glyph glyph-name="gcommaaccent" unicode="&#x123;" horiz-adv-x="561" 
d="M-2 -171l23 36q58 -34 131 -34q92 0 152 49t77 151q7 41 15 64l3 7h-2q-65 -102 -178 -102q-87 0 -138 53t-51 143q0 72 29 144q29 71 91 121q62 51 142 51q64 0 108.5 -24t56.5 -74h2q-2 9 1 25q6 33 22 47t48 14h49l-7 -39h-43q-23 0 -27 -22l-85 -441
q-13 -70 -56 -119q-75 -89 -206 -89q-85 0 -157 39zM74 197q0 -73 39 -114.5t107 -41.5q53 0 95 28t67.5 72.5t38.5 95t13 100.5q0 134 -140 134q-100 0 -160 -84t-60 -190zM347 566h-48q0 70 43 134h39q-36 -62 -36 -104z" />
    <glyph glyph-name="Hcircumflex" unicode="&#x124;" horiz-adv-x="743" 
d="M92 0h-43l120 617q1 5 1.5 9.5t1.5 7.5t1.5 5.5t0.5 4.5v1q0 15 -19 15h-42l8 40h51q47 0 47 -37q0 -12 -6 -42l-49 -250h444l54 277q11 52 66 52h53l-8 -40h-45q-21 0 -25 -22l-124 -638h-43l64 331h-444zM403 750h-51l101 111h52l59 -111h-47l-41 80h-2z" />
    <glyph glyph-name="hcircumflex" unicode="&#x125;" horiz-adv-x="579" 
d="M62 0h-42l121 624q4 16 4 24q0 14 -19 14h-43l8 38h47q51 0 51 -39q0 -9 -4 -29l-42 -215l-10 -42h2q27 49 87 92q62 45 142 45q141 0 141 -132q0 -27 -7 -63l-48 -247q-3 -15 -3 -18q0 -14 19 -14h43l-7 -38h-49q-49 0 -49 41q0 11 3 25l46 237q8 40 8 69q0 99 -100 99
q-89 0 -163 -71q-72 -71 -89 -158zM131 754h-51l101 111h52l59 -111h-47l-41 80h-2z" />
    <glyph glyph-name="Hbar" unicode="&#x126;" horiz-adv-x="748" 
d="M93 0h-43l100 511h-65l8 40h65l29 149h43l-29 -149h444l29 149h43l-29 -149h65l-8 -40h-65l-100 -511h-43l65 331h-444zM193 511l-27 -140h444l27 140h-444z" />
    <glyph glyph-name="hbar" unicode="&#x127;" horiz-adv-x="579" 
d="M62 0h-42l111 569h-81l8 40h81l18 91h42l-18 -91h133l-8 -40h-133l-30 -152l-10 -42h2q27 49 87 92q62 45 142 45q141 0 141 -132q0 -27 -7 -63l-48 -247q-3 -15 -3 -18q0 -14 19 -14h43l-7 -38h-49q-49 0 -49 41q0 11 3 25l46 237q8 40 8 69q0 99 -100 99
q-89 0 -163 -71q-72 -71 -89 -158z" />
    <glyph glyph-name="Itilde" unicode="&#x128;" horiz-adv-x="276" 
d="M165 0h-170l8 40h63l121 620h-64l8 40h171l-8 -40h-64l-121 -620h64zM118 753h-40q19 108 101 108q21 1 38.5 -10.5t27.5 -26.5t23 -26.5t26 -10.5q39 0 54 71h40q-19 -108 -100 -108q-24 0 -41.5 11.5t-25.5 25.5t-21 25.5t-28 11.5q-39 0 -54 -71z" />
    <glyph glyph-name="itilde" unicode="&#x129;" horiz-adv-x="221" 
d="M42 41q0 15 3 29l69 355q3 15 3 23q0 14 -18 14h-43l8 38h47q50 0 50 -39q0 -11 -4 -31l-70 -360q-3 -15 -3 -18q0 -14 19 -14h43l-7 -38h-49q-48 0 -48 41zM51 592h-40q20 108 101 108q21 1 38.5 -10.5t27.5 -26.5t23 -26.5t26 -10.5q39 0 54 71h40q-19 -108 -100 -108
q-24 0 -41.5 11.5t-25.5 25.5t-21 25.5t-28 11.5q-39 0 -54 -71z" />
    <glyph glyph-name="Imacron" unicode="&#x12a;" horiz-adv-x="276" 
d="M165 0h-170l8 40h63l121 620h-64l8 40h171l-8 -40h-64l-121 -620h64zM354 786h-239l7 40h239z" />
    <glyph glyph-name="imacron" unicode="&#x12b;" horiz-adv-x="221" 
d="M42 41q0 15 3 29l69 355q3 15 3 23q0 14 -18 14h-43l8 38h47q50 0 50 -39q0 -11 -4 -31l-70 -360q-3 -15 -3 -18q0 -14 19 -14h43l-7 -38h-49q-48 0 -48 41zM287 625h-239l7 40h239z" />
    <glyph glyph-name="Ibreve" unicode="&#x12c;" horiz-adv-x="276" 
d="M165 0h-170l8 40h63l121 620h-64l8 40h171l-8 -40h-64l-121 -620h64zM229 747q-46 0 -71.5 29t-15.5 72l3 13h40l-3 -14q-6 -30 7.5 -46t41.5 -16q59 0 73 63l3 13h40l-4 -21q-9 -42 -40.5 -67.5t-73.5 -25.5z" />
    <glyph glyph-name="ibreve" unicode="&#x12d;" horiz-adv-x="221" 
d="M42 41q0 15 3 29l69 355q3 15 3 23q0 14 -18 14h-43l8 38h47q50 0 50 -39q0 -11 -4 -31l-70 -360q-3 -15 -3 -18q0 -14 19 -14h43l-7 -38h-49q-48 0 -48 41zM162 586q-46 0 -71.5 29t-15.5 72l3 13h40l-3 -14q-6 -30 7.5 -46t41.5 -16q60 0 73 63l3 13h40l-4 -21
q-9 -42 -40.5 -67.5t-73.5 -25.5z" />
    <glyph glyph-name="Iogonek" unicode="&#x12e;" horiz-adv-x="276" 
d="M103 0h-108l8 40h63l121 620h-64l8 40h171l-8 -40h-64l-121 -620h64l-8 -40h-1q-19 -5 -61 -44q-43 -40 -43 -74q0 -19 13.5 -31t30.5 -15l14 -2l-18 -38q-3 0 -9 1.5t-20.5 7t-26 13.5t-20.5 23t-9 34q0 67 88 125z" />
    <glyph glyph-name="iogonek" unicode="&#x12f;" horiz-adv-x="221" 
d="M-11 -125q0 66 89 125q-36 4 -36 41q0 15 3 29l69 355q3 15 3 23q0 14 -18 14h-43l8 38h47q50 0 50 -39q0 -11 -4 -31l-70 -360q-3 -15 -3 -18q0 -14 19 -14h43l-7 -38q-13 0 -59 -42t-46 -76q0 -19 13.5 -31t30.5 -15l14 -2l-18 -38q-3 0 -9 1.5t-20.5 7t-26 13.5
t-20.5 23t-9 34zM193 627h-46l15 73h46z" />
    <glyph glyph-name="Idot" unicode="&#x130;" horiz-adv-x="276" 
d="M165 0h-170l8 40h63l121 620h-64l8 40h171l-8 -40h-64l-121 -620h64zM254 788h-46l15 73h46z" />
    <glyph glyph-name="dotlessi" unicode="&#x131;" horiz-adv-x="221" 
d="M42 41q0 15 3 29l69 355q3 15 3 23q0 14 -18 14h-43l8 38h47q50 0 50 -39q0 -11 -4 -31l-70 -360q-3 -15 -3 -18q0 -14 19 -14h43l-7 -38h-49q-48 0 -48 41z" />
    <glyph glyph-name="IJ" unicode="&#x132;" horiz-adv-x="604" 
d="M264 -5l8 42q153 0 189 181l82 420q4 22 -18 22h-125l8 40h132q31 0 42 -13.5t5 -44.5l-83 -424q-29 -140 -97 -184q-61 -39 -143 -39zM165 0h-170l8 40h63l120 620h-64l8 40h171l-8 -40h-64l-120 -620h64z" />
    <glyph glyph-name="ij" unicode="&#x133;" horiz-adv-x="454" 
d="M193 627h-46l15 73h46zM42 41q0 15 3 29l69 355q3 15 3 23q0 14 -18 14h-43l8 38h47q50 0 50 -39q0 -11 -4 -31l-70 -360q-3 -15 -3 -18q0 -14 19 -14h43l-7 -38h-49q-48 0 -48 41zM440 627h-46l14 73h46zM273 -21l87 446q3 15 3 23q0 14 -18 14h-43l8 38h47q50 0 50 -39
q0 -10 -4 -30l-88 -452q-22 -117 -88 -155q-50 -29 -100 -29l-30 2l8 39q10 -2 21 -2q39 0 78 24q50 28 69 121z" />
    <glyph glyph-name="Jcircumflex" unicode="&#x134;" horiz-adv-x="481" 
d="M-2 133q0 16 6 58l3 22h43l-4 -22q-5 -32 -5 -48q0 -56 32 -84.5t85 -28.5q64 0 112 40.5t63 120.5l84 431q4 17 4 24q0 14 -19 14h-174l8 40h183q47 0 47 -37q0 -11 -6 -41l-85 -436q-19 -102 -82 -151q-62 -47 -135 -47q-71 0 -115.5 38t-44.5 107zM301 750h-51
l101 111h52l59 -111h-47l-41 80h-2z" />
    <glyph glyph-name="jcircumflex" unicode="&#x135;" horiz-adv-x="206" 
d="M94 589h-51l101 111h52l59 -111h-47l-41 80h-2zM25 -21l87 446q3 15 3 23q0 14 -18 14h-43l8 38h47q50 0 50 -39q0 -10 -4 -30l-88 -452q-22 -117 -88 -155q-50 -29 -100 -29l-30 2l8 39q10 -2 21 -2q39 0 78 24q50 28 69 121z" />
    <glyph glyph-name="Kcommaaccent" unicode="&#x136;" horiz-adv-x="571" 
d="M92 0h-43l120 617q1 5 1.5 9.5t1.5 7.5t1.5 5.5t0.5 4.5v1q0 15 -19 15h-42l8 40h51q47 0 47 -37q0 -12 -6 -42l-45 -233h99q39 0 62 26l238 286h55l-249 -296q-18 -22 -33 -31l-5 -3v-2q12 -8 19 -35l83 -268q7 -25 38 -25h32l-8 -40h-38q-49 0 -66 54l-82 267
q-7 27 -60 27h-93zM202 -66h48q0 -70 -43 -134h-39q36 61 36 104z" />
    <glyph glyph-name="kcommaaccent" unicode="&#x137;" horiz-adv-x="467" 
d="M62 0h-42l121 625q3 13 3 23q0 14 -18 14h-43l8 38h47q51 0 51 -39q0 -9 -4 -29l-64 -330h57q36 0 62 26l176 172h59l-188 -181q-27 -24 -40 -32l-4 -2l-1 -2q12 -6 23 -35l69 -187q5 -14 14 -18.5t30 -4.5h24l-8 -38h-26q-37 0 -50 10q-12 10 -26 43l-70 189
q-9 23 -52 23h-56zM145 -66h48q0 -70 -43 -134h-39q36 62 36 104z" />
    <glyph glyph-name="kgreenlandic" unicode="&#x138;" horiz-adv-x="480" 
d="M72 0h-42l82 425q3 13 3 23q0 14 -18 14h-43l8 38h47q51 0 51 -39q0 -9 -4 -29l-30 -155h57q36 0 62 26l201 197h59l-213 -206q-27 -24 -40 -32l-4 -2l-1 -2q12 -6 23 -35l61 -162q5 -14 14 -18.5t30 -4.5h24l-8 -38h-26q-37 0 -50 10q-12 10 -26 43l-62 164
q-9 23 -52 23h-56z" />
    <glyph glyph-name="Lacute" unicode="&#x139;" horiz-adv-x="517" 
d="M60 39q0 10 5 35l105 543q1 5 1.5 9.5t1.5 7.5t1.5 5.5t0.5 4.5v1q0 15 -19 15h-42l8 40h51q47 0 47 -37q0 -12 -6 -42l-105 -543q-4 -16 -4 -24q0 -14 18 -14h268q23 0 27 22l9 49h42l-10 -54q-6 -32 -21.5 -44.5t-45.5 -12.5h-283q-49 0 -49 39zM240 750h-46l88 111h58
z" />
    <glyph glyph-name="lacute" unicode="&#x13a;" horiz-adv-x="224" 
d="M43 41q0 11 3 25l108 559q3 15 3 23q0 14 -18 14h-43l8 38h47q50 0 50 -39q0 -9 -4 -29l-109 -562q-3 -15 -3 -18q0 -14 19 -14h43l-7 -38h-49q-48 0 -48 41zM223 754h-46l88 111h58z" />
    <glyph glyph-name="Lcommaaccent" unicode="&#x13b;" horiz-adv-x="517" 
d="M59 39q0 10 5 35l105 543q1 5 1.5 9.5t1.5 7.5t1.5 5.5t0.5 4.5v1q0 15 -19 15h-42l8 40h51q47 0 47 -37q0 -12 -6 -42l-105 -543q-4 -16 -4 -24q0 -14 18 -14h268q23 0 27 22l9 49h42l-10 -54q-6 -32 -21.5 -44.5t-45.5 -12.5h-283q-49 0 -49 39zM215 -66h48
q0 -70 -43 -134h-39q36 61 36 104z" />
    <glyph glyph-name="lcommaaccent" unicode="&#x13c;" horiz-adv-x="224" 
d="M43 41q0 11 3 25l108 559q3 15 3 23q0 14 -18 14h-43l8 38h47q50 0 50 -39q0 -9 -4 -29l-109 -562q-3 -15 -3 -18q0 -14 19 -14h43l-7 -38h-49q-48 0 -48 41zM52 -66h48q0 -70 -43 -134h-39q36 62 36 104q0 2 -0.5 6t-1 11t-0.5 13z" />
    <glyph glyph-name="Lcaron" unicode="&#x13d;" horiz-adv-x="520" 
d="M59 39q0 10 5 35l105 543q1 5 1.5 9.5t1.5 7.5t1.5 5.5t0.5 4.5v1q0 15 -19 15h-42l8 40h51q47 0 47 -37q0 -12 -6 -42l-105 -543q-4 -16 -4 -24q0 -14 18 -14h268q23 0 27 22l9 49h42l-10 -54q-6 -32 -21.5 -44.5t-45.5 -12.5h-283q-49 0 -49 39zM326 700h48
q0 -70 -43 -134h-39q36 62 36 104q0 2 -0.5 6t-1 11t-0.5 13z" />
    <glyph glyph-name="lcaron" unicode="&#x13e;" horiz-adv-x="224" 
d="M43 41q0 11 3 25l108 559q3 15 3 23q0 14 -18 14h-43l8 38h47q50 0 50 -39q0 -9 -4 -29l-109 -562q-3 -15 -3 -18q0 -14 19 -14h43l-7 -38h-49q-48 0 -48 41zM277 700h48q0 -70 -43 -134h-39q36 62 36 104q0 2 -0.5 6t-1 11t-0.5 13z" />
    <glyph glyph-name="Ldot" unicode="&#x13f;" horiz-adv-x="519" 
d="M59 39q0 10 5 35l105 543q1 5 1.5 9.5t1.5 7.5t1.5 5.5t0.5 4.5v1q0 15 -19 15h-42l8 40h51q47 0 47 -37q0 -12 -6 -42l-105 -543q-4 -16 -4 -24q0 -14 18 -14h268q23 0 27 22l9 49h42l-10 -54q-6 -32 -21.5 -44.5t-45.5 -12.5h-283q-49 0 -49 39zM350 336h-57l11 59h57z
" />
    <glyph glyph-name="ldot" unicode="&#x140;" horiz-adv-x="233" 
d="M43 41q0 11 3 25l108 559q3 15 3 23q0 14 -18 14h-43l8 38h47q50 0 50 -39q0 -9 -4 -29l-109 -562q-3 -15 -3 -18q0 -14 19 -14h43l-7 -38h-49q-48 0 -48 41zM264 336h-57l11 59h57z" />
    <glyph glyph-name="Lslash" unicode="&#x141;" horiz-adv-x="517" 
d="M60 39q0 10 5 35l57 296l-72 -37l9 47l72 37l39 200q1 5 1.5 9.5t1.5 7.5t1.5 5.5t0.5 4.5v1q0 15 -19 15h-42l8 40h51q47 0 47 -37q0 -12 -6 -42l-35 -179l128 67l-9 -48l-128 -66l-61 -317q-4 -16 -4 -24q0 -14 18 -14h268q23 0 27 22l9 49h42l-10 -54
q-6 -32 -21.5 -44.5t-45.5 -12.5h-283q-49 0 -49 39z" />
    <glyph glyph-name="lslash" unicode="&#x142;" horiz-adv-x="240" 
d="M54 41q0 11 3 25l62 320l-104 -53l9 47l104 54l37 191q3 15 3 23q0 14 -18 14h-43l8 38h47q50 0 50 -39q0 -9 -4 -29l-34 -174l98 51l-9 -48l-98 -51l-66 -340q-3 -15 -3 -18q0 -14 19 -14h43l-7 -38h-49q-48 0 -48 41z" />
    <glyph glyph-name="Nacute" unicode="&#x143;" horiz-adv-x="747" 
d="M35 0h-52l8 40h42q23 0 27 22l124 638h38l291 -549l42 -87h2q7 57 13 87l96 497q10 52 66 52h53l-8 -40h-45q-21 0 -25 -22l-124 -638h-39l-291 549l-40 86h-2q-10 -67 -14 -86l-96 -494q-12 -55 -66 -55zM498 750h-46l88 111h58z" />
    <glyph glyph-name="nacute" unicode="&#x144;" horiz-adv-x="589" 
d="M72 0h-42l82 422q3 14 3 24q0 16 -19 16h-41l7 38h47q50 0 50 -40q0 -25 -16 -85h2q29 50 88 93q61 44 141 44q141 0 141 -132q0 -27 -7 -63l-48 -247q-3 -15 -3 -18q0 -14 19 -14h43l-7 -38h-49q-49 0 -49 41q0 11 3 25l46 237q8 40 8 69q0 99 -100 99q-89 0 -163 -71
q-72 -71 -89 -158zM390 589h-46l88 111h58z" />
    <glyph glyph-name="Ncommaaccent" unicode="&#x145;" horiz-adv-x="747" 
d="M35 0h-52l8 40h42q23 0 27 22l124 638h38l291 -549l42 -87h2q7 57 13 87l96 497q10 52 66 52h53l-8 -40h-45q-21 0 -25 -22l-124 -638h-39l-291 549l-40 86h-2q-10 -67 -14 -86l-96 -494q-12 -55 -66 -55zM268 -66h48q0 -70 -43 -134h-39q36 61 36 104z" />
    <glyph glyph-name="ncommaaccent" unicode="&#x146;" horiz-adv-x="589" 
d="M72 0h-42l82 422q3 14 3 24q0 16 -19 16h-41l7 38h47q50 0 50 -40q0 -25 -16 -85h2q29 50 88 93q61 44 141 44q141 0 141 -132q0 -27 -7 -63l-48 -247q-3 -15 -3 -18q0 -14 19 -14h43l-7 -38h-49q-49 0 -49 41q0 11 3 25l46 237q8 40 8 69q0 99 -100 99q-89 0 -163 -71
q-72 -71 -89 -158zM209 -66h48q0 -70 -43 -134h-39q36 61 36 104z" />
    <glyph glyph-name="Ncaron" unicode="&#x147;" horiz-adv-x="747" 
d="M35 0h-52l8 40h42q23 0 27 22l124 638h38l291 -549l42 -87h2q7 57 13 87l96 497q10 52 66 52h53l-8 -40h-45q-21 0 -25 -22l-124 -638h-39l-291 549l-40 86h-2q-10 -67 -14 -86l-96 -494q-12 -55 -66 -55zM503 750h-52l-59 111h47l41 -80h2l71 80h51z" />
    <glyph glyph-name="ncaron" unicode="&#x148;" horiz-adv-x="589" 
d="M72 0h-42l82 422q3 14 3 24q0 16 -19 16h-41l7 38h47q50 0 50 -40q0 -25 -16 -85h2q29 50 88 93q61 44 141 44q141 0 141 -132q0 -27 -7 -63l-48 -247q-3 -15 -3 -18q0 -14 19 -14h43l-7 -38h-49q-49 0 -49 41q0 11 3 25l46 237q8 40 8 69q0 99 -100 99q-89 0 -163 -71
q-72 -71 -89 -158zM395 589h-52l-59 111h47l41 -80h2l71 80h51z" />
    <glyph glyph-name="napostrophe" unicode="&#x149;" horiz-adv-x="589" 
d="M72 0h-42l82 422q3 14 3 24q0 16 -19 16h-41l7 38h47q50 0 50 -40q0 -25 -16 -85h2q29 50 88 93q61 44 141 44q141 0 141 -132q0 -27 -7 -63l-48 -247q-3 -15 -3 -18q0 -14 19 -14h43l-7 -38h-49q-49 0 -49 41q0 11 3 25l46 237q8 40 8 69q0 99 -100 99q-89 0 -163 -71
q-72 -71 -89 -158zM59 700h48q0 -70 -43 -134h-39q36 62 36 104z" />
    <glyph glyph-name="Eng" unicode="&#x14a;" horiz-adv-x="746" 
d="M35 0h-52l8 40h42q23 0 27 22l124 638h38l291 -549l42 -87h2q7 57 13 87l96 497q10 52 66 52h53l-8 -40h-45q-21 0 -25 -22l-121 -620q-25 -138 -97 -184q-61 -39 -143 -39l8 42q150 0 187 169l-288 543l-40 86h-2q-10 -67 -14 -86l-96 -494q-12 -55 -66 -55z" />
    <glyph glyph-name="eng" unicode="&#x14b;" horiz-adv-x="575" 
d="M72 0h-42l82 422q3 14 3 24q0 16 -19 16h-41l7 38h47q50 0 50 -40q0 -25 -16 -85h2q29 50 88 93q61 44 141 44q141 0 141 -132q0 -27 -7 -63l-66 -338q-22 -117 -88 -155q-50 -29 -100 -29l-30 2l8 39q10 -2 21 -2q39 0 78 24q50 28 69 121l63 324q8 40 8 69
q0 99 -100 99q-89 0 -163 -71q-72 -71 -89 -158z" />
    <glyph glyph-name="Omacron" unicode="&#x14c;" horiz-adv-x="794" 
d="M47 288q0 113 61 210q61 98 160 156q98 58 207 58q130 0 211 -82q82 -82 82 -210q0 -114 -62 -215t-160 -159t-206 -58q-130 0 -212 84q-81 84 -81 216zM92 288q0 -113 70 -186q70 -72 183 -72q94 0 180 52q86 51 143 143q55 91 55 194q0 109 -71 180t-182 71
q-95 0 -182 -51q-86 -50 -142 -140q-54 -89 -54 -191zM613 786h-239l7 40h239z" />
    <glyph glyph-name="omacron" unicode="&#x14d;" horiz-adv-x="601" 
d="M28 205q0 126 94 216q94 91 217 91q96 0 156 -60t60 -154q0 -127 -95 -219q-94 -91 -216 -91q-96 0 -156 61t-60 156zM72 206q0 -79 49 -128t128 -49q101 0 181 79q81 80 81 189q0 75 -50 125q-49 49 -127 49q-103 0 -182 -79q-80 -78 -80 -186zM490 625h-239l7 40h239z
" />
    <glyph glyph-name="Obreve" unicode="&#x14e;" horiz-adv-x="794" 
d="M47 288q0 113 61 210q61 98 160 156q98 58 207 58q130 0 211 -82q82 -82 82 -210q0 -114 -62 -215t-160 -159t-206 -58q-130 0 -212 84q-81 84 -81 216zM92 288q0 -113 70 -186q70 -72 183 -72q94 0 180 52q86 51 143 143q55 91 55 194q0 109 -71 180t-182 71
q-95 0 -182 -51q-86 -50 -142 -140q-54 -89 -54 -191zM488 747q-46 0 -71.5 29t-15.5 72l3 13h40l-3 -14q-6 -30 7.5 -46t41.5 -16q59 0 73 63l3 13h40l-4 -21q-9 -42 -40.5 -67.5t-73.5 -25.5z" />
    <glyph glyph-name="obreve" unicode="&#x14f;" horiz-adv-x="601" 
d="M28 205q0 126 94 216q94 91 217 91q96 0 156 -60t60 -154q0 -127 -95 -219q-94 -91 -216 -91q-96 0 -156 61t-60 156zM72 206q0 -79 49 -128t128 -49q101 0 181 79q81 80 81 189q0 75 -50 125q-49 49 -127 49q-103 0 -182 -79q-80 -78 -80 -186zM365 586q-46 0 -71.5 29
t-15.5 72l3 13h40l-3 -14q-6 -30 7.5 -46t41.5 -16q59 0 73 63l3 13h40l-4 -21q-9 -42 -40.5 -67.5t-73.5 -25.5z" />
    <glyph glyph-name="Ohungarumlaut" unicode="&#x150;" horiz-adv-x="794" 
d="M47 288q0 113 61 210q61 98 160 156q98 58 207 58q130 0 211 -82q82 -82 82 -210q0 -114 -62 -215t-160 -159t-206 -58q-130 0 -212 84q-81 84 -81 216zM92 288q0 -113 70 -186q70 -72 183 -72q94 0 180 52q86 51 143 143q55 91 55 194q0 109 -71 180t-182 71
q-95 0 -182 -51q-86 -50 -142 -140q-54 -89 -54 -191zM565 750h-46l88 111h56zM451 750h-48l84 111h49z" />
    <glyph glyph-name="ohungarumlaut" unicode="&#x151;" horiz-adv-x="601" 
d="M28 205q0 126 94 216q94 91 217 91q96 0 156 -60t60 -154q0 -127 -95 -219q-94 -91 -216 -91q-96 0 -156 61t-60 156zM72 206q0 -79 49 -128t128 -49q101 0 181 79q81 80 81 189q0 75 -50 125q-49 49 -127 49q-103 0 -182 -79q-80 -78 -80 -186zM442 589h-46l88 111h56z
M328 589h-48l84 111h49z" />
    <glyph glyph-name="OE" unicode="&#x152;" horiz-adv-x="917" 
d="M48 282q0 172 125 300t294 128q14 0 64 -5q52 -5 61 -5h280q47 0 47 -37q0 -12 -6 -42l-6 -32h-42l6 31q4 20 4 25q0 15 -19 15h-275l-56 -287h279l-8 -40h-279l-49 -253q-4 -17 -4 -26q0 -14 18 -14h284q23 0 27 22l9 49h42l-10 -54q-6 -32 -21.5 -44.5t-45.5 -12.5
h-301q-9 0 -57 -5t-61 -5q-138 0 -219 81t-81 211zM93 277q0 -110 68 -178t185 -68q36 0 62 6l9 2l121 622q-34 8 -69 8q-155 0 -266 -116q-110 -116 -110 -276z" />
    <glyph glyph-name="oe" unicode="&#x153;" horiz-adv-x="1005" 
d="M28 205q0 125 94 216t215 91q78 0 133 -40t75 -110h2q40 69 104.5 109.5t141.5 40.5q85 0 129.5 -47.5t44.5 -129.5q0 -27 -10 -67l-3 -11h-401q-6 -26 -6 -55q0 -77 47 -125t129 -48q39 0 81 14.5t66 32.5l20 16l16 -38q-11 -9 -25 -18q-17 -11 -64 -30q-48 -18 -94 -18
q-81 0 -138.5 40t-75.5 111h-2q-42 -68 -114 -110q-71 -41 -147 -41q-98 0 -158 61t-60 156zM563 296h355q4 17 4 42q0 65 -35 100t-94 35q-74 0 -137.5 -47.5t-92.5 -129.5zM72 206q0 -79 49 -128t128 -49q101 0 181 79q81 80 81 189q0 75 -50 125q-49 49 -127 49
q-103 0 -182 -79q-80 -78 -80 -186z" />
    <glyph glyph-name="Racute" unicode="&#x154;" horiz-adv-x="588" 
d="M92 0h-43l129 660h-65l8 40h285q76 0 120 -42t44 -117q0 -85 -54 -148q-52 -61 -131 -75v-2q9 -9 13 -24l70 -229q6 -23 34 -23h28l-8 -40h-29q-31 0 -45 11t-23 42l-64 211q-9 29 -21 37.5t-43 8.5h-144zM221 660l-60 -310h180q76 0 130 54q54 56 54 135q0 59 -32 90
t-92 31h-180zM388 750h-46l88 111h58z" />
    <glyph glyph-name="racute" unicode="&#x155;" horiz-adv-x="327" 
d="M72 0h-42l85 440q4 22 -18 22h-43l8 38h49q27 0 38 -9.5t11 -30.5q0 -8 -8 -45q-7 -34 -14 -52h2q31 63 79.5 102t106.5 39q14 0 30 -3l-9 -42q-3 0 -7 0.5t-6.5 1t-5 0.5h-3.5q-58 0 -105 -46q-82 -78 -111 -224zM251 589h-46l88 111h58z" />
    <glyph glyph-name="Rcommaaccent" unicode="&#x156;" horiz-adv-x="588" 
d="M92 0h-43l129 660h-65l8 40h285q76 0 120 -42t44 -117q0 -85 -54 -148q-52 -61 -131 -75v-2q9 -9 13 -24l70 -229q6 -23 34 -23h28l-8 -40h-29q-31 0 -45 11t-23 42l-64 211q-9 29 -21 37.5t-43 8.5h-144zM221 660l-60 -310h180q76 0 130 54q54 56 54 135q0 59 -32 90
t-92 31h-180zM222 -66h48q0 -70 -43 -134h-39q36 61 36 104z" />
    <glyph glyph-name="rcommaaccent" unicode="&#x157;" horiz-adv-x="328" 
d="M72 0h-42l85 440q4 22 -18 22h-43l8 38h49q27 0 38 -9.5t11 -30.5q0 -8 -8 -45q-7 -34 -14 -52h2q31 63 79.5 102t106.5 39q14 0 30 -3l-9 -42q-3 0 -7 0.5t-6.5 1t-5 0.5h-3.5q-58 0 -105 -46q-82 -78 -111 -224zM13 -66h48q0 -70 -43 -134h-39q36 62 36 104z" />
    <glyph glyph-name="Rcaron" unicode="&#x158;" horiz-adv-x="588" 
d="M92 0h-43l129 660h-65l8 40h285q76 0 120 -42t44 -117q0 -85 -54 -148q-52 -61 -131 -75v-2q9 -9 13 -24l70 -229q6 -23 34 -23h28l-8 -40h-29q-31 0 -45 11t-23 42l-64 211q-9 29 -21 37.5t-43 8.5h-144zM221 660l-60 -310h180q76 0 130 54q54 56 54 135q0 59 -32 90
t-92 31h-180zM393 750h-52l-59 111h47l41 -80h2l71 80h51z" />
    <glyph glyph-name="rcaron" unicode="&#x159;" horiz-adv-x="327" 
d="M72 0h-42l85 440q4 22 -18 22h-43l8 38h49q27 0 38 -9.5t11 -30.5q0 -8 -8 -45q-7 -34 -14 -52h2q31 63 79.5 102t106.5 39q14 0 30 -3l-9 -42q-3 0 -7 0.5t-6.5 1t-5 0.5h-3.5q-58 0 -105 -46q-82 -78 -111 -224zM256 589h-52l-59 111h47l41 -80h2l71 80h51z" />
    <glyph glyph-name="Sacute" unicode="&#x15a;" horiz-adv-x="507" 
d="M7 73l-7 10l31 31q9 -12 28 -30q63 -54 141 -54q80 0 135 46q56 47 56 119q0 85 -103 134q-2 1 -27 12.5t-29.5 14t-26.5 14t-28.5 17.5t-23 18.5t-22 22.5t-14.5 25t-12 31t-3 34q0 82 66 138q68 56 168 56q66 0 117 -25q52 -24 52 -70q0 -5 -2 -21l-8 -40h-43l6 29
q3 13 3 21q0 29 -36.5 46.5t-90.5 17.5q-88 0 -138 -44q-49 -43 -49 -107q0 -76 102 -122q43 -19 66 -30.5t56.5 -36t49 -57t15.5 -75.5q0 -91 -66 -151q-67 -59 -169 -59q-120 1 -194 85zM373 750h-46l88 111h58z" />
    <glyph glyph-name="sacute" unicode="&#x15b;" horiz-adv-x="430" 
d="M-2 62l-5 9l29 31q0 -1 5 -8t17 -18t28.5 -21t43.5 -18t57 -8q60 0 99.5 28.5t39.5 73.5q0 27 -17 47q-10 13 -23.5 23t-23.5 14.5t-42 17.5q-57 23 -91 49q-45 33 -45 90q0 63 50 101q50 39 125 39q57 0 106 -25q50 -24 41 -69l-6 -29h-42l4 24q4 25 -24 41.5t-79 16.5
q-60 0 -95.5 -25.5t-35.5 -68.5q0 -27 17 -50q17 -20 35 -30.5t59 -27.5q56 -23 89 -47q42 -30 42 -88q0 -62 -49 -104t-134 -42q-67 0 -111.5 24.5t-63.5 49.5zM298 589h-46l88 111h58z" />
    <glyph glyph-name="Scircumflex" unicode="&#x15c;" horiz-adv-x="507" 
d="M7 73l-7 10l31 31q9 -12 28 -30q63 -54 141 -54q80 0 135 46q56 47 56 119q0 85 -103 134q-2 1 -27 12.5t-29.5 14t-26.5 14t-28.5 17.5t-23 18.5t-22 22.5t-14.5 25t-12 31t-3 34q0 82 66 138q68 56 168 56q66 0 117 -25q52 -24 52 -70q0 -5 -2 -21l-8 -40h-43l6 29
q3 13 3 21q0 29 -36.5 46.5t-90.5 17.5q-88 0 -138 -44q-49 -43 -49 -107q0 -76 102 -122q43 -19 66 -30.5t56.5 -36t49 -57t15.5 -75.5q0 -91 -66 -151q-67 -59 -169 -59q-120 1 -194 85zM293 750h-51l101 111h52l59 -111h-47l-41 80h-2z" />
    <glyph glyph-name="scircumflex" unicode="&#x15d;" horiz-adv-x="430" 
d="M-2 62l-5 9l29 31q0 -1 5 -8t17 -18t28.5 -21t43.5 -18t57 -8q60 0 99.5 28.5t39.5 73.5q0 27 -17 47q-10 13 -23.5 23t-23.5 14.5t-42 17.5q-57 23 -91 49q-45 33 -45 90q0 63 50 101q50 39 125 39q57 0 106 -25q50 -24 41 -69l-6 -29h-42l4 24q4 25 -24 41.5t-79 16.5
q-60 0 -95.5 -25.5t-35.5 -68.5q0 -27 17 -50q17 -20 35 -30.5t59 -27.5q56 -23 89 -47q42 -30 42 -88q0 -62 -49 -104t-134 -42q-67 0 -111.5 24.5t-63.5 49.5zM218 589h-51l101 111h52l59 -111h-47l-41 80h-2z" />
    <glyph glyph-name="Scedilla" unicode="&#x15e;" horiz-adv-x="509" 
d="M153 -92l-12 -1l33 83q-61 5 -104.5 32.5t-61.5 51.5l-7 9l31 31q9 -12 28 -30q63 -54 141 -54q80 0 135 46q56 47 56 119q0 85 -102 134q-5 2 -30.5 14t-33.5 16.5t-30 17t-30.5 20t-24 22.5t-21.5 28t-11.5 32t-5.5 39q0 82 66 138q68 56 168 56q66 0 117 -25
q52 -24 52 -70q0 -5 -2 -21l-8 -40h-43l6 29q3 13 3 21q0 29 -36.5 46.5t-90.5 17.5q-88 0 -138 -44q-49 -43 -49 -107q0 -76 102 -122q27 -12 36.5 -16t35 -17.5t37 -22t30 -25.5t27 -32.5t15 -38t6.5 -47.5q0 -89 -64 -149q-66 -60 -164 -61l-18 -48q25 -4 41 -20t16 -39
q0 -40 -30.5 -62.5t-73.5 -22.5l-46 4l7 38q18 -5 40 -5q62 0 62 44q0 31 -54 31z" />
    <glyph glyph-name="scedilla" unicode="&#x15f;" horiz-adv-x="432" 
d="M108 -92l-12 -1l34 85q-41 6 -75.5 25t-48.5 37l-12 17l29 31q0 -1 5 -8t17 -18t28.5 -21t43.5 -18t57 -8q60 0 99.5 28.5t39.5 73.5q0 27 -17 47q-10 13 -23.5 23t-23.5 14.5t-42 17.5q-57 23 -91 49q-45 33 -45 90q0 63 50 101q50 39 125 39q57 0 106 -25
q50 -24 41 -69l-6 -29h-42l4 24q4 25 -24 41.5t-79 16.5q-60 0 -95.5 -25.5t-35.5 -68.5q0 -27 17 -50q17 -20 35 -30.5t59 -27.5q56 -23 89 -47q42 -30 42 -88q0 -62 -49 -104q-50 -42 -134 -42h-10l-18 -48q25 -4 41 -20t16 -39q0 -40 -30.5 -62.5t-73.5 -22.5l-46 4l7 38
q18 -5 40 -5q62 0 62 44q0 31 -54 31z" />
    <glyph glyph-name="Scaron" unicode="&#x160;" horiz-adv-x="507" 
d="M7 73l-7 10l31 31q9 -12 28 -30q63 -54 141 -54q80 0 135 46q56 47 56 119q0 85 -103 134q-2 1 -27 12.5t-29.5 14t-26.5 14t-28.5 17.5t-23 18.5t-22 22.5t-14.5 25t-12 31t-3 34q0 82 66 138q68 56 168 56q66 0 117 -25q52 -24 52 -70q0 -5 -2 -21l-8 -40h-43l6 29
q3 13 3 21q0 29 -36.5 46.5t-90.5 17.5q-88 0 -138 -44q-49 -43 -49 -107q0 -76 102 -122q43 -19 66 -30.5t56.5 -36t49 -57t15.5 -75.5q0 -91 -66 -151q-67 -59 -169 -59q-120 1 -194 85zM378 750h-52l-59 111h47l41 -80h2l71 80h51z" />
    <glyph glyph-name="scaron" unicode="&#x161;" horiz-adv-x="430" 
d="M-2 62l-5 9l29 31q0 -1 5 -8t17 -18t28.5 -21t43.5 -18t57 -8q60 0 99.5 28.5t39.5 73.5q0 27 -17 47q-10 13 -23.5 23t-23.5 14.5t-42 17.5q-57 23 -91 49q-45 33 -45 90q0 63 50 101q50 39 125 39q57 0 106 -25q50 -24 41 -69l-6 -29h-42l4 24q4 25 -24 41.5t-79 16.5
q-60 0 -95.5 -25.5t-35.5 -68.5q0 -27 17 -50q17 -20 35 -30.5t59 -27.5q56 -23 89 -47q42 -30 42 -88q0 -62 -49 -104t-134 -42q-67 0 -111.5 24.5t-63.5 49.5zM303 589h-52l-59 111h47l41 -80h2l71 80h51z" />
    <glyph glyph-name="Tcommaaccent" unicode="&#x162;" horiz-adv-x="605" 
d="M226 0h-3l129 660h-202q-23 0 -27 -22l-9 -49h-42l12 63q5 27 18 37.5t41 10.5h469q47 0 47 -37q0 -12 -6 -42l-6 -32h-42l6 31q4 20 4 25q0 15 -19 15h-201l-129 -660h-4l-23 -60q25 -4 41 -20t16 -39q0 -40 -30.5 -62.5t-73.5 -22.5l-46 4l7 38q18 -5 40 -5q62 0 62 44
q0 31 -54 31l-12 -1z" />
    <glyph glyph-name="tcommaaccent" unicode="&#x163;" horiz-adv-x="290" 
d="M87 -92l-12 -1l44 108q-54 31 -54 111q0 25 6 55l55 281h-66l7 38h66l27 139h42l-27 -139h131l-7 -38h-131l-54 -278q-6 -30 -6 -53q0 -64 36 -83q27 -13 60 -13l23 2l-8 -39q-14 -2 -25 -2q-21 0 -45 6l-24 -62q25 -4 41 -20t16 -39q0 -40 -30.5 -62.5t-73.5 -22.5
l-46 4l7 38q18 -5 40 -5q62 0 62 44q0 31 -54 31z" />
    <glyph glyph-name="Tcaron" unicode="&#x164;" horiz-adv-x="605" 
d="M266 0h-43l129 660h-202q-23 0 -27 -22l-9 -49h-42l12 63q5 27 18 37.5t41 10.5h469q47 0 47 -37q0 -12 -6 -42l-6 -32h-42l6 31q4 20 4 25q0 15 -19 15h-201zM420 750h-52l-59 111h47l41 -80h2l71 80h51z" />
    <glyph glyph-name="tcaron" unicode="&#x165;" horiz-adv-x="288" 
d="M63 126q0 25 6 55l55 281h-66l7 38h66l27 139h42l-27 -139h131l-7 -38h-131l-54 -278q-6 -30 -6 -53q0 -64 36 -83q27 -13 60 -13l23 2l-8 -39q-14 -2 -25 -2q-20 0 -39.5 5.5t-41 18t-35 40t-13.5 66.5zM285 700h48q0 -70 -43 -134h-39q36 62 36 104q0 2 -0.5 6t-1 11
t-0.5 13z" />
    <glyph glyph-name="Tbar" unicode="&#x166;" horiz-adv-x="604" 
d="M266 0h-43l66 337h-166l8 40h166l55 283h-202q-23 0 -27 -22l-9 -49h-42l12 63q5 27 18 37.5t41 10.5h469q47 0 47 -37q0 -12 -6 -42l-6 -32h-42l6 31q4 20 4 25q0 15 -19 15h-201l-56 -283h171l-8 -40h-171z" />
    <glyph glyph-name="tbar" unicode="&#x167;" horiz-adv-x="290" 
d="M64 126q0 29 28 169h-66l8 40h66l25 127h-66l7 38h66l27 139h42l-27 -139h131l-7 -38h-131l-25 -127h131l-8 -40h-131l-21 -111q-29 -149 90 -149l23 2l-8 -39q-14 -2 -25 -2q-20 0 -39.5 5.5t-41 18t-35 40t-13.5 66.5z" />
    <glyph glyph-name="Utilde" unicode="&#x168;" horiz-adv-x="704" 
d="M82 180q0 27 6 57l74 380q1 8 2.5 15t1.5 10l1 4q0 14 -19 14h-42l8 40h51q47 0 47 -37q0 -12 -6 -42l-75 -384q-5 -25 -5 -50q0 -74 45 -115.5t126 -41.5q97 0 165 57t87 154l79 407q10 52 66 52h53l-8 -40h-45q-21 0 -25 -22l-79 -407q-21 -111 -100 -177
q-80 -66 -193 -66q-99 0 -157 51.5t-58 140.5zM334 753h-40q19 108 101 108q21 1 38.5 -10.5t27.5 -26.5t23 -26.5t26 -10.5q39 0 54 71h40q-19 -108 -100 -108q-24 0 -41.5 11.5t-25.5 25.5t-21 25.5t-28 11.5q-39 0 -54 -71z" />
    <glyph glyph-name="utilde" unicode="&#x169;" horiz-adv-x="592" 
d="M63 120q0 27 7 63l48 247q3 15 3 18q0 14 -19 14h-43l7 38h49q49 0 49 -41q0 -11 -3 -25l-46 -237q-8 -40 -8 -69q0 -99 100 -99q88 0 159 71q72 72 88 158l47 242h42l-82 -422q-3 -14 -3 -24q0 -16 19 -16h41l-7 -38h-47q-50 0 -50 40q0 25 16 85h-2q-27 -47 -86 -93
q-59 -44 -138 -44q-141 0 -141 132zM240 592h-40q20 108 101 108q21 1 38.5 -10.5t27.5 -26.5t23 -26.5t26 -10.5q39 0 54 71h40q-20 -108 -100 -108q-24 0 -41.5 11.5t-25.5 25.5t-21 25.5t-28 11.5q-39 0 -54 -71z" />
    <glyph glyph-name="Umacron" unicode="&#x16a;" horiz-adv-x="704" 
d="M82 180q0 27 6 57l74 380q1 8 2.5 15t1.5 10l1 4q0 14 -19 14h-42l8 40h51q47 0 47 -37q0 -12 -6 -42l-75 -384q-5 -25 -5 -50q0 -74 45 -115.5t126 -41.5q97 0 165 57t87 154l79 407q10 52 66 52h53l-8 -40h-45q-21 0 -25 -22l-79 -407q-21 -111 -100 -177
q-80 -66 -193 -66q-99 0 -157 51.5t-58 140.5zM570 786h-239l7 40h239z" />
    <glyph glyph-name="umacron" unicode="&#x16b;" horiz-adv-x="592" 
d="M63 120q0 27 7 63l48 247q3 15 3 18q0 14 -19 14h-43l7 38h49q49 0 49 -41q0 -11 -3 -25l-46 -237q-8 -40 -8 -69q0 -99 100 -99q88 0 159 71q72 72 88 158l47 242h42l-82 -422q-3 -14 -3 -24q0 -16 19 -16h41l-7 -38h-47q-50 0 -50 40q0 25 16 85h-2q-27 -47 -86 -93
q-59 -44 -138 -44q-141 0 -141 132zM476 625h-239l7 40h239z" />
    <glyph glyph-name="Ubreve" unicode="&#x16c;" horiz-adv-x="704" 
d="M82 180q0 27 6 57l74 380q1 8 2.5 15t1.5 10l1 4q0 14 -19 14h-42l8 40h51q47 0 47 -37q0 -12 -6 -42l-75 -384q-5 -25 -5 -50q0 -74 45 -115.5t126 -41.5q97 0 165 57t87 154l79 407q10 52 66 52h53l-8 -40h-45q-21 0 -25 -22l-79 -407q-21 -111 -100 -177
q-80 -66 -193 -66q-99 0 -157 51.5t-58 140.5zM445 747q-46 0 -71.5 29t-15.5 72l3 13h40l-3 -14q-6 -30 7.5 -46t41.5 -16q59 0 73 63l3 13h40l-4 -21q-9 -42 -40.5 -67.5t-73.5 -25.5z" />
    <glyph glyph-name="ubreve" unicode="&#x16d;" horiz-adv-x="592" 
d="M63 120q0 27 7 63l48 247q3 15 3 18q0 14 -19 14h-43l7 38h49q49 0 49 -41q0 -11 -3 -25l-46 -237q-8 -40 -8 -69q0 -99 100 -99q88 0 159 71q72 72 88 158l47 242h42l-82 -422q-3 -14 -3 -24q0 -16 19 -16h41l-7 -38h-47q-50 0 -50 40q0 25 16 85h-2q-27 -47 -86 -93
q-59 -44 -138 -44q-141 0 -141 132zM351 586q-46 0 -71.5 29t-15.5 72l3 13h40l-3 -14q-6 -30 7.5 -46t41.5 -16q59 0 73 63l3 13h40l-4 -21q-9 -42 -40.5 -67.5t-73.5 -25.5z" />
    <glyph glyph-name="Uring" unicode="&#x16e;" horiz-adv-x="704" 
d="M82 180q0 27 6 57l74 380q1 8 2.5 15t1.5 10l1 4q0 14 -19 14h-42l8 40h51q47 0 47 -37q0 -12 -6 -42l-75 -384q-5 -25 -5 -50q0 -74 45 -115.5t126 -41.5q97 0 165 57t87 154l79 407q10 52 66 52h53l-8 -40h-45q-21 0 -25 -22l-79 -407q-21 -111 -100 -177
q-80 -66 -193 -66q-99 0 -157 51.5t-58 140.5zM443 739q-27 0 -44.5 16.5t-17.5 42.5q0 30 24.5 53.5t54.5 23.5q28 0 45.5 -16.5t17.5 -42.5q0 -31 -24 -54t-56 -23zM444 773q19 0 30.5 12t11.5 31q0 26 -28 26q-16 0 -28 -12.5t-12 -30.5q0 -26 26 -26z" />
    <glyph glyph-name="uring" unicode="&#x16f;" horiz-adv-x="592" 
d="M63 120q0 27 7 63l48 247q3 15 3 18q0 14 -19 14h-43l7 38h49q49 0 49 -41q0 -11 -3 -25l-46 -237q-8 -40 -8 -69q0 -99 100 -99q88 0 159 71q72 72 88 158l47 242h42l-82 -422q-3 -14 -3 -24q0 -16 19 -16h41l-7 -38h-47q-50 0 -50 40q0 25 16 85h-2q-27 -47 -86 -93
q-59 -44 -138 -44q-141 0 -141 132zM349 578q-27 0 -44.5 16.5t-17.5 42.5q0 30 24.5 53.5t54.5 23.5q28 0 45.5 -16.5t17.5 -42.5q0 -31 -24 -54t-56 -23zM350 612q19 0 30.5 12t11.5 31q0 26 -28 26q-16 0 -28 -12.5t-12 -30.5q0 -26 26 -26z" />
    <glyph glyph-name="Uhungarumlaut" unicode="&#x170;" horiz-adv-x="704" 
d="M82 180q0 27 6 57l74 380q1 8 2.5 15t1.5 10l1 4q0 14 -19 14h-42l8 40h51q47 0 47 -37q0 -12 -6 -42l-75 -384q-5 -25 -5 -50q0 -74 45 -115.5t126 -41.5q97 0 165 57t87 154l79 407q10 52 66 52h53l-8 -40h-45q-21 0 -25 -22l-79 -407q-21 -111 -100 -177
q-80 -66 -193 -66q-99 0 -157 51.5t-58 140.5zM522 750h-46l88 111h56zM408 750h-48l84 111h49z" />
    <glyph glyph-name="uhungarumlaut" unicode="&#x171;" horiz-adv-x="592" 
d="M63 120q0 27 7 63l48 247q3 15 3 18q0 14 -19 14h-43l7 38h49q49 0 49 -41q0 -11 -3 -25l-46 -237q-8 -40 -8 -69q0 -99 100 -99q88 0 159 71q72 72 88 158l47 242h42l-82 -422q-3 -14 -3 -24q0 -16 19 -16h41l-7 -38h-47q-50 0 -50 40q0 25 16 85h-2q-27 -47 -86 -93
q-59 -44 -138 -44q-141 0 -141 132zM428 589h-46l88 111h56zM314 589h-48l84 111h49z" />
    <glyph glyph-name="Uogonek" unicode="&#x172;" horiz-adv-x="705" 
d="M82 180q0 27 6 57l74 380q1 8 2.5 15t1.5 10l1 4q0 14 -19 14h-42l8 40h51q47 0 47 -37q0 -12 -6 -42l-75 -384q-5 -25 -5 -50q0 -74 45 -115.5t126 -41.5q97 0 165 57t87 154l79 407q10 52 66 52h53l-8 -40h-45q-21 0 -25 -22l-79 -407q-16 -80 -62.5 -138t-115.5 -84
q-19 -9 -46 -27q-24 -16 -51 -45q-27 -30 -27 -55q0 -19 13.5 -31t30.5 -15l14 -2l-18 -38q-3 0 -9 1.5t-20.5 7t-26 13.5t-20.5 23t-9 34q0 60 83 114q-6 -1 -29 -1q-99 0 -157 51.5t-58 140.5z" />
    <glyph glyph-name="uogonek" unicode="&#x173;" horiz-adv-x="591" 
d="M361 -125q0 67 89 126q-36 5 -36 39q0 25 16 85h-2q-27 -47 -86 -93q-59 -44 -138 -44q-141 0 -141 132q0 27 7 63l48 247q3 15 3 18q0 14 -19 14h-43l7 38h49q49 0 49 -41q0 -11 -3 -25l-46 -237q-8 -40 -8 -69q0 -99 100 -99q88 0 159 71q72 72 88 158l47 242h42
l-82 -422q-3 -14 -3 -24q0 -16 19 -16h41l-7 -38h-1q-19 -5 -61 -44q-43 -40 -43 -74q0 -19 13.5 -31t30.5 -15l14 -2l-18 -38q-3 0 -9 1.5t-20.5 7t-26 13.5t-20.5 23t-9 34z" />
    <glyph glyph-name="Wcircumflex" unicode="&#x174;" horiz-adv-x="917" 
d="M217 0h-53l-44 635q-1 25 -25 25h-17l8 40h17q31 0 44.5 -12.5t15.5 -45.5l33 -512l2 -75h2l35 75l277 566h51l39 -566l2 -75h2q22 55 32 75l232 512q25 58 76 58h29l-8 -40h-16q-26 0 -36 -22l-292 -638h-53l-38 528l-3 111h-2q-38 -86 -50 -110zM493 750h-51l101 111
h52l59 -111h-47l-41 80h-2z" />
    <glyph glyph-name="wcircumflex" unicode="&#x175;" horiz-adv-x="837" 
d="M200 0h-45l-69 438q-4 24 -28 24h-18l7 38h27q45 0 54 -58l51 -334l6 -54h2q13 30 27 54l213 390h47l61 -390l7 -54h2q5 11 28 54l181 334q19 37 35 48q16 10 53 10h19l-7 -38h-13q-30 0 -43 -24l-239 -438h-45l-64 388l-6 54h-2l-28 -54zM414 589h-51l101 111h52
l59 -111h-47l-41 80h-2z" />
    <glyph glyph-name="Ycircumflex" unicode="&#x176;" horiz-adv-x="585" 
d="M252 0h-43l60 304l-134 329q-11 27 -34 27h-23l8 40h19q30 0 44 -12t29 -46l89 -218l28 -79h2q30 46 58 79l173 218q29 36 47 47q19 11 52 11h21l-8 -40h-18q-28 0 -49 -27l-261 -329zM321 750h-51l101 111h52l59 -111h-47l-41 80h-2z" />
    <glyph glyph-name="ycircumflex" unicode="&#x177;" horiz-adv-x="520" 
d="M6 -210q-24 0 -47.5 10.5t-34.5 23.5l-9 12l23 32l2 -2q36 -36 69 -36q59 0 114 90l53 85l-96 433q-4 24 -33 24h-8l8 38h25q23 0 32 -11.5t18 -46.5l76 -341l8 -47h2q10 21 26 47l207 341q21 35 40 47q17 11 54 11h9l-8 -38h-8q-28 0 -43 -24l-338 -555
q-57 -93 -141 -93zM250 589h-51l101 111h52l59 -111h-47l-41 80h-2z" />
    <glyph glyph-name="Ydieresis" unicode="&#x178;" horiz-adv-x="585" 
d="M252 0h-43l60 304l-134 329q-11 27 -34 27h-23l8 40h19q30 0 44 -12t29 -46l89 -218l28 -79h2q30 46 58 79l173 218q29 36 47 47q19 11 52 11h21l-8 -40h-18q-28 0 -49 -27l-261 -329zM477 788h-46l15 73h46zM340 788h-46l15 73h46z" />
    <glyph glyph-name="Zacute" unicode="&#x179;" horiz-adv-x="594" 
d="M439 0h-459l7 34l506 562l64 64v2q-22 -2 -51 -2h-322q-23 0 -27 -22l-9 -49h-43l10 53q10 58 70 58h436l-7 -34l-507 -562l-64 -64v-2q22 2 51 2h346q23 0 27 22l9 49h43l-10 -53q-10 -58 -70 -58zM417 750h-46l88 111h58z" />
    <glyph glyph-name="zacute" unicode="&#x17a;" horiz-adv-x="500" 
d="M347 0h-361l6 34l375 380l49 47v2q-26 -2 -52 -2h-223q-23 0 -27 -22l-8 -43h-41l9 46q10 58 69 58h338l-7 -34l-375 -380l-50 -47v-2q26 2 53 2h247q23 0 27 22l8 43h41l-9 -46q-10 -58 -69 -58zM333 589h-46l88 111h58z" />
    <glyph glyph-name="Zdotaccent" unicode="&#x17b;" horiz-adv-x="594" 
d="M439 0h-459l7 34l506 562l64 64v2q-22 -2 -51 -2h-322q-23 0 -27 -22l-9 -49h-43l10 53q10 58 70 58h436l-7 -34l-507 -562l-64 -64v-2q22 2 51 2h346q23 0 27 22l9 49h43l-10 -53q-10 -58 -70 -58zM423 788h-46l15 73h46z" />
    <glyph glyph-name="zdotaccent" unicode="&#x17c;" horiz-adv-x="500" 
d="M347 0h-361l6 34l375 380l49 47v2q-26 -2 -52 -2h-223q-23 0 -27 -22l-8 -43h-41l9 46q10 58 69 58h338l-7 -34l-375 -380l-50 -47v-2q26 2 53 2h247q23 0 27 22l8 43h41l-9 -46q-10 -58 -69 -58zM339 627h-46l15 73h46z" />
    <glyph glyph-name="Zcaron" unicode="&#x17d;" horiz-adv-x="594" 
d="M439 0h-459l7 34l506 562l64 64v2q-22 -2 -51 -2h-322q-23 0 -27 -22l-9 -49h-43l10 53q10 58 70 58h436l-7 -34l-507 -562l-64 -64v-2q22 2 51 2h346q23 0 27 22l9 49h43l-10 -53q-10 -58 -70 -58zM422 750h-52l-59 111h47l41 -80h2l71 80h51z" />
    <glyph glyph-name="zcaron" unicode="&#x17e;" horiz-adv-x="500" 
d="M347 0h-361l6 34l375 380l49 47v2q-26 -2 -52 -2h-223q-23 0 -27 -22l-8 -43h-41l9 46q10 58 69 58h338l-7 -34l-375 -380l-50 -47v-2q26 2 53 2h247q23 0 27 22l8 43h41l-9 -46q-10 -58 -69 -58zM338 589h-52l-59 111h47l41 -80h2l71 80h51z" />
    <glyph glyph-name="longs" unicode="&#x17f;" horiz-adv-x="208" 
d="M72 0h-42l89 462h-62l7 38h62l5 22q25 117 91 152q50 29 98 29l31 -2l-9 -39q-10 2 -22 2q-120 0 -147 -141z" />
    <glyph glyph-name="florin" unicode="&#x192;" horiz-adv-x="342" 
d="M-54 -56l-30 2l12 39q10 -2 21 -2q37 0 80 23q52 31 78 122l71 250h-84l7 38h88l31 109q31 112 101 151q52 29 102 29l31 -2l-12 -39q-10 2 -22 2q-117 0 -159 -145l-31 -105h113l-7 -38h-116l-72 -254q-15 -56 -42 -95.5t-59 -55.5q-52 -29 -101 -29z" />
    <glyph glyph-name="Scommaaccent" unicode="&#x218;" horiz-adv-x="507" 
d="M7 73l-7 10l31 31q9 -12 28 -30q63 -54 141 -54q80 0 135 46q56 47 56 119q0 85 -103 134q-2 1 -27 12.5t-29.5 14t-26.5 14t-28.5 17.5t-23 18.5t-22 22.5t-14.5 25t-12 31t-3 34q0 82 66 138q68 56 168 56q66 0 117 -25q52 -24 52 -70q0 -5 -2 -21l-8 -40h-43l6 29
q3 13 3 21q0 29 -36.5 46.5t-90.5 17.5q-88 0 -138 -44q-49 -43 -49 -107q0 -76 102 -122q43 -19 66 -30.5t56.5 -36t49 -57t15.5 -75.5q0 -91 -66 -151q-67 -59 -169 -59q-120 1 -194 85zM160 -66h48q0 -70 -43 -134h-39q36 62 36 104z" />
    <glyph glyph-name="scommaaccent" unicode="&#x219;" horiz-adv-x="430" 
d="M-2 62l-5 9l29 31q0 -1 5 -8t17 -18t28.5 -21t43.5 -18t57 -8q60 0 99.5 28.5t39.5 73.5q0 27 -17 47q-10 13 -23.5 23t-23.5 14.5t-42 17.5q-57 23 -91 49q-45 33 -45 90q0 63 50 101q50 39 125 39q57 0 106 -25q50 -24 41 -69l-6 -29h-42l4 24q4 25 -24 41.5t-79 16.5
q-60 0 -95.5 -25.5t-35.5 -68.5q0 -27 17 -50q17 -20 35 -30.5t59 -27.5q56 -23 89 -47q42 -30 42 -88q0 -62 -49 -104t-134 -42q-67 0 -111.5 24.5t-63.5 49.5zM122 -66h48q0 -70 -43 -134h-39q36 62 36 104q0 2 -0.5 6t-1 11t-0.5 13z" />
    <glyph glyph-name="uni021A" unicode="&#x21a;" horiz-adv-x="605" 
d="M266 0h-43l129 660h-202q-23 0 -27 -22l-9 -49h-42l12 63q5 27 18 37.5t41 10.5h469q47 0 47 -37q0 -12 -6 -42l-6 -32h-42l6 31q4 20 4 25q0 15 -19 15h-201zM208 -66h48q0 -70 -43 -134h-39q36 61 36 104z" />
    <glyph glyph-name="uni021B" unicode="&#x21b;" horiz-adv-x="289" 
d="M63 126q0 25 6 55l55 281h-66l7 38h66l27 139h42l-27 -139h131l-7 -38h-131l-54 -278q-6 -30 -6 -53q0 -64 36 -83q27 -13 60 -13l23 2l-8 -39q-14 -2 -25 -2q-20 0 -39.5 5.5t-41 18t-35 40t-13.5 66.5zM83 -66h48q0 -70 -43 -134h-39q36 62 36 104q0 2 -0.5 6t-1 11
t-0.5 13z" />
    <glyph glyph-name="circumflex" unicode="&#x2c6;" horiz-adv-x="456" 
d="M160 750h-51l101 111h52l59 -111h-47l-41 80h-2z" />
    <glyph glyph-name="caron" unicode="&#x2c7;" horiz-adv-x="461" 
d="M245 750h-52l-59 111h47l41 -80h2l71 80h51z" />
    <glyph glyph-name="breve" unicode="&#x2d8;" horiz-adv-x="471" 
d="M227 747q-46 0 -71.5 29t-15.5 72l3 13h40l-3 -14q-6 -30 7.5 -46t41.5 -16q59 0 73 63l3 13h40l-4 -21q-9 -42 -40.5 -67.5t-73.5 -25.5z" />
    <glyph glyph-name="dotaccent" unicode="&#x2d9;" horiz-adv-x="193" 
d="M111 788h-46l15 73h46z" />
    <glyph glyph-name="ring" unicode="&#x2da;" horiz-adv-x="372" 
d="M178 739q-27 0 -44.5 16.5t-17.5 42.5q0 30 24.5 53.5t54.5 23.5q28 0 45.5 -16.5t17.5 -42.5q0 -31 -24 -54t-56 -23zM179 773q19 0 30.5 12t11.5 31q0 26 -28 26q-16 0 -28 -12.5t-12 -30.5q0 -26 26 -26z" />
    <glyph glyph-name="ogonek" unicode="&#x2db;" horiz-adv-x="327" 
d="M97 -125q0 73 115 142h35v-17q-13 0 -59 -42t-46 -76q0 -19 13.5 -31t30.5 -15l14 -2l-18 -38q-3 0 -9 1.5t-20.5 7t-26 13.5t-20.5 23t-9 34z" />
    <glyph glyph-name="tilde" unicode="&#x2dc;" horiz-adv-x="467" 
d="M115 753h-40q19 108 101 108q21 1 38.5 -10.5t27.5 -26.5t23 -26.5t26 -10.5q39 0 54 71h40q-19 -108 -100 -108q-24 0 -41.5 11.5t-25.5 25.5t-21 25.5t-28 11.5q-39 0 -54 -71z" />
    <glyph glyph-name="hungarumlaut" unicode="&#x2dd;" horiz-adv-x="498" 
d="M261 750h-46l88 111h56zM147 750h-48l84 111h49z" />
    <glyph glyph-name="germandbls.case" unicode="&#x1e9e;" horiz-adv-x="607" 
d="M26 0h-49l8 40h42q23 0 27 22l90 463q13 75 72 125t137 50h240l-6 -30l-199 -237l-16 -18v-2q180 -30 180 -174q0 -104 -81 -175q-79 -70 -201 -70q-46 0 -76 8l-10 2l8 42q33 -10 80 -10q100 0 167 56q67 57 67 144q0 65 -45.5 100t-149.5 45l5 26l195 233l19 20l1 2
q-18 -2 -24 -2h-154q-60 0 -108 -39q-48 -40 -58 -96l-91 -467q-10 -58 -70 -58z" />
    <glyph glyph-name="endash" unicode="&#x2013;" horiz-adv-x="620" 
d="M541 263h-476l7 40h476z" />
    <glyph glyph-name="emdash" unicode="&#x2014;" horiz-adv-x="820" 
d="M741 263h-676l7 40h676z" />
    <glyph glyph-name="quoteleft" unicode="&#x2018;" horiz-adv-x="183" 
d="M153 556h-52l77 151h39z" />
    <glyph glyph-name="quoteright" unicode="&#x2019;" horiz-adv-x="180" 
d="M143 558h-39l64 151h52z" />
    <glyph glyph-name="quotesinglbase" unicode="&#x201a;" horiz-adv-x="217" 
d="M20 -90h-39l64 151h52z" />
    <glyph glyph-name="quotedblleft" unicode="&#x201c;" horiz-adv-x="283" 
d="M253 556h-52l77 151h39zM153 556h-52l77 151h39z" />
    <glyph glyph-name="quotedblright" unicode="&#x201d;" horiz-adv-x="280" 
d="M243 558h-39l64 151h52zM143 558h-39l64 151h52z" />
    <glyph glyph-name="quotedblbase" unicode="&#x201e;" horiz-adv-x="317" 
d="M120 -90h-39l64 151h52zM20 -90h-39l64 151h52z" />
    <glyph glyph-name="dagger" unicode="&#x2020;" horiz-adv-x="381" 
d="M142 -50h-42l99 510h-114l8 40h114l38 200h42l-38 -200h119l-8 -40h-119z" />
    <glyph glyph-name="daggerdbl" unicode="&#x2021;" horiz-adv-x="390" 
d="M146 -50h-42l45 236h-114l8 40h114l46 234h-114l8 40h114l38 200h42l-38 -200h119l-8 -40h-119l-46 -234h119l-8 -40h-119z" />
    <glyph glyph-name="bullet" unicode="&#x2022;" horiz-adv-x="375" 
d="M278 197q-38 -38 -93 -38q-54 0 -94 38q-38 40 -38 94q0 55 38 93q39 39 94 39t93 -39q39 -38 39 -93t-39 -94z" />
    <glyph glyph-name="ellipsis" unicode="&#x2026;" horiz-adv-x="629" 
d="M500 0h-57l11 59h57zM287 0h-57l11 59h57zM74 0h-57l11 59h57z" />
    <glyph glyph-name="perthousand" unicode="&#x2030;" horiz-adv-x="991" 
d="M222 451q-52 0 -82 31t-30 84q0 55 48 100q47 46 107 46q51 0 81 -31t30 -82q0 -57 -48 -103q-46 -45 -106 -45zM55 0h-56l662 700h57zM226 491q42 0 74 32q33 33 33 77q0 31 -20 51.5t-52 20.5q-42 0 -75 -33t-33 -76q0 -31 20 -51.5t53 -20.5zM657 103q0 55 48 100
q47 46 107 46q51 0 81 -31t30 -82q0 -56 -48 -103q-47 -45 -106 -45q-52 0 -82 31t-30 84zM336 103q0 55 48 100q47 46 107 46q51 0 81 -31t30 -82q0 -56 -48 -103q-46 -45 -106 -45q-52 0 -82 31t-30 84zM700 100q0 -31 20 -51.5t53 -20.5q42 0 74 32q33 33 33 77
q0 31 -20 51.5t-52 20.5q-42 0 -75 -33t-33 -76zM379 100q0 -31 20 -51.5t53 -20.5q42 0 74 32q33 33 33 77q0 31 -20 51.5t-52 20.5q-42 0 -75 -33t-33 -76z" />
    <glyph glyph-name="guilsinglleft" unicode="&#x2039;" horiz-adv-x="291" 
d="M198 77h-48l-128 208l192 203h57l-199 -208z" />
    <glyph glyph-name="guilsinglright" unicode="&#x203a;" horiz-adv-x="294" 
d="M73 77h-57l199 208l-126 203h48l128 -208z" />
    <glyph glyph-name="fraction" unicode="&#x2044;" horiz-adv-x="386" 
d="M463 700l-471 -700h-47l472 700h46z" />
    <glyph glyph-name="Euro" unicode="&#x20ac;" horiz-adv-x="579" 
d="M98 268h-61l7 40h56q3 53 16 99h-54l7 40h60q50 117 155 191q106 74 225 74q47 0 83 -9l11 -3l-18 -40q-33 10 -77 10q-103 0 -195 -62q-91 -61 -137 -161h327l-15 -40h-327q-13 -43 -18 -99h305l-14 -40h-292q1 -102 64 -171q61 -67 177 -67q49 0 79 10l12 3l4 -42
q-40 -13 -96 -13q-126 0 -205 77q-77 77 -79 203z" />
    <glyph glyph-name="trademark" unicode="&#x2122;" horiz-adv-x="1051" 
d="M519 264h-29v37h26q10 0 12 11l30 388h35l126 -270l14 -40h2q4 19 14 40l126 270h35l30 -388q2 -11 12 -11h26v-37h-29q-26 0 -35.5 9.5t-11.5 37.5l-23 281l1 28h-2l-127 -274h-34l-127 274h-2l1 -28l-23 -281q-2 -28 -11.5 -37.5t-35.5 -9.5zM321 264h-39v398h-110
q-11 0 -11 -11v-30h-39v32q0 27 10 37t37 10h266q27 0 37 -10t10 -37v-32h-39v30q0 11 -11 11h-111v-398z" />
    <glyph glyph-name="minus" unicode="&#x2212;" 
d="M543 263h-496v40h496v-40z" />
    <glyph glyph-name="infinity" unicode="&#x221e;" horiz-adv-x="444" 
d="M345 232q-48 -48 -116 -48q-67 0 -117 48q-48 50 -48 117q0 68 48 116q50 48 117 48q68 0 116 -48t48 -116q0 -67 -48 -117z" />
    <glyph glyph-name="approxequal" unicode="&#x2248;" 
d="M80 321l-25 30q65 66 141 66q49 0 107 -35q59 -35 91 -35q60 0 116 56l25 -30q-65 -66 -141 -66q-49 0 -108 35q-58 35 -90 35q-60 0 -116 -56zM80 161l-25 30q65 66 141 66q49 0 107 -35q59 -35 91 -35q60 0 116 56l25 -30q-65 -66 -141 -66q-49 0 -108 35
q-58 35 -90 35q-60 0 -116 -56z" />
    <glyph glyph-name="notequal" unicode="&#x2260;" 
d="M159 67l-33 25l68 91h-126v40h156l91 120h-247v40h277l90 119l33 -25l-71 -94h127v-40h-157l-91 -120h248v-40h-278z" />
    <glyph glyph-name="lessequal" unicode="&#x2264;" 
d="M495 68l-439 197v36l439 197v-48l-377 -166v-2l377 -166v-48zM56 -153v40h439v-40h-439z" />
    <glyph glyph-name="greaterequal" unicode="&#x2265;" 
d="M536 265l-439 -197v48l377 166v2l-377 166v48l439 -197v-36zM96 -153v40h439v-40h-439z" />
    <glyph glyph-name="commaaccent" unicode="&#xf6c3;" horiz-adv-x="335" 
d="M155 -66h48q0 -70 -43 -134h-39q36 62 36 104z" />
    <glyph glyph-name="apple" unicode="&#xf8ff;" horiz-adv-x="1130" 
d="M375 -146l-265 141v152l-126 72v278l126 71v151l265 142l134 -71l132 71l265 -142v-151l124 -71v-278l-124 -72v-152l-265 -141l-132 71zM150 169v-139l238 -126l121 66l118 -66l238 126v139l114 64v249l-114 66v136l-238 126l-118 -64l-121 64l-238 -126v-136l-114 -66
v-249zM399 -50l-215 114v121l-99 60v225l99 58v123l215 114l110 -59l107 59l214 -114v-123l100 -58v-225l-100 -60v-121l-214 -114l-107 58zM389 551v-460h43v228h228v40h-228v192h199q17 0 23 -6.5t6 -22.5v-42h42v54q0 30 -13 43.5t-45 13.5h-320v-40h65z" />
    <glyph glyph-name="NULL" horiz-adv-x="0" 
 />
    <glyph glyph-name="CR" horiz-adv-x="333" 
 />
    <glyph glyph-name="T.R" horiz-adv-x="585" 
d="M255 0h-43l129 660h-202q-21 0 -27 -22l-9 -49h-42l11 57q6 31 20 42.5t45 11.5h491l-8 -40h-236z" />
    <glyph glyph-name="T.L" horiz-adv-x="585" 
d="M235 0h-43l129 660h-236l8 40h491q31 0 40 -11.5t3 -42.5l-11 -57h-42l9 49q4 22 -17 22h-202z" />
    <glyph glyph-name="T.cut_mid" horiz-adv-x="585" 
d="M245 0h-43l129 660h-241l8 40h525l-8 -40h-241z" />
    <glyph glyph-name="zero.tnum" horiz-adv-x="550" 
d="M33 209q0 131 43 255q25 71 58 123q37 57 92.5 91t121.5 34q188 0 188 -223q0 -161 -68 -317q-34 -80 -99 -132q-64 -52 -148 -52q-188 0 -188 221zM77 207q0 -177 145 -177q56 0 104 31.5t79 82.5t50 113q36 113 36 233q0 180 -144 180q-67 0 -121.5 -44t-86.5 -118
q-62 -147 -62 -301z" />
    <glyph glyph-name="one.tnum" horiz-adv-x="550" 
d="M411 0h-356l7 40h159l111 570l8 35h-2q-10 -13 -46 -43l-99 -83l-24 29l181 152h43l-129 -660h155z" />
    <glyph glyph-name="two.tnum" horiz-adv-x="550" 
d="M389 0h-345q-27 0 -37 11.5t-10 38.5q0 56 35.5 104t88 80t114.5 67t114.5 66t88 77.5t35.5 100.5q0 58 -36 91.5t-101 33.5q-57 0 -103 -26q-45 -26 -52 -63l-6 -30h-43l8 41q12 62 72 90q60 30 129 30q83 0 130.5 -45.5t47.5 -119.5q0 -53 -26.5 -98t-68.5 -78
t-93 -62.5t-101.5 -56.5t-92.5 -54t-68.5 -62t-26.5 -74q0 -13 4 -17.5t15 -4.5h330q22 0 26 22l10 49h42l-10 -53q-10 -58 -70 -58z" />
    <glyph glyph-name="three.tnum" horiz-adv-x="550" 
d="M13 75l-8 10l34 29q9 -12 28 -30q66 -55 141 -55q85 0 152 59q67 60 67 144q0 66 -44 101.5t-116 35.5l-50 -3l-8 32l252 242l26 20v2q-26 -2 -30 -2h-245q-22 0 -26 -22l-10 -49h-42l10 53q10 58 70 58h345l-6 -30l-275 -262q30 1 61 -7t62 -25.5t51 -53.5t20 -85
q0 -103 -78 -176q-77 -73 -185 -73q-69 0 -121 29t-75 58z" />
    <glyph glyph-name="four.tnum" horiz-adv-x="550" 
d="M354 200h-359l6 30l451 470h43l-90 -460h113l-8 -40h-113l-39 -200h-43zM67 242v-2h295l69 353l10 39h-2q-18 -22 -28 -32z" />
    <glyph glyph-name="five.tnum" horiz-adv-x="550" 
d="M20 70l-6 9l32 27q0 -3 15.5 -20t54.5 -37t86 -20q91 0 161 64q71 65 71 154q0 69 -45 110.5t-118 41.5q-34 0 -70 -10t-56 -22l-18 -11l-31 11l86 275q10 32 25 45t45 13h218q30 0 40.5 -13.5t4.5 -44.5l-10 -53h-42l10 49q4 22 -18 22h-205q-19 0 -26 -22l-57 -185
l-15 -43h2q48 30 123 30q91 0 146 -54q56 -53 56 -138q0 -106 -84 -183q-85 -77 -195 -77q-48 0 -89.5 16.5t-60 32.5t-30.5 33z" />
    <glyph glyph-name="six.tnum" horiz-adv-x="550" 
d="M44 236q0 112 60 236q33 67 75 118q46 56 109.5 89t133.5 33q68 0 112 -21l14 -7l-26 -37q-40 24 -100 24q-119 0 -206 -104q-78 -95 -111 -219h2q37 44 92.5 70t113.5 26q85 0 136 -48.5t51 -129.5q3 -104 -71.5 -191.5t-183.5 -86.5q-95 0 -148 67.5t-53 180.5zM89 221
q0 -75 41 -134q42 -58 114 -58q88 0 150 68q61 68 61 169q0 64 -38.5 100.5t-105.5 36.5q-46 0 -96 -22q-51 -23 -88 -66q-38 -44 -38 -94z" />
    <glyph glyph-name="seven.tnum" horiz-adv-x="550" 
d="M121 0h-51l435 632l23 28v2q-20 -2 -33 -2h-308q-23 0 -27 -22l-9 -49h-42l10 53q10 58 70 58h401l-6 -30z" />
    <glyph glyph-name="eight.tnum" horiz-adv-x="550" 
d="M21 168q0 77 54 139q21 25 48 48q32 27 64 44q-70 48 -70 119q0 76 65 135q67 59 169 59q89 0 137 -39.5t48 -109.5q0 -80 -64 -156q-49 -56 -71 -72q82 -52 82 -127q0 -94 -78 -157t-181 -63q-86 0 -145 47q-58 46 -58 133zM362 356q26 18 70 67q58 65 58 140
q0 49 -38 78.5t-101 29.5q-81 0 -135 -45q-53 -45 -53 -107q0 -50 45 -82q40 -26 44 -28l56 -28q15 -7 34 -15.5t20 -9.5zM67 168q0 -64 45 -102q46 -37 112 -37q82 0 147 50q66 51 66 128q0 50 -49 84q-27 19 -47 28q-33 17 -59 29q-27 12 -56 28q-42 -23 -89 -64
q-70 -60 -70 -144z" />
    <glyph glyph-name="nine.tnum" horiz-adv-x="550" 
d="M40 9l-14 7l23 37q40 -24 100 -24q119 0 205 104q79 94 112 219h-2q-37 -44 -92.5 -70t-114.5 -26q-85 0 -135.5 47.5t-50.5 130.5q-3 104 71.5 191.5t183.5 86.5q95 0 148 -67.5t53 -180.5q0 -114 -61 -237q-31 -63 -75 -118t-108 -88t-134 -33q-69 0 -109 21zM257 297
q46 0 96 22q52 23 90 65q39 44 39 95q0 74 -41 133t-112 59q-89 0 -151 -69q-62 -70 -62 -168q0 -63 38 -100t103 -37z" />
    <glyph glyph-name="T_h" horiz-adv-x="1082" 
d="M266 0h-43l129 660h-202q-23 0 -27 -22l-9 -49h-42l12 63q5 27 18 37.5t41 10.5h498q51 0 51 -39q0 -9 -4 -29l-42 -215l-10 -42h2q27 49 87 92q61 45 142 45q141 0 141 -132q0 -27 -7 -63l-48 -247q-3 -15 -3 -18q0 -14 19 -14h43l-7 -38h-49q-49 0 -49 41q0 11 3 25
l46 237q8 40 8 69q0 99 -100 99q-89 0 -163 -71q-72 -71 -89 -158l-47 -242h-42l121 622q4 16 4 24q0 14 -19 14h-234z" />
    <glyph glyph-name="T.alt" horiz-adv-x="596" 
d="M266 0h-43l129 660h-202q-23 0 -27 -22l-9 -49h-42l12 63q5 27 18 37.5t41 10.5h516l-8 -40h-256z" />
    <glyph glyph-name="Tcommaaccent.alt" horiz-adv-x="596" 
d="M226 0h-3l129 660h-202q-23 0 -27 -22l-9 -49h-42l12 63q5 27 18 37.5t41 10.5h515l-7 -40h-256l-129 -660h-4l-23 -60q25 -4 41 -20t16 -39q0 -40 -30.5 -62.5t-73.5 -22.5l-46 4l7 38q18 -5 40 -5q62 0 62 44q0 31 -54 31l-12 -1z" />
    <glyph glyph-name="Tcaron.alt" horiz-adv-x="596" 
d="M266 0h-43l129 660h-202q-23 0 -27 -22l-9 -49h-42l12 63q5 27 18 37.5t41 10.5h516l-8 -40h-256zM418 750h-52l-59 111h47l41 -80h2l71 80h51z" />
    <glyph glyph-name="Tbar.alt" horiz-adv-x="596" 
d="M266 0h-43l66 337h-166l8 40h166l55 283h-203q-22 0 -26 -22l-9 -49h-42l11 57q6 31 18.5 42.5t42.5 11.5h515l-8 -40h-256l-55 -283h170l-8 -40h-170z" />
    <glyph glyph-name="uni021A.alt" horiz-adv-x="596" 
d="M267 0h-43l128 660h-202q-22 0 -26 -22l-10 -49h-42l11 57q6 31 19 42.5t43 11.5h514l-8 -40h-256zM209 -66h48q0 -30 -4 -47q-6 -37 -39 -87h-39q28 47 34 78q4 25 0 56z" />
    <glyph glyph-name="hyphen.case" horiz-adv-x="423" 
d="M354 329h-276l7 40h276z" />
    <glyph glyph-name="parenleft.case" horiz-adv-x="247" 
d="M145 -65h-42q-46 123 -46 263q0 307 201 557h46q-206 -263 -206 -558q0 -135 47 -262z" />
    <glyph glyph-name="parenright.case" horiz-adv-x="247" 
d="M7 -65h-46q206 263 206 558q0 135 -47 262h42q46 -123 46 -263q0 -306 -201 -557z" />
    <glyph glyph-name="bracketleft.case" horiz-adv-x="242" 
d="M34 -7l137 704q10 58 69 58h50l-8 -40h-43q-22 0 -26 -22l-135 -696q-4 -22 18 -22h43l-8 -40h-50q-31 0 -42 13.5t-5 44.5z" />
    <glyph glyph-name="bracketright.case" horiz-adv-x="242" 
d="M-23 -65l8 40h42q22 0 26 22l135 696q4 22 -18 22h-43l8 40h50q31 0 42 -13.5t5 -44.5l-137 -704q-10 -58 -69 -58h-49z" />
    <glyph glyph-name="braceleft.case" horiz-adv-x="279" 
d="M71 58q0 25 7 60l18 94q3 18 3 32q0 31 -15.5 54.5t-33.5 27.5l-16 5l8 40q11 0 32 11q60 30 76 108l16 81q18 94 65 141q19 17 43 28q36 14 72 14l-7 -39q-30 0 -64 -20q-48 -27 -66 -123l-18 -93q-8 -38 -28 -67.5t-36 -40.5t-31 -17l-9 -2v-2q6 -3 15.5 -9.5t25.5 -32
t16 -57.5q0 -13 -3 -28l-21 -106q-6 -30 -6 -52q0 -91 81 -91l-8 -39q-2 -1 -9 -1q-28 0 -62 20q-45 25 -45 104z" />
    <glyph glyph-name="braceright.case" horiz-adv-x="279" 
d="M-49 -66l7 40q30 0 64 20q48 26 66 123l20 105q11 58 40 88.5t56 39.5l8 2v2l-16 9q-12 9 -26 34.5t-14 52.5q0 13 3 28l18 94q6 30 6 52q0 91 -81 91l8 39q15 1 31.5 -2.5t37 -14t34 -38t13.5 -68.5q0 -24 -7 -60l-16 -82q-3 -18 -3 -32q0 -39 19.5 -60.5t38.5 -24.5
l7 -2l-8 -40q-11 0 -32 -11q-60 -30 -76 -108l-18 -93q-19 -95 -66 -141q-16 -18 -42 -29q-33 -16 -72 -14z" />
    <glyph glyph-name="at.case" horiz-adv-x="717" 
d="M44 285q0 111 60 212q62 101 161 159q101 59 212 59q93 0 142 -40.5t49 -108.5q0 -18 -3 -33l-66 -339h70l-8 -40h-257q-75 0 -121 46t-46 116q0 90 71 159q72 69 168 69h146q2 18 2 25q0 47 -39 76.5t-113 29.5q-152 0 -267.5 -117.5t-115.5 -272.5q0 -115 69 -187
q70 -72 183 -72l-8 -41q-125 0 -207 84q-82 85 -82 216zM282 319q0 -55 35 -90t92 -35h145l60 310h-143q-73 0 -131 -57q-58 -55 -58 -128z" />
    <glyph glyph-name="guillemotleft.case" horiz-adv-x="454" 
d="M364 137h-48l-128 208l204 203h57l-211 -208zM209 137h-48l-128 208l192 203h57l-199 -208z" />
    <glyph glyph-name="guillemotright.case" horiz-adv-x="460" 
d="M239 137h-53l203 205l-124 206h53l124 -206zM79 137h-53l203 205l-124 206h53l124 -206z" />
    <glyph glyph-name="guilsinglleft.case" horiz-adv-x="292" 
d="M209 137h-48l-128 208l192 203h57l-199 -208z" />
    <glyph glyph-name="guilsinglright.case" horiz-adv-x="296" 
d="M86 137h-57l199 208l-126 203h48l128 -208z" />
    <glyph glyph-name="endash.case" horiz-adv-x="625" 
d="M554 323h-476l7 40h476z" />
    <glyph glyph-name="emdash.case" horiz-adv-x="825" 
d="M754 323h-676l7 40h676z" />
    <glyph glyph-name="periodcentered.case" horiz-adv-x="202" 
d="M132 317h-57l11 59h57z" />
    <glyph glyph-name="questiondown.case" horiz-adv-x="417" 
d="M269 525h43l-9 -44q-18 -86 -101 -153q-2 -2 -19.5 -15.5t-21 -16.5t-19 -16t-20 -18t-16.5 -17t-16 -19.5t-11.5 -20t-10.5 -22.5t-5.5 -22.5t-2.5 -25.5q0 -46 33 -75.5t89 -29.5q31 0 65 10t53 22l18 10l17 -37l-22 -13q-12 -7 -55 -21q-39 -13 -78 -13
q-77 0 -121.5 39.5t-44.5 105.5q0 92 78 158q7 6 48.5 39.5t56.5 47.5t36 44t27 59zM294 700h59l-13 -61h-59z" />
    <glyph glyph-name="exclamdown.case" horiz-adv-x="227" 
d="M137 525h43l-103 -525h-43zM163 700h57l-12 -59h-57z" />
    <glyph glyph-name="bullet.case" horiz-adv-x="373" 
d="M287 257q-38 -38 -93 -38q-54 0 -94 38q-38 40 -38 94q0 55 38 93q39 39 94 39q56 0 93 -39q39 -38 39 -93t-39 -94z" />
    </font>
</defs>
</svg>
